<svg width="200" height="200" viewBox="0 0 200 200" fill="none" xmlns="http://www.w3.org/2000/svg">
<path d="M200 152.96H0V153.06H200V152.96Z" fill="#EBEBEB"/>
<path d="M179.96 159.396H166.712V159.496H179.96V159.396Z" fill="#EBEBEB"/>
<path d="M132.488 160.484H129.012V160.584H132.488V160.484Z" fill="#EBEBEB"/>
<path d="M166.312 155.684H158.636V155.784H166.312V155.684Z" fill="#EBEBEB"/>
<path d="M38.26 156.356H20.984V156.456H38.26V156.356Z" fill="#EBEBEB"/>
<path d="M44.356 156.356H41.824V156.456H44.356V156.356Z" fill="#EBEBEB"/>
<path d="M90.06 158.044H52.588V158.144H90.06V158.044Z" fill="#EBEBEB"/>
<path d="M94.8 135.12H17.564C16.9589 135.119 16.379 134.878 15.9516 134.45C15.5241 134.021 15.284 133.441 15.284 132.836V24.264C15.2893 23.6624 15.5317 23.0872 15.9586 22.6633C16.3855 22.2394 16.9624 22.001 17.564 22H94.8C95.4058 22 95.9867 22.2406 96.415 22.669C96.8434 23.0973 97.084 23.6782 97.084 24.284V132.836C97.084 133.442 96.8434 134.023 96.415 134.451C95.9867 134.879 95.4058 135.12 94.8 135.12ZM17.564 22.08C16.9855 22.0811 16.431 22.3116 16.0223 22.7211C15.6135 23.1306 15.384 23.6855 15.384 24.264V132.836C15.384 133.415 15.6135 133.969 16.0223 134.379C16.431 134.788 16.9855 135.019 17.564 135.02H94.8C95.3789 135.019 95.9338 134.789 96.3432 134.379C96.7525 133.97 96.983 133.415 96.984 132.836V24.264C96.983 23.6851 96.7525 23.1302 96.3432 22.7208C95.9338 22.3115 95.3789 22.0811 94.8 22.08H17.564Z" fill="#EBEBEB"/>
<path d="M181.324 135.12H104.084C103.479 135.119 102.898 134.878 102.47 134.45C102.042 134.022 101.801 133.441 101.8 132.836V24.264C101.806 23.662 102.05 23.0868 102.477 22.663C102.905 22.2392 103.482 22.001 104.084 22H181.324C181.925 22.0021 182.501 22.2409 182.927 22.6647C183.353 23.0885 183.595 23.6631 183.6 24.264V132.836C183.6 133.44 183.36 134.02 182.934 134.448C182.507 134.876 181.928 135.118 181.324 135.12ZM104.084 22.08C103.505 22.0811 102.95 22.3115 102.541 22.7208C102.131 23.1302 101.901 23.6851 101.9 24.264V132.836C101.901 133.415 102.131 133.97 102.541 134.379C102.95 134.789 103.505 135.019 104.084 135.02H181.324C181.903 135.019 182.458 134.789 182.867 134.379C183.276 133.97 183.507 133.415 183.508 132.836V24.264C183.507 23.6851 183.276 23.1302 182.867 22.7208C182.458 22.3115 181.903 22.0811 181.324 22.08H104.084Z" fill="#EBEBEB"/>
<path d="M80.156 45.6521H27.98V48.3321H80.156V45.6521Z" fill="#E0E0E0"/>
<path d="M32.68 35.772H30.38V45.652H32.68V35.772Z" fill="#EBEBEB"/>
<path d="M43.796 35.772H41.496V45.652H43.796V35.772Z" fill="#EBEBEB"/>
<path d="M56.4111 35.5222L54.1445 35.9128L55.8228 45.6493L58.0894 45.2586L56.4111 35.5222Z" fill="#EBEBEB"/>
<path d="M35.528 37.072H33.228V45.652H35.528V37.072Z" fill="#EBEBEB"/>
<path d="M40.812 37.072H38.512V45.652H40.812V37.072Z" fill="#EBEBEB"/>
<path d="M54.148 37.072H51.848V45.652H54.148V37.072Z" fill="#EBEBEB"/>
<path d="M46.8177 36.7764L44.5725 37.2754L46.4339 45.651L48.6792 45.1521L46.8177 36.7764Z" fill="#EBEBEB"/>
<path d="M37.516 35.28H36.368V45.652H37.516V35.28Z" fill="#EBEBEB"/>
<path d="M51.188 35.28H50.04V45.652H51.188V35.28Z" fill="#EBEBEB"/>
<path d="M75.148 37.832H63.948V45.564H75.148V37.832Z" fill="#EBEBEB"/>
<path d="M27.98 68.3479H80.156V65.6679H27.98V68.3479Z" fill="#E0E0E0"/>
<path d="M75.452 65.6641H77.752V55.7841H75.452V65.6641Z" fill="#EBEBEB"/>
<path d="M64.34 65.6641H66.64V55.7841H64.34V65.6641Z" fill="#EBEBEB"/>
<path d="M50.0434 65.2734L52.3099 65.6641L53.9882 55.9276L51.7216 55.537L50.0434 65.2734Z" fill="#EBEBEB"/>
<path d="M72.604 65.6641H74.904V57.0841H72.604V65.6641Z" fill="#EBEBEB"/>
<path d="M67.32 65.6641H69.62V57.0841H67.32V65.6641Z" fill="#EBEBEB"/>
<path d="M53.984 65.6641H56.284V57.0841H53.984V65.6641Z" fill="#EBEBEB"/>
<path d="M59.4617 65.1612L61.7069 65.6602L63.5683 57.2845L61.3231 56.7855L59.4617 65.1612Z" fill="#EBEBEB"/>
<path d="M70.62 65.668H71.768V55.296H70.62V65.668Z" fill="#EBEBEB"/>
<path d="M56.948 65.668H58.096V55.296H56.948V65.668Z" fill="#EBEBEB"/>
<path d="M32.988 65.5759H44.188V57.8439H32.988V65.5759Z" fill="#EBEBEB"/>
<path d="M170.704 36.3359H118.336V94.2839H170.704V36.3359Z" fill="#E9E9E9"/>
<path d="M168.536 38.6321H120.64V92.1081H168.536V38.6321Z" fill="#F4F4F4"/>
<path d="M134.176 38.6321L120.64 89.3281V61.8841L126.836 38.6321H134.176Z" fill="white"/>
<path d="M140.228 38.6321L125.952 92.1081H123.26L137.532 38.6321H140.228Z" fill="white"/>
<path d="M168.536 53.2161V80.6641L165.504 92.1081H158.16L168.536 53.2161Z" fill="white"/>
<path d="M145.448 36.3359H143.588V94.2839H145.448V36.3359Z" fill="#E9E9E9"/>
<path d="M169.696 48.0959H119.244V49.956H169.696V48.0959Z" fill="#E9E9E9"/>
<path d="M177.452 124.892C176.732 123.692 175.544 124.74 175.544 124.74C175.716 122.468 173.624 120.912 173.624 120.912C173.624 120.912 176.052 120.912 176.392 118.596C176.732 116.28 175.544 117.356 174.432 117.34C173.32 117.324 172.156 120.576 173.632 122.404C175.108 124.232 174.704 127.348 171.32 130.352C170.508 131.108 169.9 132.058 169.552 133.112C169.804 130.356 169.952 126.472 169.152 123.876C167.772 119.476 170.4 118.276 171.152 116.084C171.904 113.892 169.152 112.02 169.152 112.02C169.152 112.02 171.752 110.82 170.484 109.48C169.216 108.14 166.588 108.308 166.588 110.08C166.588 111.852 168.368 112.528 168.368 112.528C168.368 112.528 170.4 114.644 170.4 115.748C170.4 116.852 168.368 119.22 168.368 119.22C168.368 119.22 169.296 117.188 167.436 117.104C165.576 117.02 164.98 119.472 165.74 120.576C166.5 121.68 167.772 120.744 167.772 120.744C167.851 122.03 168.047 123.306 168.356 124.556C168.548 125.188 168.456 127.672 168.296 130.256C167.944 129.323 167.38 128.485 166.648 127.808C163.26 124.808 162.864 121.688 164.332 119.86C165.8 118.032 164.636 114.784 163.532 114.8C162.428 114.816 161.236 113.736 161.572 116.056C161.908 118.376 164.34 118.372 164.34 118.372C164.34 118.372 162.252 119.928 162.42 122.2C162.42 122.2 161.22 121.168 160.516 122.352C159.228 124.468 162.208 125.784 162.708 124.752C162.708 124.752 169.024 129.224 167.508 135.66L167.864 136.184C167.816 136.704 167.788 137.016 167.788 137.016L168.284 136.804L168.844 137.632C168.824 138.568 168.872 139.503 168.988 140.432L170.5 138.204C168.976 131.764 175.3 127.292 175.3 127.292C175.756 128.324 178.736 127.012 177.452 124.892Z" fill="#E0E0E0"/>
<path opacity="0.2" d="M177.452 124.892C176.732 123.692 175.544 124.74 175.544 124.74C175.716 122.468 173.624 120.912 173.624 120.912C173.624 120.912 176.052 120.912 176.392 118.596C176.732 116.28 175.544 117.356 174.432 117.34C173.32 117.324 172.156 120.576 173.632 122.404C175.108 124.232 174.704 127.348 171.32 130.352C170.508 131.108 169.9 132.058 169.552 133.112C169.804 130.356 169.952 126.472 169.152 123.876C167.772 119.476 170.4 118.276 171.152 116.084C171.904 113.892 169.152 112.02 169.152 112.02C169.152 112.02 171.752 110.82 170.484 109.48C169.216 108.14 166.588 108.308 166.588 110.08C166.588 111.852 168.368 112.528 168.368 112.528C168.368 112.528 170.4 114.644 170.4 115.748C170.4 116.852 168.368 119.22 168.368 119.22C168.368 119.22 169.296 117.188 167.436 117.104C165.576 117.02 164.98 119.472 165.74 120.576C166.5 121.68 167.772 120.744 167.772 120.744C167.851 122.03 168.047 123.306 168.356 124.556C168.548 125.188 168.456 127.672 168.296 130.256C167.944 129.323 167.38 128.485 166.648 127.808C163.26 124.808 162.864 121.688 164.332 119.86C165.8 118.032 164.636 114.784 163.532 114.8C162.428 114.816 161.236 113.736 161.572 116.056C161.908 118.376 164.34 118.372 164.34 118.372C164.34 118.372 162.252 119.928 162.42 122.2C162.42 122.2 161.22 121.168 160.516 122.352C159.228 124.468 162.208 125.784 162.708 124.752C162.708 124.752 169.024 129.224 167.508 135.66L167.864 136.184C167.816 136.704 167.788 137.016 167.788 137.016L168.284 136.804L168.844 137.632C168.824 138.568 168.872 139.503 168.988 140.432L170.5 138.204C168.976 131.764 175.3 127.292 175.3 127.292C175.756 128.324 178.736 127.012 177.452 124.892Z" fill="#E0E0E0"/>
<path d="M176.216 152.352H161.744L160.184 136.508H177.776L176.216 152.352Z" fill="#E6E6E6"/>
<path d="M178.548 134.76H159.412V138.256H178.548V134.76Z" fill="#F0F0F0"/>
<path d="M100 171.024C142.833 171.024 177.556 168.997 177.556 166.496C177.556 163.995 142.833 161.968 100 161.968C57.167 161.968 22.444 163.995 22.444 166.496C22.444 168.997 57.167 171.024 100 171.024Z" fill="#F5F5F5"/>
<path d="M26.584 165.952H96.992L96.992 77.6319L26.584 77.6319L26.584 165.952Z" fill="#FDB813"/>
<path opacity="0.5" d="M97.028 77.6279H26.58V165.72H97.028V77.6279Z" fill="white"/>
<path opacity="0.2" d="M94.908 80.3999H39.072V96.6679H94.908V80.3999Z" fill="black"/>
<path opacity="0.5" d="M42.244 83.0359H39.072V96.6719H42.244V83.0359Z" fill="white"/>
<path opacity="0.5" d="M57.58 83.0359H54.408V96.6719H57.58V83.0359Z" fill="white"/>
<path opacity="0.5" d="M74.9928 82.6926L71.8669 83.2314L74.1832 96.6693L77.3091 96.1305L74.9928 82.6926Z" fill="white"/>
<path opacity="0.5" d="M46.172 84.832H43V96.672H46.172V84.832Z" fill="white"/>
<path opacity="0.5" d="M53.464 84.832H50.292V96.672H53.464V84.832Z" fill="white"/>
<path opacity="0.5" d="M71.868 84.832H68.696V96.672H71.868V84.832Z" fill="white"/>
<path opacity="0.5" d="M61.75 84.4217L58.6536 85.1099L61.2223 96.6679L64.3187 95.9797L61.75 84.4217Z" fill="white"/>
<path opacity="0.5" d="M48.916 82.3599H47.332V96.6719H48.916V82.3599Z" fill="white"/>
<path opacity="0.5" d="M67.78 82.3599H66.196V96.6719H67.78V82.3599Z" fill="white"/>
<path opacity="0.2" d="M39.072 115.516H94.908V99.2479H39.072V115.516Z" fill="black"/>
<path opacity="0.5" d="M91.736 115.516H94.908V101.88H91.736V115.516Z" fill="white"/>
<path opacity="0.5" d="M76.396 115.516H79.568V101.88H76.396V115.516Z" fill="white"/>
<path opacity="0.5" d="M56.6716 114.976L59.7975 115.514L62.1138 102.077L58.9879 101.538L56.6716 114.976Z" fill="white"/>
<path opacity="0.5" d="M87.808 115.516H90.98V103.676H87.808V115.516Z" fill="white"/>
<path opacity="0.5" d="M80.512 115.516H83.684V103.676H80.512V115.516Z" fill="white"/>
<path opacity="0.5" d="M62.112 115.516H65.284V103.676H62.112V115.516Z" fill="white"/>
<path opacity="0.5" d="M69.6697 114.824L72.7662 115.512L75.3349 103.954L72.2384 103.266L69.6697 114.824Z" fill="white"/>
<path opacity="0.5" d="M85.064 115.516H86.648V101.204H85.064V115.516Z" fill="white"/>
<path opacity="0.5" d="M66.2 115.516H67.784V101.204H66.2V115.516Z" fill="white"/>
<path opacity="0.5" d="M42.244 101.88H39.072V115.516H42.244V101.88Z" fill="white"/>
<path opacity="0.5" d="M46.172 103.676H43V115.516H46.172V103.676Z" fill="white"/>
<path opacity="0.5" d="M53.464 103.676H50.292V115.516H53.464V103.676Z" fill="white"/>
<path opacity="0.5" d="M48.916 101.204H47.332V115.516H48.916V101.204Z" fill="white"/>
<path opacity="0.2" d="M94.908 118.092H39.072V134.36H94.908V118.092Z" fill="black"/>
<g opacity="0.5">
<path opacity="0.5" d="M74.292 120.728H71.12V134.364H74.292V120.728Z" fill="white"/>
<path opacity="0.5" d="M91.7045 120.382L88.5786 120.921L90.8948 134.359L94.0208 133.82L91.7045 120.382Z" fill="white"/>
<path opacity="0.5" d="M62.884 122.524H59.712V134.364H62.884V122.524Z" fill="white"/>
<path opacity="0.5" d="M70.176 122.524H67.004V134.364H70.176V122.524Z" fill="white"/>
<path opacity="0.5" d="M88.576 122.524H85.404V134.364H88.576V122.524Z" fill="white"/>
<path opacity="0.5" d="M78.4613 122.11L75.3648 122.798L77.9335 134.356L81.03 133.668L78.4613 122.11Z" fill="white"/>
<path opacity="0.5" d="M65.624 120.048H64.04V134.36H65.624V120.048Z" fill="white"/>
<path opacity="0.5" d="M84.492 120.048H82.908V134.36H84.492V120.048Z" fill="white"/>
<path opacity="0.5" d="M55.2148 120.385L52.0889 120.924L54.4051 134.361L57.531 133.823L55.2148 120.385Z" fill="white"/>
<path opacity="0.5" d="M52.084 122.524H48.912V134.364H52.084V122.524Z" fill="white"/>
<path opacity="0.5" d="M41.9704 122.115L38.874 122.803L41.4427 134.361L44.5391 133.673L41.9704 122.115Z" fill="white"/>
<path opacity="0.5" d="M48 120.048H46.416V134.36H48V120.048Z" fill="white"/>
</g>
<path opacity="0.2" d="M26.584 165.952H36.948L36.948 77.6319H26.584L26.584 165.952Z" fill="black"/>
<path opacity="0.1" d="M94.492 137.248H68.064V162.276H94.492V137.248Z" fill="black"/>
<path opacity="0.1" d="M65.956 137.248H39.072V162.276H65.956V137.248Z" fill="black"/>
<path opacity="0.2" d="M64.348 148.492C64.348 148.744 64.2734 148.989 64.1337 149.199C63.9939 149.408 63.7952 149.571 63.5628 149.667C63.3304 149.763 63.0746 149.789 62.8279 149.74C62.5811 149.69 62.3545 149.569 62.1766 149.391C61.9987 149.214 61.8775 148.987 61.8285 148.74C61.7794 148.493 61.8046 148.238 61.9008 148.005C61.9971 147.773 62.1602 147.574 62.3693 147.434C62.5785 147.295 62.8244 147.22 63.076 147.22C63.4134 147.22 63.7369 147.354 63.9755 147.593C64.214 147.831 64.348 148.155 64.348 148.492Z" fill="black"/>
<path opacity="0.2" d="M71.948 148.492C71.948 148.744 71.8734 148.989 71.7336 149.199C71.5938 149.408 71.3952 149.571 71.1628 149.667C70.9303 149.763 70.6746 149.789 70.4278 149.74C70.1811 149.69 69.9544 149.569 69.7766 149.391C69.5987 149.214 69.4775 148.987 69.4284 148.74C69.3794 148.493 69.4045 148.238 69.5008 148.005C69.5971 147.773 69.7601 147.574 69.9693 147.434C70.1785 147.295 70.4244 147.22 70.676 147.22C71.0133 147.22 71.3369 147.354 71.5754 147.593C71.814 147.831 71.948 148.155 71.948 148.492Z" fill="black"/>
<path d="M143.616 86.1399H138.476L139.844 100.856L131.716 102.076V103.1H148.836V102.076L145.328 100.856L143.616 86.1399Z" fill="#263238"/>
<path d="M123.66 95.4799C123.633 95.7053 123.655 95.9337 123.723 96.1501C123.792 96.3665 123.905 96.5658 124.057 96.7349C124.208 96.904 124.393 97.039 124.601 97.1309C124.808 97.2228 125.033 97.2695 125.26 97.268H156.4C156.887 97.258 157.353 97.071 157.712 96.7418C158.07 96.4126 158.297 95.964 158.348 95.4799L160.196 75.5599C160.218 75.3658 160.204 75.1693 160.156 74.9799C160.066 74.6327 159.863 74.3256 159.578 74.108C159.293 73.8904 158.943 73.7748 158.584 73.7799H127.456C126.969 73.7899 126.503 73.9769 126.144 74.3061C125.786 74.6353 125.56 75.0839 125.508 75.5679L123.66 95.4799Z" fill="#263238"/>
<path d="M156.4 96.2681C156.638 96.2592 156.864 96.1655 157.039 96.0041C157.213 95.8428 157.324 95.6242 157.352 95.3881L159.2 75.4681C159.215 75.3874 159.215 75.3047 159.2 75.2241C159.169 75.0902 159.092 74.9715 158.982 74.8888C158.873 74.8061 158.737 74.7648 158.6 74.7721H127.456C127.219 74.7811 126.993 74.8748 126.819 75.0363C126.645 75.1978 126.535 75.4162 126.508 75.6521L124.66 95.5721C124.648 95.662 124.656 95.7534 124.682 95.8403C124.708 95.9272 124.753 96.0075 124.812 96.0761C124.871 96.1397 124.943 96.1898 125.023 96.2229C125.103 96.2561 125.189 96.2715 125.276 96.2681H156.4Z" fill="#FDB813"/>
<path opacity="0.6" d="M156.4 96.2681C156.638 96.2592 156.864 96.1655 157.039 96.0041C157.213 95.8428 157.324 95.6242 157.352 95.3881L159.2 75.4681C159.215 75.3874 159.215 75.3047 159.2 75.2241C159.169 75.0902 159.092 74.9715 158.982 74.8888C158.873 74.8061 158.737 74.7648 158.6 74.7721H127.456C127.219 74.7811 126.993 74.8748 126.819 75.0363C126.645 75.1978 126.535 75.4162 126.508 75.6521L124.66 95.5721C124.648 95.662 124.656 95.7534 124.682 95.8403C124.708 95.9272 124.753 96.0075 124.812 96.0761C124.871 96.1397 124.943 96.1898 125.023 96.2229C125.103 96.2561 125.189 96.2715 125.276 96.2681H156.4Z" fill="white"/>
<path d="M134.764 90.9919C134.764 90.9919 134.132 79.8559 136.876 77.3119C139.62 74.7679 143.316 75.5079 145.276 76.8679C147.236 78.2279 149.388 81.7599 147.436 92.2559L134.764 90.9919Z" fill="#263238"/>
<path d="M147.364 96.268C147.362 96.2508 147.362 96.2333 147.364 96.216C147.601 95.456 147.868 94.636 148.164 93.756C148.384 93.088 148.62 92.38 148.884 91.632C147.314 91.1306 145.71 90.7443 144.084 90.476C142.374 90.1728 140.644 89.991 138.908 89.932C136.664 89.912 134.088 90.164 134.088 90.164C134.088 90.164 133.72 90.252 133.492 92.632C133.412 93.488 133.332 94.676 133.288 96.268H147.364Z" fill="#FDB813"/>
<path d="M147.364 96.268C147.362 96.2508 147.362 96.2333 147.364 96.216C147.601 95.456 147.868 94.636 148.164 93.756C148.384 93.088 148.62 92.38 148.884 91.632C147.314 91.1306 145.71 90.7443 144.084 90.476C142.374 90.1728 140.644 89.991 138.908 89.932C136.664 89.912 134.088 90.164 134.088 90.164C134.088 90.164 133.72 90.252 133.492 92.632C133.42 93.4 133.352 94.632 133.316 96.268H147.364Z" fill="#FDB813"/>
<g opacity="0.2">
<path opacity="0.2" d="M147.364 96.268C147.362 96.2508 147.362 96.2333 147.364 96.216C147.601 95.456 147.868 94.636 148.164 93.756C148.384 93.088 148.62 92.38 148.884 91.632C147.314 91.1306 145.71 90.7443 144.084 90.476C142.374 90.1728 140.644 89.991 138.908 89.932C136.664 89.912 134.088 90.164 134.088 90.164C134.088 90.164 133.72 90.252 133.492 92.632C133.412 93.488 133.332 94.676 133.288 96.268H147.364Z" fill="black"/>
<path opacity="0.2" d="M147.364 96.268C147.362 96.2508 147.362 96.2333 147.364 96.216C147.601 95.456 147.868 94.636 148.164 93.756C148.384 93.088 148.62 92.38 148.884 91.632C147.314 91.1306 145.71 90.7443 144.084 90.476C142.374 90.1728 140.644 89.991 138.908 89.932C136.664 89.912 134.088 90.164 134.088 90.164C134.088 90.164 133.72 90.252 133.492 92.632C133.42 93.4 133.352 94.632 133.316 96.268H147.364Z" fill="black"/>
</g>
<path d="M133.868 96.2681L133.668 92.9641L133.496 90.1641C132.808 90.3001 130.98 93.4321 129.456 96.2681H133.868Z" fill="white"/>
<path opacity="0.2" d="M133.868 96.2679L133.668 92.9639C132.833 93.9624 132.147 95.0767 131.632 96.2719L133.868 96.2679Z" fill="black"/>
<path d="M150.876 96.2678C149.652 92.6878 148.896 91.6318 148.896 91.6318L147.252 96.2678H150.876Z" fill="white"/>
<path d="M139.88 92.4759C142.72 92.1119 143.576 90.8999 143.576 90.8999C141.772 89.1999 143.272 86.252 143.272 86.252L139.852 86.888C139.93 87.3642 139.974 87.8454 139.984 88.328C140.008 90.4039 139.072 90.4279 139.072 90.4279C138.472 91.5519 139.88 92.4759 139.88 92.4759Z" fill="#EEC1BB"/>
<path opacity="0.2" d="M139.852 86.888C139.93 87.3642 139.974 87.8454 139.984 88.3279C142.296 88.3279 143.272 86.252 143.272 86.252L139.852 86.888Z" fill="black"/>
<path d="M141.74 77.3241C138.768 77.1641 137.74 78.7041 137.34 81.7561C136.86 85.5681 137.56 88.3361 141.34 87.7201C146.428 86.8881 146.68 77.6001 141.74 77.3241Z" fill="#EEC1BB"/>
<path d="M139.268 81.6919C139.008 82.1287 138.695 82.5317 138.336 82.8919C138.414 83.0226 138.527 83.1292 138.661 83.1998C138.796 83.2704 138.948 83.3023 139.1 83.2919L139.268 81.6919Z" fill="#D4827D"/>
<path d="M141.244 79.4999C141.48 79.4838 141.717 79.5223 141.937 79.6124C142.156 79.7026 142.351 79.842 142.508 80.0199" stroke="#263238" stroke-width="0.72468" stroke-linecap="round" stroke-linejoin="round"/>
<path d="M139.092 79.256C138.892 79.1932 138.68 79.1764 138.472 79.2069C138.264 79.2374 138.066 79.3143 137.892 79.432" stroke="#263238" stroke-width="0.72468" stroke-linecap="round" stroke-linejoin="round"/>
<path d="M139.472 84.4521C139.594 84.7952 139.69 85.1468 139.76 85.5041H139.952C140.824 85.4641 141.216 85.1601 141.384 84.8321C141.464 84.6707 141.502 84.492 141.496 84.3121C141.499 84.2095 141.487 84.1071 141.46 84.0081C140.935 84.2749 140.357 84.4224 139.768 84.4401C139.6 84.4521 139.472 84.4521 139.472 84.4521Z" fill="#263238"/>
<path d="M139.768 84.432L139.86 84.74C140.68 84.7 141.252 84.564 141.496 84.304C141.499 84.2014 141.487 84.099 141.46 84C140.935 84.2669 140.357 84.4144 139.768 84.432Z" fill="white"/>
<path d="M139.952 85.496C140.824 85.456 141.216 85.152 141.384 84.824C141.054 84.8444 140.73 84.9244 140.428 85.06C140.228 85.1525 140.062 85.3049 139.952 85.496Z" fill="#DE5753"/>
<path d="M144.716 82.516C144.716 82.516 143.46 79.996 143.772 78.116C143.772 78.116 138.012 75.388 137.396 81.352C137.396 81.352 137.112 76.012 142.228 76.172C147.344 76.332 146.916 83.808 144.152 85.892C144.152 85.896 145.492 84.088 144.716 82.516Z" fill="#263238"/>
<path d="M144.196 83.116C144.245 82.7742 144.426 82.4655 144.701 82.2566C144.976 82.0477 145.322 81.9555 145.664 82C146.58 82.152 146.916 84.068 144.6 84.4C144.268 84.444 144.1 84.112 144.196 83.116Z" fill="#EEC1BB"/>
<path d="M140.484 81.5759C140.484 81.5759 141.22 80.9319 141.78 81.4599C141.353 81.5416 140.919 81.5805 140.484 81.5759Z" fill="#263238"/>
<path d="M139.08 81.54C139.08 81.54 138.412 80.8281 137.8 81.296C138.218 81.4185 138.646 81.5003 139.08 81.54Z" fill="#263238"/>
<path d="M146.212 91.2C146.212 91.2 142.872 93.908 139.768 93.864C136.664 93.82 135.568 90.324 135.568 90.324C135.568 90.324 140.4 88.916 146.212 91.2Z" fill="#EEC1BB"/>
<path d="M147.852 96.2679C148.152 94.6679 148.496 93.0679 148.892 91.6319L145.928 90.7039C145.03 92.4601 144.381 94.3327 144 96.2679H147.852Z" fill="white"/>
<path d="M135.496 96.2679C135.852 93.3399 135.876 89.9319 135.876 89.9319L133.496 90.1639C132.908 91.7639 132.596 93.9719 132.444 96.2679H135.496Z" fill="white"/>
<path d="M140.484 76.644C139.659 76.7143 138.877 77.0387 138.244 77.5724C137.612 78.1061 137.16 78.8229 136.952 79.624C137.824 79.1092 138.843 78.8996 139.848 79.0281C140.03 78.6509 140.242 78.2897 140.484 77.948C140.306 78.2949 140.188 78.6696 140.136 79.056C140.677 79.1166 141.212 79.2196 141.736 79.364C141.884 79.0754 142.068 78.8066 142.284 78.564C142.175 78.8591 142.114 79.1697 142.104 79.4841C142.502 79.6017 142.894 79.742 143.276 79.904C143.423 79.1621 143.728 78.4607 144.172 77.848C144.172 77.848 143.42 76.372 140.484 76.644Z" fill="#263238"/>
<path d="M144.744 83.94C144.734 83.9274 144.724 83.914 144.716 83.9C144.636 83.7549 144.607 83.5876 144.632 83.424C144.676 83.076 145.196 82.224 145.6 82.72C145.692 82.8502 145.735 83.0091 145.72 83.168C145.712 83.3852 145.653 83.5975 145.548 83.788C145.509 83.8739 145.451 83.9492 145.377 84.0077C145.303 84.0661 145.216 84.106 145.124 84.124C145.05 84.1284 144.976 84.1138 144.91 84.0816C144.843 84.0494 144.786 84.0006 144.744 83.94Z" fill="#FDB813"/>
<path opacity="0.2" d="M144.744 83.94C144.734 83.9274 144.724 83.914 144.716 83.9C144.636 83.7549 144.607 83.5876 144.632 83.424C144.676 83.076 145.196 82.224 145.6 82.72C145.692 82.8502 145.735 83.0091 145.72 83.168C145.712 83.3852 145.653 83.5975 145.548 83.788C145.509 83.8739 145.451 83.9492 145.377 84.0077C145.303 84.0661 145.216 84.106 145.124 84.124C145.05 84.1284 144.976 84.1138 144.91 84.0816C144.843 84.0494 144.786 84.0006 144.744 83.94Z" fill="black"/>
<path d="M144.8 83.3921C144.8 83.3921 145.156 82.6401 145.396 82.7801C145.636 82.9201 145.54 83.5801 145.308 83.7081C145.164 83.7929 145.055 83.9262 145 84.0841C145 84.0841 144.012 85.2841 143.752 85.1601V84.8241C144.229 84.4551 144.593 83.9587 144.8 83.3921Z" fill="#FDB813"/>
<path d="M138.496 167.264H140.948L145.352 105.968H142.1L138.496 167.264Z" fill="#263238"/>
<path opacity="0.4" d="M138.496 167.264H140.948L145.136 109.012L145.352 106.064H142.1L141.924 109.012L138.496 167.264Z" fill="white"/>
<path opacity="0.2" d="M141.924 108.864H145.136L145.352 106.064H142.1L141.924 108.864Z" fill="black"/>
<path d="M120.512 167.264H122.964L123.364 105.968H120.112L120.512 167.264Z" fill="#263238"/>
<path opacity="0.5" d="M120.112 106.064L120.176 115.956L120.512 167.264H122.964L123.3 115.956L123.364 106.064H120.112Z" fill="white"/>
<path opacity="0.2" d="M120.112 106.064L120.176 116.064H123.3L123.364 106.064H120.112Z" fill="black"/>
<path d="M94.496 167.264H96.948L101.352 105.968H98.1L94.496 167.264Z" fill="#263238"/>
<path opacity="0.5" d="M94.496 167.264H96.948L101.136 109.012L101.352 106.064H98.1L97.924 109.012L94.496 167.264Z" fill="white"/>
<path opacity="0.2" d="M97.924 108.864H101.136L101.352 106.064H98.1L97.924 108.864Z" fill="black"/>
<path d="M166.528 167.264H168.98L165.38 105.968H162.128L166.528 167.264Z" fill="#263238"/>
<path opacity="0.5" d="M162.128 106.064L162.344 109.012L166.532 167.264H168.98L165.556 109.012L165.38 106.064H162.128Z" fill="white"/>
<path opacity="0.2" d="M165.38 106.064H162.128L162.344 108.864H165.556L165.38 106.064Z" fill="black"/>
<path d="M167.076 107.5L96.384 107.5C96.2705 107.5 96.1582 107.478 96.0533 107.434C95.9485 107.391 95.8533 107.327 95.773 107.247C95.6928 107.167 95.6292 107.071 95.5857 106.967C95.5423 106.862 95.52 106.749 95.52 106.636V104.432L167.952 104.432V106.636C167.952 106.75 167.929 106.864 167.885 106.969C167.841 107.075 167.776 107.171 167.695 107.251C167.613 107.332 167.517 107.395 167.41 107.438C167.304 107.48 167.19 107.502 167.076 107.5Z" fill="#FDB813"/>
<path opacity="0.6" d="M167.076 107.5L96.384 107.5C96.2705 107.5 96.1582 107.478 96.0533 107.434C95.9485 107.391 95.8533 107.327 95.773 107.247C95.6928 107.167 95.6292 107.071 95.5857 106.967C95.5423 106.862 95.52 106.749 95.52 106.636V104.432L167.952 104.432V106.636C167.952 106.75 167.929 106.864 167.885 106.969C167.841 107.075 167.776 107.171 167.695 107.251C167.613 107.332 167.517 107.395 167.41 107.438C167.304 107.48 167.19 107.502 167.076 107.5Z" fill="white"/>
<path opacity="0.2" d="M95.52 105.964L167.952 105.964V104.428L95.52 104.428V105.964Z" fill="black"/>
<path d="M94 104.832H169.476C169.589 104.832 169.702 104.81 169.807 104.766C169.911 104.723 170.007 104.659 170.087 104.579C170.167 104.499 170.231 104.403 170.274 104.298C170.318 104.194 170.34 104.081 170.34 103.968C170.34 103.738 170.249 103.518 170.087 103.355C169.925 103.193 169.705 103.101 169.476 103.1H94C93.7705 103.101 93.5507 103.193 93.3888 103.355C93.2269 103.518 93.136 103.738 93.136 103.968C93.136 104.081 93.1583 104.194 93.2018 104.298C93.2452 104.403 93.3088 104.499 93.3891 104.579C93.4693 104.659 93.5645 104.723 93.6693 104.766C93.7742 104.81 93.8865 104.832 94 104.832Z" fill="#FDB813"/>
<path opacity="0.6" d="M94 104.832H169.476C169.589 104.832 169.702 104.81 169.807 104.766C169.911 104.723 170.007 104.659 170.087 104.579C170.167 104.499 170.231 104.403 170.274 104.298C170.318 104.194 170.34 104.081 170.34 103.968C170.34 103.738 170.249 103.518 170.087 103.355C169.925 103.193 169.705 103.101 169.476 103.1H94C93.7705 103.101 93.5507 103.193 93.3888 103.355C93.2269 103.518 93.136 103.738 93.136 103.968C93.136 104.081 93.1583 104.194 93.2018 104.298C93.2452 104.403 93.3088 104.499 93.3891 104.579C93.4693 104.659 93.5645 104.723 93.6693 104.766C93.7742 104.81 93.8865 104.832 94 104.832Z" fill="white"/>
<path d="M138.524 103.1L138.128 101.612H121.908L114.44 102.356L114.156 103.1H138.524Z" fill="#263238"/>
<path opacity="0.4" d="M121.908 101.612V103.1H138.524L138.128 101.612H121.908Z" fill="black"/>
<path d="M168.472 100.924C168.505 101.67 168.368 102.414 168.072 103.1H150.872V102.7H151.22V99.16H150.872V98.76H168.072C168.362 99.4435 168.498 100.182 168.472 100.924Z" fill="#263238"/>
<path opacity="0.2" d="M168.472 100.924C168.505 101.67 168.368 102.414 168.072 103.1H150.872V102.7H151.22V99.16H150.872V98.76H168.072C168.362 99.4435 168.498 100.182 168.472 100.924Z" fill="white"/>
<path opacity="0.2" d="M159.272 100.924C159.305 101.67 159.168 102.414 158.872 103.1H150.872V102.7H151.22V99.16H150.872V98.76H158.872C159.162 99.4435 159.298 100.182 159.272 100.924Z" fill="black"/>
<path opacity="0.8" d="M158.424 100.924C158.451 101.53 158.34 102.134 158.1 102.692H151.224V99.1519H158.1C158.337 99.7116 158.447 100.317 158.424 100.924Z" fill="white"/>
<path opacity="0.6" d="M165.672 100.924C165.705 101.67 165.568 102.414 165.272 103.1H162.072C162.368 102.414 162.505 101.67 162.472 100.924C162.501 100.177 162.364 99.4323 162.072 98.7439H165.272C165.564 99.4323 165.701 100.177 165.672 100.924Z" fill="white"/>
<path d="M170 96.5679C170.033 97.3141 169.896 98.0581 169.6 98.7439H152.4V98.3439H152.748V94.7999H152.4V94.3999H169.6C169.89 95.0846 170.027 95.8247 170 96.5679Z" fill="#FDB813"/>
<path opacity="0.2" d="M160.8 96.5679C160.833 97.3141 160.696 98.0581 160.4 98.7439H152.4V98.3439H152.748V94.7999H152.4V94.3999H160.4C160.69 95.0846 160.827 95.8247 160.8 96.5679Z" fill="black"/>
<path opacity="0.8" d="M159.956 96.568C159.983 97.1743 159.872 97.7787 159.632 98.336H152.756V94.8H159.632C159.868 95.3585 159.979 95.9621 159.956 96.568Z" fill="white"/>
<path opacity="0.2" d="M167.2 96.5679C167.233 97.3142 167.096 98.0581 166.8 98.7439H163.6C163.896 98.0581 164.033 97.3142 164 96.5679C164.029 95.8207 163.892 95.0763 163.6 94.3879H166.8C167.092 95.0763 167.229 95.8207 167.2 96.5679Z" fill="black"/>
<path d="M138.752 51.24H126.724C126.055 51.24 125.512 51.7826 125.512 52.452V64.48C125.512 65.1494 126.055 65.692 126.724 65.692H138.752C139.421 65.692 139.964 65.1494 139.964 64.48V52.452C139.964 51.7826 139.421 51.24 138.752 51.24Z" fill="#FDB813"/>
<path d="M131.084 64.3999C131.084 64.3999 131.82 68.4719 137.2 70.3079C137.2 70.3079 134.144 67.3559 134.144 64.3999H131.084Z" fill="#FDB813"/>
<path d="M129.468 55.76H136.012" stroke="white" stroke-width="2" stroke-miterlimit="10"/>
<path d="M131.644 54.176C131.386 56.6905 131.987 59.2181 133.348 61.348" stroke="white" stroke-width="2" stroke-miterlimit="10"/>
<path d="M134.276 60.9039C134.276 60.9039 136.012 60.6119 135.58 59.0279C135.2 57.6239 131.308 56.8719 130.32 59.3199C129.56 61.1919 131.396 60.8839 132.464 60.2959C134.328 59.2639 134.712 56.9199 134.712 56.9199" stroke="white" stroke-width="2" stroke-miterlimit="10"/>
<path d="M102.476 64.3999C102.476 64.3999 103.212 68.4719 108.592 70.3079C108.592 70.3079 105.536 67.3559 105.536 64.3999H102.476Z" fill="#FDB813"/>
<path opacity="0.6" d="M102.476 64.3999C102.476 64.3999 103.212 68.4719 108.592 70.3079C108.592 70.3079 105.536 67.3559 105.536 64.3999H102.476Z" fill="white"/>
<path d="M110.156 51.24H98.128C97.4587 51.24 96.916 51.7826 96.916 52.452V64.48C96.916 65.1494 97.4587 65.692 98.128 65.692H110.156C110.825 65.692 111.368 65.1494 111.368 64.48V52.452C111.368 51.7826 110.825 51.24 110.156 51.24Z" fill="#FDB813"/>
<path opacity="0.6" d="M110.156 51.24H98.128C97.4587 51.24 96.916 51.7826 96.916 52.452V64.48C96.916 65.1494 97.4587 65.692 98.128 65.692H110.156C110.825 65.692 111.368 65.1494 111.368 64.48V52.452C111.368 51.7826 110.825 51.24 110.156 51.24Z" fill="white"/>
<path d="M105.6 60.904L105.112 59.532H103.22L102.732 60.904H101.652L103.676 55.22H104.656L106.68 60.904H105.6ZM104.164 56.86L103.6 58.524H104.78L104.164 56.86Z" fill="#FDB813"/>
<path d="M139.476 96.2321L134.54 100.8L135.224 101.356L140 96.8001C140.071 96.7257 140.11 96.6269 140.11 96.5241C140.11 96.4213 140.071 96.3225 140 96.2481C139.929 96.1828 139.837 96.1452 139.741 96.1423C139.645 96.1393 139.551 96.1712 139.476 96.2321Z" fill="#FDB813"/>
<path d="M132.528 99.9482L135.428 98.6282C135.428 98.6282 137.856 98.1762 138.856 98.4002C139.856 98.6242 142.076 101.636 142.024 102C141.972 102.364 138.18 103.268 138.096 103.268C138.012 103.268 136.372 102.336 136.372 102.336L133.688 103.268L132.528 99.9482Z" fill="#E4897B"/>
<path d="M107.412 163.176L110.596 162.74L111.04 155.164L107.856 155.604L107.412 163.176Z" fill="#EBB376"/>
<path opacity="0.2" d="M107.856 155.604L111.04 155.168L110.784 159.5L107.608 159.776L107.856 155.604Z" fill="black"/>
<path d="M107.54 118.648L106.74 113.78L88.876 112.712C88.876 112.712 86.976 122.844 88.436 125.544C91.044 130.364 105.084 127.944 109.192 128.408C106.736 138.452 106.976 158.08 106.976 158.08L112.844 158.528C112.844 158.528 117.36 137.376 118.272 127.328C118.908 120.544 113.292 120.716 107.54 118.648Z" fill="#FDB813"/>
<path d="M106.308 158.356L113.36 158.82L113.964 155.8L106.216 155.44L106.308 158.356Z" fill="#FDB813"/>
<path opacity="0.2" d="M106.308 158.356L113.36 158.82L113.964 155.8L106.216 155.44L106.308 158.356Z" fill="white"/>
<path d="M110.836 162.356L107.236 162.132C107.207 162.129 107.177 162.131 107.148 162.14C107.12 162.148 107.093 162.162 107.07 162.18C107.047 162.199 107.028 162.222 107.014 162.248C107 162.274 106.991 162.303 106.988 162.332L106.636 165.172C106.627 165.321 106.677 165.468 106.775 165.581C106.873 165.694 107.011 165.764 107.16 165.776C108.42 165.832 109.02 165.796 110.608 165.884C112.012 166.03 113.425 166.075 114.836 166.02C116.18 165.888 116.016 164.568 115.436 164.504C114.06 164.348 112.236 163.336 111.38 162.572C111.228 162.441 111.036 162.365 110.836 162.356Z" fill="#263238"/>
<path d="M114.76 163.148L117.968 163.384L119.98 156.068L116.776 155.836L114.76 163.148Z" fill="#EBB376"/>
<path d="M118.4 163.528C118.4 163.528 118.4 163.528 118.4 163.552H118.428C118.682 163.693 118.95 163.806 119.228 163.888C119.429 163.964 119.651 163.964 119.852 163.888C119.918 163.85 119.972 163.795 120.007 163.727C120.043 163.66 120.058 163.584 120.052 163.508C120.056 163.461 120.048 163.413 120.029 163.369C120.011 163.325 119.981 163.286 119.944 163.256C119.657 163.141 119.337 163.132 119.044 163.232C119.273 163.076 119.441 162.846 119.52 162.58C119.525 162.517 119.508 162.454 119.472 162.402C119.437 162.35 119.384 162.311 119.324 162.292C119.274 162.267 119.22 162.255 119.164 162.255C119.109 162.255 119.054 162.267 119.004 162.292C118.604 162.504 118.46 163.404 118.448 163.452C118.431 163.454 118.413 163.454 118.396 163.452C118.387 163.463 118.382 163.477 118.383 163.491C118.384 163.505 118.39 163.518 118.4 163.528ZM118.636 163.348L118.564 163.372C118.64 163.076 118.804 162.592 119.036 162.468C119.061 162.452 119.09 162.442 119.12 162.438C119.149 162.434 119.179 162.436 119.208 162.444H119.244C119.344 162.484 119.356 162.544 119.348 162.588C119.34 162.8 118.968 163.176 118.652 163.348H118.636ZM118.636 163.516C119.06 163.384 119.648 163.272 119.836 163.404C119.855 163.418 119.87 163.437 119.88 163.459C119.889 163.481 119.892 163.505 119.888 163.528C119.892 163.576 119.883 163.624 119.862 163.667C119.841 163.71 119.808 163.746 119.768 163.772C119.6 163.872 119.2 163.776 118.664 163.516H118.636Z" fill="#FDB813"/>
<path opacity="0.2" d="M116.776 155.836L119.976 156.072L118.828 160.252L115.66 159.864L116.776 155.836Z" fill="black"/>
<path d="M121.064 159.736L115.416 158.076C115.416 158.076 118.788 139.044 122.216 132.444C121.96 132.36 121.62 132.252 121.2 132.128C120.444 131.9 119.44 131.616 118.26 131.288C110.052 129.012 93.416 124.744 93.416 124.744L101.016 117.652C101.016 117.652 131.288 122.268 131.916 130.244C132.208 134.08 121.064 159.736 121.064 159.736Z" fill="#FDB813"/>
<path d="M114.688 158.204L121.488 160.124L122.708 157.296L115.204 155.332L114.688 158.204Z" fill="#FDB813"/>
<path opacity="0.2" d="M114.688 158.204L121.488 160.124L122.708 157.296L115.204 155.332L114.688 158.204Z" fill="white"/>
<path d="M118.284 163.06L114.8 162.088C114.742 162.07 114.68 162.076 114.626 162.104C114.572 162.131 114.531 162.179 114.512 162.236L113.6 164.944C113.58 165.016 113.575 165.091 113.584 165.165C113.593 165.239 113.617 165.311 113.655 165.376C113.692 165.44 113.741 165.497 113.801 165.543C113.86 165.588 113.928 165.621 114 165.64C115.2 165.96 115.816 166.04 117.348 166.464C118.692 166.899 120.065 167.238 121.456 167.48C122.796 167.632 122.912 166.304 122.356 166.12C121.044 165.68 119.476 164.316 118.796 163.384C118.667 163.221 118.486 163.107 118.284 163.06Z" fill="#263238"/>
<path d="M110.916 162.748H110.98C110.98 162.748 111.052 162.772 111.064 162.78C111.076 162.788 111.064 162.78 111.064 162.78H111.092C111.364 162.865 111.644 162.919 111.928 162.944C112.14 162.984 112.359 162.941 112.54 162.824C112.594 162.774 112.634 162.711 112.654 162.64C112.675 162.57 112.675 162.495 112.656 162.424C112.65 162.376 112.632 162.331 112.604 162.292C112.576 162.253 112.539 162.221 112.496 162.2C112.183 162.159 111.866 162.23 111.6 162.4C111.791 162.203 111.904 161.942 111.916 161.668C111.904 161.603 111.871 161.544 111.821 161.5C111.772 161.456 111.71 161.429 111.644 161.424C111.582 161.413 111.519 161.415 111.457 161.43C111.396 161.444 111.339 161.471 111.288 161.508C110.952 161.796 110.888 162.708 110.888 162.76L110.916 162.748ZM111.26 162.564L111.192 162.6C111.176 162.251 111.271 161.907 111.464 161.616C111.486 161.595 111.512 161.58 111.54 161.569C111.568 161.559 111.598 161.554 111.628 161.556H111.664C111.772 161.556 111.796 161.628 111.8 161.672C111.729 162.023 111.538 162.338 111.26 162.564ZM111.304 162.72C111.704 162.508 112.244 162.272 112.448 162.368C112.469 162.377 112.488 162.392 112.501 162.411C112.514 162.43 112.522 162.453 112.524 162.476C112.536 162.522 112.537 162.571 112.525 162.617C112.513 162.663 112.489 162.706 112.456 162.74C112.296 162.88 111.872 162.868 111.304 162.72Z" fill="#FDB813"/>
<path d="M120.596 81.248C120.52 81.416 120.436 81.584 120.348 81.74C119.835 82.6558 119.057 83.3948 118.116 83.86C117.879 83.9784 117.633 84.0787 117.38 84.16C116.409 84.4893 115.356 84.4903 114.384 84.1629C113.412 83.8355 112.574 83.1979 112 82.348C110.468 80.172 110.884 78.032 111.292 74.348C111.373 73.4875 111.673 72.662 112.163 71.9502C112.653 71.2383 113.317 70.6638 114.093 70.2812C114.868 69.8987 115.728 69.7209 116.591 69.7648C117.454 69.8087 118.292 70.0728 119.024 70.532C122.364 72.6 121.94 78.104 120.596 81.248Z" fill="#E4897B"/>
<path opacity="0.2" d="M118.116 83.8601C117.879 83.9785 117.633 84.0788 117.38 84.1601C116.715 84.3801 116.009 84.4494 115.314 84.3629C114.618 84.2764 113.951 84.0364 113.36 83.6601C113.597 83.25 113.886 82.8723 114.22 82.5361C115.619 82.5943 116.971 83.0539 118.116 83.8601Z" fill="black"/>
<path d="M108.476 84.836C109.108 87.2119 113.184 89.1159 113.184 89.1159C113.184 89.1159 115.932 89.988 115.912 88.94C114.684 87.824 114.432 86.752 114.688 85.74C114.869 85.1334 115.166 84.5681 115.564 84.076C115.778 83.7974 116.006 83.5303 116.248 83.276L113.848 76.856C112.98 79.524 111.032 84.164 108.476 84.836Z" fill="#E4897B"/>
<path d="M120.076 73.2001C120.076 73.2001 121.108 76.6761 117.544 79.1721C117.544 79.1721 116.048 82.3721 115.212 82.7721C114.376 83.1721 112.488 82.9321 111.852 82.7721C111.216 82.6121 107.924 79.8841 108.876 73.4681C109.828 67.0521 115.212 69.0681 115.212 69.0681C115.212 69.0681 117.052 67.4681 120.472 69.4681C123.328 71.1241 122.768 74.2201 120.076 73.2001Z" fill="#263238"/>
<path d="M117.06 77.508C117.073 77.8619 117.164 78.2086 117.326 78.5233C117.489 78.838 117.719 79.1128 118 79.328C118.688 79.768 119.352 78.808 119.428 77.696C119.492 76.708 119.22 75.256 118.396 75.296C117.572 75.336 116.968 76.484 117.06 77.508Z" fill="#E4897B"/>
<path d="M120.516 89.476C120.516 89.476 115.46 83.812 108.704 84.396C101.948 84.98 95.2 90.2 91.812 98.4C88.424 106.6 87.432 118.996 87.432 118.996C87.432 118.996 98.364 122.128 109.48 119.272C111.802 108.889 115.514 98.8665 120.516 89.476Z" fill="#263238"/>
<path d="M120.516 89.4761C122.224 91.2481 127.1 99.3721 128.488 99.6761C129.876 99.9801 131.896 98.7321 133.476 99.2081C135.056 99.6841 136.676 101.124 136.316 102.048C135.956 102.972 132.236 105.432 127.624 105.564C123.676 105.68 115.356 95.8481 115.356 95.8481C115.356 92.0481 120.516 89.4761 120.516 89.4761Z" fill="#263238"/>
<path d="M120.728 82.7361V82.3361C120.823 82.3331 120.916 82.311 121.002 82.2713C121.088 82.2316 121.165 82.175 121.229 82.1049C121.293 82.0347 121.342 81.9525 121.373 81.863C121.405 81.7736 121.418 81.6787 121.412 81.5841C121.412 80.9881 119.932 79.7001 119.012 79.0281L119.244 78.7041C119.508 78.8921 121.832 80.5921 121.828 81.5841C121.835 81.7327 121.811 81.8811 121.759 82.0204C121.706 82.1597 121.626 82.2869 121.524 82.3945C121.421 82.5021 121.297 82.5878 121.161 82.6465C121.024 82.7052 120.877 82.7357 120.728 82.7361Z" fill="#263238"/>
<path d="M120.496 77.3681C120.496 79.0241 119.528 80.3681 118.34 80.3681C117.152 80.3681 116.184 79.0241 116.184 77.3681C116.184 75.7121 117.148 74.3721 118.34 74.3721C119.532 74.3721 120.496 75.7121 120.496 77.3681Z" fill="#FDB813"/>
<path opacity="0.2" d="M120.496 77.3681C120.496 79.0241 119.528 80.3681 118.34 80.3681C117.152 80.3681 116.184 79.0241 116.184 77.3681C116.184 75.7121 117.148 74.3721 118.34 74.3721C119.532 74.3721 120.496 75.7121 120.496 77.3681Z" fill="black"/>
<path d="M119.096 79.3441C119.88 79.3441 120.516 78.4594 120.516 77.3681C120.516 76.2768 119.88 75.3921 119.096 75.3921C118.312 75.3921 117.676 76.2768 117.676 77.3681C117.676 78.4594 118.312 79.3441 119.096 79.3441Z" fill="#FDB813"/>
<path d="M119.772 75.9359C119.772 75.9359 119.884 67.288 113.372 68.78C113.372 68.78 118.24 69.368 118.572 76.1719L119.772 75.9359Z" fill="#FDB813"/>
<path d="M120.833 82.2171L120.502 82.2743C120.391 82.2935 120.317 82.3991 120.336 82.5101L120.367 82.6914C120.387 82.8024 120.492 82.8769 120.603 82.8577L120.934 82.8004C121.045 82.7812 121.12 82.6757 121.1 82.5646L121.069 82.3833C121.05 82.2723 120.944 82.1979 120.833 82.2171Z" fill="#263238"/>
<path d="M84.56 126.872H111.328C111.858 126.872 112.367 127.083 112.742 127.458C113.117 127.833 113.328 128.342 113.328 128.872V131.548H82.56V128.872C82.56 128.342 82.7707 127.833 83.1458 127.458C83.5209 127.083 84.0296 126.872 84.56 126.872Z" fill="#FDB813"/>
<path opacity="0.3" d="M84.56 126.872H111.328C111.858 126.872 112.367 127.083 112.742 127.458C113.117 127.833 113.328 128.342 113.328 128.872V131.548H82.56V128.872C82.56 128.342 82.7707 127.833 83.1458 127.458C83.5209 127.083 84.0296 126.872 84.56 126.872Z" fill="black"/>
<path d="M79.4 108.964H90.4C93.6209 108.964 96.232 106.353 96.232 103.132V98.8281C96.232 95.6072 93.6209 92.9961 90.4 92.9961H79.4C76.1791 92.9961 73.568 95.6072 73.568 98.8281V103.132C73.568 106.353 76.1791 108.964 79.4 108.964Z" fill="#FDB813"/>
<g opacity="0.3">
<path opacity="0.3" d="M79.4 108.964H90.4C93.6209 108.964 96.232 106.353 96.232 103.132V98.8281C96.232 95.6072 93.6209 92.9961 90.4 92.9961H79.4C76.1791 92.9961 73.568 95.6072 73.568 98.8281V103.132C73.568 106.353 76.1791 108.964 79.4 108.964Z" fill="black"/>
</g>
<path d="M83.732 158.168L95.26 157.036V140.84H99.828V157.032L111.396 158.168C111.951 158.222 112.466 158.48 112.841 158.893C113.216 159.305 113.424 159.843 113.424 160.4V162.132H81.708V160.4C81.7083 159.843 81.9156 159.306 82.2897 158.894C82.6638 158.481 83.1778 158.223 83.732 158.168Z" fill="#263238"/>
<path opacity="0.2" d="M83.732 158.168L95.26 157.036V140.84H99.828V157.032L111.396 158.168C111.951 158.222 112.466 158.48 112.841 158.893C113.216 159.305 113.424 159.843 113.424 160.4V162.132H81.708V160.4C81.7083 159.843 81.9156 159.306 82.2897 158.894C82.6638 158.481 83.1778 158.223 83.732 158.168Z" fill="white"/>
<path d="M112.691 167.225C114.32 166.961 115.426 165.426 115.162 163.797C114.897 162.168 113.362 161.062 111.734 161.326C110.105 161.591 108.998 163.125 109.263 164.754C109.527 166.383 111.062 167.489 112.691 167.225Z" fill="#263238"/>
<path d="M85.0433 166.394C86.2102 165.227 86.2102 163.335 85.0433 162.168C83.8764 161.001 81.9845 161.001 80.8176 162.168C79.6507 163.335 79.6507 165.227 80.8176 166.394C81.9845 167.56 83.8764 167.56 85.0433 166.394Z" fill="#263238"/>
<path d="M98.96 144.32H96.124C95.6858 144.32 95.2656 144.146 94.9558 143.836C94.646 143.526 94.472 143.106 94.472 142.668V129.892H100.612V142.664C100.613 142.881 100.57 143.097 100.487 143.297C100.405 143.498 100.283 143.681 100.13 143.835C99.9761 143.989 99.7938 144.111 99.5931 144.194C99.3924 144.277 99.1773 144.32 98.96 144.32Z" fill="#263238"/>
<path opacity="0.3" d="M98.96 144.32H96.124C95.6858 144.32 95.2656 144.146 94.9558 143.836C94.646 143.526 94.472 143.106 94.472 142.668V129.892H100.612V142.664C100.613 142.881 100.57 143.097 100.487 143.297C100.405 143.498 100.283 143.681 100.13 143.835C99.9761 143.989 99.7938 144.111 99.5931 144.194C99.3924 144.277 99.1773 144.32 98.96 144.32Z" fill="white"/>
<path d="M86.624 104.576C86.624 104.576 85.752 126.176 91.764 129.892H84.9C84.9 129.892 79.58 122.536 81.084 104.576H86.624Z" fill="#263238"/>
<path opacity="0.3" d="M86.624 104.576C86.624 104.576 85.752 126.176 91.764 129.892H84.9C84.9 129.892 79.58 122.536 81.084 104.576H86.624Z" fill="white"/>
<path d="M113.808 129.212H82.084C81.6399 129.212 81.28 129.572 81.28 130.016V130.744C81.28 131.188 81.6399 131.548 82.084 131.548H113.808C114.252 131.548 114.612 131.188 114.612 130.744V130.016C114.612 129.572 114.252 129.212 113.808 129.212Z" fill="#263238"/>
<path opacity="0.6" d="M113.808 129.212H82.084C81.6399 129.212 81.28 129.572 81.28 130.016V130.744C81.28 131.188 81.6399 131.548 82.084 131.548H113.808C114.252 131.548 114.612 131.188 114.612 130.744V130.016C114.612 129.572 114.252 129.212 113.808 129.212Z" fill="white"/>
<path d="M86.712 97.8481H80.5C78.6797 97.8481 77.204 99.3238 77.204 101.144V103.572C77.204 105.392 78.6797 106.868 80.5 106.868H86.712C88.5323 106.868 90.008 105.392 90.008 103.572V101.144C90.008 99.3238 88.5323 97.8481 86.712 97.8481Z" fill="#263238"/>
<path opacity="0.2" d="M86.712 97.8481H80.5C78.6797 97.8481 77.204 99.3238 77.204 101.144V103.572C77.204 105.392 78.6797 106.868 80.5 106.868H86.712C88.5323 106.868 90.008 105.392 90.008 103.572V101.144C90.008 99.3238 88.5323 97.8481 86.712 97.8481Z" fill="white"/>
</svg>
