<svg width="153" height="152" viewBox="0 0 153 152" fill="none" xmlns="http://www.w3.org/2000/svg">
<path d="M31.5688 137.369C56.3904 151.049 96.6248 151.049 121.449 137.369C146.274 123.689 146.268 101.539 121.449 87.8716C96.6309 74.2038 56.3935 74.1917 31.5688 87.8716C6.7442 101.552 6.75028 123.701 31.5688 137.369Z" fill="#F5F5F5"/>
<path d="M26.5041 127.728L28.3646 128.801C28.6499 128.947 28.9655 129.023 29.2857 129.023C29.6059 129.023 29.9216 128.947 30.2069 128.801L85.167 97.0698C85.6777 96.7658 85.6777 96.3007 85.167 96.0058L83.3065 94.9297C83.0208 94.7858 82.7053 94.7109 82.3854 94.7109C82.0655 94.7109 81.75 94.7858 81.4643 94.9297L26.5041 126.664C25.9934 126.956 25.9934 127.433 26.5041 127.728Z" fill="#E0E0E0"/>
<path d="M107.225 118.708C112.603 121.517 121.322 121.52 126.699 118.708C132.077 115.896 132.074 111.345 126.699 108.536C121.325 105.727 112.603 105.727 107.225 108.536C101.847 111.345 101.847 115.899 107.225 118.708Z" fill="#E0E0E0"/>
<path d="M100.622 113.039C102.239 113.884 104.863 113.884 106.48 113.039C108.098 112.194 108.098 110.826 106.48 109.981C104.863 109.135 102.239 109.135 100.622 109.981C99.0049 110.826 98.9957 112.194 100.622 113.039Z" fill="#E0E0E0"/>
<path d="M28.7724 113.432C28.8453 110.733 28.0944 106.206 25.4284 101.689C22.5829 96.8522 18.8255 93.6146 15.67 94.5996C12.7272 95.5116 13.3748 99.5061 17.798 103.853C20.9018 106.893 24.0421 110.772 25.477 115.193L27.9637 120.89L28.7724 113.432Z" fill="#2F80ED"/>
<path d="M28.7724 113.432C28.8453 110.733 28.0944 106.206 25.4284 101.689C22.5829 96.8522 18.8255 93.6146 15.67 94.5996C12.7272 95.5116 13.3748 99.5061 17.798 103.853C20.9018 106.893 24.0421 110.772 25.477 115.193L27.9637 120.89L28.7724 113.432Z" fill="#37474F"/>
<path d="M28.2889 115.445C28.25 115.44 28.2135 115.423 28.1842 115.397C28.1549 115.371 28.1342 115.337 28.1247 115.299C26.2308 107.589 21.4367 99.4908 16.9588 96.4296C16.9171 96.4012 16.8882 96.3575 16.8786 96.3079C16.8689 96.2584 16.8791 96.2071 16.9071 96.1651C16.936 96.1231 16.9803 96.0943 17.0303 96.0846C17.0803 96.0749 17.1321 96.0853 17.1746 96.1134C21.7164 99.2081 26.5834 107.416 28.4956 115.217C28.5075 115.266 28.4995 115.318 28.4733 115.361C28.4471 115.404 28.4048 115.436 28.3557 115.448C28.3334 115.45 28.3109 115.449 28.2889 115.445V115.445Z" fill="white"/>
<path d="M28.8086 122.175C27.3177 123.496 25.5064 124.403 23.5555 124.805C20.1932 125.544 18.5972 124.008 18.5972 124.008C18.5972 124.008 19.7433 120.743 21.619 119.737C21.619 119.737 18.3905 120.597 15.8704 122.504C15.8704 122.504 13.7971 122.659 12.7848 119.546C12.7848 119.546 13.8974 117.567 17.9528 116.293C17.9528 116.293 15.4083 115.809 11.8484 116.946C11.584 117.071 10.1856 113.049 9.72045 111.17C9.25533 109.292 10.0244 109.277 11.4654 108.796C12.9064 108.316 17.9102 107.769 18.88 108.523C19.8497 109.277 20.482 112.019 20.482 112.019C20.482 112.019 21.2724 110.398 20.9776 109.015C21.9866 108.66 23.0799 108.621 24.1118 108.903C25.799 109.38 25.7443 110.192 25.8142 111.395C25.8931 112.606 25.7989 113.822 25.5345 115.007C25.5345 115.007 26.6168 113.952 26.4465 110.307C26.4465 110.307 28.7934 112.085 29.7905 113.675C30.7876 115.265 30.818 119.591 28.8086 122.175Z" fill="#455A64"/>
<path d="M28.8208 122.363C28.7846 122.367 28.7484 122.359 28.7165 122.342C28.6846 122.324 28.6585 122.298 28.6414 122.266C25.5619 116.736 14.9797 110.729 11.2861 110.237C11.2611 110.234 11.237 110.225 11.2153 110.213C11.1935 110.2 11.1744 110.183 11.1592 110.163C11.1439 110.143 11.1328 110.12 11.1264 110.096C11.12 110.071 11.1185 110.046 11.1219 110.021C11.1294 109.971 11.1562 109.926 11.1965 109.895C11.2368 109.865 11.2875 109.851 11.3377 109.857C15.0921 110.352 25.8477 116.463 28.9758 122.081C28.9881 122.103 28.9958 122.127 28.9986 122.152C29.0014 122.177 28.9992 122.202 28.9921 122.226C28.9851 122.25 28.9732 122.272 28.9574 122.292C28.9415 122.311 28.922 122.327 28.8998 122.339C28.8762 122.354 28.8489 122.363 28.8208 122.363V122.363Z" fill="white"/>
<path d="M122.404 105.127C122.404 105.127 122.827 101.421 124.669 98.5481C126.511 95.6753 129.044 93.8786 131.406 93.6841C133.768 93.4895 135.662 95.6692 133.148 97.1618C130.634 98.6545 126.128 100.178 124.064 105.759L122.404 105.127Z" fill="#2F80ED"/>
<path opacity="0.1" d="M122.404 105.127C122.404 105.127 122.827 101.421 124.669 98.5481C126.511 95.6753 129.044 93.8786 131.406 93.6841C133.768 93.4895 135.662 95.6692 133.148 97.1618C130.634 98.6545 126.128 100.178 124.064 105.759L122.404 105.127Z" fill="#2F80ED"/>
<path d="M123.1 104.163H123.076C123.045 104.15 123.021 104.126 123.008 104.095C122.995 104.064 122.994 104.03 123.006 103.999C125.499 97.8609 130.244 95.2951 132.406 94.7996C132.422 94.7956 132.439 94.7948 132.455 94.7974C132.472 94.8 132.488 94.8058 132.502 94.8146C132.516 94.8234 132.528 94.8349 132.538 94.8486C132.548 94.8622 132.554 94.8776 132.558 94.8939C132.565 94.9269 132.559 94.9615 132.541 94.99C132.523 95.0185 132.494 95.0386 132.461 95.0459C130.333 95.5323 125.694 98.0494 123.24 104.093C123.228 104.119 123.208 104.14 123.183 104.153C123.157 104.165 123.128 104.169 123.1 104.163V104.163Z" fill="white"/>
<path d="M135.72 104.236C135.504 104.719 134.978 104.968 134.488 105.166C133.999 105.363 133.467 105.576 133.202 106.032C132.67 106.944 133.546 108.248 132.971 109.142C132.838 109.322 132.67 109.472 132.476 109.585C132.283 109.697 132.069 109.769 131.847 109.796C131.48 109.849 131.11 109.882 130.74 109.896C130.564 109.893 130.388 109.879 130.214 109.853C129.703 109.74 129.169 109.797 128.694 110.018C127.962 110.428 127.737 111.352 127.293 112.064C127.018 112.484 126.655 112.84 126.23 113.108C125.804 113.375 125.326 113.546 124.827 113.611C124.499 113.653 123.885 113.714 123.55 113.526L123.481 113.483C123.435 113.434 123.393 113.382 123.353 113.328C123.351 113.321 123.351 113.314 123.353 113.307C123.222 112.83 123.435 112.334 123.444 111.839C123.446 111.809 123.446 111.78 123.444 111.75C123.426 111.176 123.408 110.607 123.395 110.036C123.368 108.984 123.356 107.929 123.365 106.874C123.365 106.19 123.289 105.442 123.578 104.798C123.9 104.09 124.697 104.074 124.998 103.378C125.116 103.102 125.183 102.804 125.302 102.524C125.481 102.112 125.771 101.759 126.139 101.502C126.507 101.245 126.939 101.094 127.387 101.068C128.779 100.995 130.029 102.123 131.418 102.019C131.776 101.971 132.131 101.903 132.482 101.816C133.61 101.606 134.914 101.928 135.546 102.88C135.683 103.075 135.77 103.3 135.8 103.536C135.831 103.772 135.803 104.012 135.72 104.236V104.236Z" fill="#2F80ED"/>
<path d="M123.216 111.109C123.186 111.1 123.16 111.08 123.145 111.053C123.129 111.026 123.125 110.993 123.134 110.963C125.055 103.749 132.655 102.706 134.433 102.834C134.464 102.838 134.493 102.853 134.513 102.877C134.533 102.9 134.544 102.931 134.543 102.962C134.542 102.977 134.538 102.992 134.53 103.006C134.523 103.02 134.514 103.033 134.502 103.043C134.49 103.053 134.476 103.061 134.461 103.066C134.446 103.07 134.431 103.072 134.415 103.071C132.676 102.946 125.244 103.968 123.362 111.024C123.358 111.039 123.352 111.054 123.342 111.067C123.333 111.079 123.321 111.09 123.307 111.098C123.294 111.106 123.278 111.111 123.263 111.113C123.247 111.115 123.231 111.113 123.216 111.109V111.109Z" fill="white"/>
<path d="M131.661 107.455C131.637 107.451 131.614 107.439 131.597 107.421C130.896 106.814 130.069 106.369 129.176 106.117C128.283 105.865 127.345 105.813 126.429 105.965C126.398 105.97 126.367 105.961 126.342 105.943C126.317 105.924 126.3 105.896 126.296 105.865C126.291 105.834 126.299 105.802 126.318 105.777C126.337 105.752 126.365 105.736 126.396 105.731C127.348 105.573 128.324 105.627 129.253 105.89C130.182 106.153 131.042 106.618 131.771 107.251C131.782 107.262 131.791 107.275 131.797 107.289C131.803 107.304 131.806 107.319 131.806 107.335C131.806 107.35 131.803 107.366 131.797 107.38C131.791 107.395 131.782 107.408 131.771 107.418C131.757 107.434 131.74 107.445 131.721 107.452C131.702 107.458 131.681 107.459 131.661 107.455V107.455Z" fill="white"/>
<path d="M29.6199 127.792L28.4678 127.126C28.2758 127.002 28.116 126.834 28.0014 126.636C27.8867 126.437 27.8205 126.215 27.8081 125.986V40.5291C27.8205 40.3005 27.8867 40.0781 28.0014 39.88C28.116 39.6819 28.2758 39.5137 28.4678 39.3891L81.4824 8.7793C81.6863 8.67593 81.9118 8.62207 82.1405 8.62207C82.3692 8.62207 82.5947 8.67593 82.7987 8.7793L83.9539 9.44506C84.1449 9.57039 84.3039 9.73885 84.418 9.93686C84.532 10.1349 84.598 10.3569 84.6105 10.5851V96.0425C84.598 96.2707 84.532 96.4927 84.418 96.6907C84.3039 96.8887 84.1449 97.0572 83.9539 97.1825L30.9363 127.792C30.7323 127.896 30.5068 127.949 30.2781 127.949C30.0494 127.949 29.8239 127.896 29.6199 127.792V127.792Z" fill="#2F80ED"/>
<path opacity="0.4" d="M84.6043 10.4787C84.5587 10.1382 84.2821 10.0135 83.9537 10.2051L30.9362 40.8148C30.7418 40.9355 30.5817 41.104 30.471 41.3043L27.9995 39.8785C28.1119 39.6785 28.2729 39.5102 28.4677 39.3891L81.4822 8.7793C81.6862 8.67593 81.9117 8.62207 82.1404 8.62207C82.3691 8.62207 82.5945 8.67593 82.7985 8.7793L83.9537 9.44506C84.1297 9.56086 84.2789 9.71304 84.3911 9.89133C84.5033 10.0696 84.576 10.2699 84.6043 10.4787V10.4787Z" fill="white"/>
<path opacity="0.15" d="M30.8206 127.847C30.8086 127.855 30.7952 127.86 30.7811 127.863L30.7142 127.887H30.6869L30.5653 127.917H30.5501C30.2877 127.967 30.0167 127.945 29.7658 127.853C29.7155 127.835 29.6667 127.813 29.6198 127.787L28.4677 127.13C28.2768 127.004 28.1179 126.836 28.0039 126.638C27.8899 126.44 27.8238 126.218 27.811 125.99V40.5295C27.8189 40.2999 27.8848 40.0761 28.0026 39.8789L30.4741 41.3047C30.3587 41.5013 30.2959 41.7243 30.2917 41.9522V127.416C30.285 127.539 30.3203 127.661 30.392 127.762C30.4339 127.813 30.4894 127.85 30.5519 127.87C30.6144 127.89 30.6812 127.892 30.7446 127.875L30.8206 127.847Z" fill="#2F80ED"/>
<path d="M68.0517 24.5144L67.9544 24.4566L66.86 23.8274C66.4624 23.6067 66.031 23.4537 65.5832 23.3744C65.3948 23.3318 65.2245 23.2832 65.0756 23.2346C64.9103 23.1794 64.7488 23.1134 64.5922 23.037L64.6743 22.9366L63.4279 22.2192C63.3261 22.1606 63.2166 22.1166 63.1026 22.0885C62.6375 21.976 61.9413 22.2466 61.2452 22.1675C60.9929 22.1415 60.7494 22.0609 60.5315 21.9312C60.3137 21.8015 60.1267 21.6259 59.9836 21.4166C59.561 20.8482 59.3056 19.851 58.9317 19.0272L59.2661 18.5438L59.1628 18.4861L58.0288 17.8294C57.8372 17.7168 57.6188 17.658 57.3965 17.6592C56.9734 17.6822 56.5637 17.8152 56.2079 18.0453C53.4932 19.6139 53.402 23.3379 52.4231 25.7851C51.4442 28.2323 50.061 29.0014 49.3071 30.0411C48.5532 31.0808 48.5015 31.8651 46.8325 34.1755C45.1636 36.4859 45.0967 37.0392 45.0967 37.4739V40.903L46.3309 41.6144L68.5503 28.7826L68.0517 24.5144ZM47.6837 37.7293C47.3949 37.8934 47.1578 37.6715 47.1578 37.2246C47.1546 37.0113 47.2003 36.8001 47.2915 36.6072C47.3826 36.4143 47.5168 36.2449 47.6837 36.112C47.9725 35.9448 48.2066 36.1728 48.2066 36.6197C48.2097 36.8328 48.1636 37.0439 48.0718 37.2363C47.9801 37.4288 47.8452 37.5975 47.6776 37.7293H47.6837ZM57.4391 28.1077C56.7095 28.5302 56.0711 28.2901 55.7276 27.5848C54.8672 27.752 54.2258 26.919 54.2258 25.4902C54.2258 23.8061 55.1135 21.9304 56.2079 21.2981C56.3479 21.1957 56.5098 21.1273 56.6808 21.0985C56.8518 21.0696 57.0272 21.081 57.193 21.1318C57.3589 21.1825 57.5106 21.2712 57.6362 21.3909C57.7617 21.5105 57.8577 21.6578 57.9164 21.821C58.7797 21.6507 59.4181 22.4806 59.4181 23.9155C59.4181 25.5997 58.5335 27.4754 57.4391 28.1077ZM64.8172 27.831C64.5284 27.9982 64.2943 27.7733 64.2943 27.3294C64.2902 27.1167 64.3353 26.906 64.426 26.7135C64.5167 26.5211 64.6505 26.3521 64.8172 26.2198C65.1212 26.0526 65.3431 26.2776 65.3431 26.7245C65.347 26.937 65.3015 27.1476 65.2103 27.3396C65.119 27.5316 64.9845 27.6998 64.8172 27.831V27.831Z" fill="#455A64"/>
<path opacity="0.5" d="M47.5649 38.34L45.1876 36.9629C45.1327 37.1348 45.106 37.3145 45.1086 37.4949V40.924L46.3428 41.6354L47.577 40.921L47.5649 38.34Z" fill="#37474F"/>
<path opacity="0.5" d="M50.0337 34.0633L51.2679 31.2117L49.3071 30.0596C48.7295 30.8561 48.5623 31.4975 47.7871 32.7652L50.0337 34.0633Z" fill="#37474F"/>
<path opacity="0.5" d="M54.9737 28.36L55.1348 27.5301C54.5876 27.2991 54.2228 26.5634 54.2228 25.4903C54.2228 24.0584 54.8643 22.4928 55.7428 21.666L54.0191 20.6719C53.2895 22.3348 53.019 24.2956 52.4231 25.7852C52.3053 26.0806 52.1724 26.3698 52.0249 26.6516L54.9737 28.36Z" fill="#37474F"/>
<path d="M68.0515 24.5144L67.9542 24.4566C67.5909 24.2864 67.208 24.1619 66.8142 24.0857C66.1672 23.9678 65.5654 23.6732 65.0753 23.2345C64.952 23.1201 64.8176 23.0183 64.674 22.9305C64.57 22.8699 64.4572 22.8258 64.3396 22.7998C63.5918 22.6204 62.2299 23.4352 61.251 22.1675L61.2206 22.128C60.5366 21.216 60.2873 19.1518 59.2628 18.5468L59.1595 18.4891C58.7369 18.2915 58.1867 18.328 57.4358 18.7596C54.7211 20.3283 54.6299 24.0523 53.651 26.4995C52.6721 28.9467 51.2889 29.7158 50.535 30.7555C49.7811 31.7952 49.7324 32.5795 48.0604 34.8899C46.3884 37.2003 46.3276 37.7536 46.3276 38.1883V41.6478L68.547 28.816V25.3777C68.5632 25.2003 68.5243 25.0223 68.4356 24.8678C68.3469 24.7133 68.2128 24.5899 68.0515 24.5144V24.5144ZM48.8995 38.4406C48.5955 38.6078 48.3766 38.3828 48.3766 37.936C48.3728 37.7228 48.4179 37.5117 48.5086 37.3188C48.5992 37.1259 48.733 36.9564 48.8995 36.8233C49.2035 36.6561 49.4224 36.8841 49.4224 37.331C49.428 37.543 49.3845 37.7535 49.2954 37.9459C49.2063 38.1384 49.0739 38.3077 48.9086 38.4406H48.8995ZM57.4297 28.1046C56.7001 28.5272 56.0617 28.287 55.7182 27.5817C55.5251 27.1469 55.4326 26.6741 55.4476 26.1985C55.4476 24.5144 56.3353 22.6387 57.4297 22.0064C57.5777 21.9183 57.7388 21.8547 57.907 21.8179C58.7704 21.6476 59.4088 22.4776 59.4088 23.9124C59.4179 25.5996 58.5332 27.4753 57.4388 28.1076L57.4297 28.1046ZM66.042 28.5393C65.738 28.7065 65.5161 28.4816 65.5161 28.0377C65.5117 27.8246 65.557 27.6135 65.6482 27.4209C65.7395 27.2283 65.8743 27.0596 66.042 26.9281C66.346 26.7609 66.5649 26.9859 66.5649 27.4328C66.5703 27.6447 66.5267 27.8551 66.4376 28.0476C66.3485 28.24 66.2163 28.4093 66.0512 28.5424L66.042 28.5393Z" fill="#37474F"/>
<path d="M59.4181 23.9151C59.4181 25.5992 58.5335 27.4749 57.4391 28.1072C56.7095 28.5298 56.0711 28.2896 55.7275 27.5843C55.8971 27.549 56.0595 27.4852 56.2079 27.3959C57.3023 26.7635 58.1869 24.8879 58.1869 23.2037C58.2019 22.7282 58.1095 22.2553 57.9163 21.8205C58.7797 21.6503 59.4181 22.4954 59.4181 23.9151Z" fill="#263238"/>
<path d="M48.9089 38.4377C48.6049 38.6049 48.383 38.3799 48.383 37.9361C48.3793 37.7227 48.4249 37.5113 48.5161 37.3183C48.6073 37.1254 48.7417 36.956 48.9089 36.8234C49.1977 36.6562 49.4318 36.8842 49.4318 37.3311C49.4356 37.5433 49.3904 37.7536 49.2997 37.9455C49.2091 38.1374 49.0753 38.3058 48.9089 38.4377Z" fill="#263238"/>
<path d="M66.048 28.5421C65.744 28.7093 65.5252 28.4844 65.5252 28.0405C65.5211 27.8274 65.5662 27.6162 65.6568 27.4232C65.7475 27.2303 65.8814 27.0608 66.048 26.9279C66.352 26.7607 66.574 26.9887 66.574 27.4356C66.5779 27.6481 66.5324 27.8587 66.4412 28.0507C66.3499 28.2427 66.2153 28.4109 66.048 28.5421" fill="#263238"/>
<path d="M34.3747 48.8072L80.5097 22.1707C80.6324 22.1092 80.7677 22.0771 80.9049 22.0771C81.0421 22.0771 81.1775 22.1092 81.3001 22.1707L81.747 22.4291C81.8619 22.5042 81.9575 22.6052 82.0261 22.724C82.0948 22.8428 82.1345 22.9761 82.1422 23.1131V93.4952C82.1345 93.6322 82.0948 93.7655 82.0261 93.8843C81.9575 94.0031 81.8619 94.1041 81.747 94.1792L35.612 120.816C35.4893 120.877 35.354 120.909 35.2168 120.909C35.0796 120.909 34.9442 120.877 34.8216 120.816L34.3747 120.557C34.2598 120.482 34.1642 120.381 34.0956 120.262C34.0269 120.144 33.9872 120.01 33.9795 119.873V49.4912C33.9876 49.3543 34.0276 49.2212 34.0962 49.1024C34.1648 48.9837 34.2602 48.8826 34.3747 48.8072V48.8072Z" fill="#F5F5F5"/>
<path d="M82.1266 22.9947C82.078 22.8335 81.926 22.7819 81.7466 22.8852L35.6116 49.5217C35.4931 49.5966 35.3966 49.7014 35.3319 49.8257L34.0977 49.1143C34.1615 48.9895 34.2582 48.8844 34.3773 48.8103L80.5124 22.1739C80.6341 22.111 80.7691 22.0781 80.9061 22.0781C81.0431 22.0781 81.1781 22.111 81.2998 22.1739L81.7466 22.4292C81.8445 22.4933 81.9286 22.5763 81.9939 22.6735C82.0592 22.7706 82.1043 22.8798 82.1266 22.9947Z" fill="#FAFAFA"/>
<path d="M35.5176 120.858C35.4705 120.876 35.4216 120.889 35.3717 120.897H35.2957C35.2159 120.906 35.1353 120.906 35.0555 120.897C35.0057 120.889 34.9568 120.876 34.9096 120.858L34.8215 120.815L34.3776 120.56C34.2626 120.485 34.1668 120.384 34.0982 120.265C34.0295 120.146 33.9898 120.013 33.9824 119.876V49.4936C33.9858 49.356 34.0257 49.2217 34.0979 49.1045L35.3322 49.8159C35.2621 49.934 35.2224 50.0677 35.2167 50.205V120.587C35.2167 120.803 35.3443 120.909 35.5176 120.858Z" fill="#E0E0E0"/>
<path d="M71.7483 32.142L70.5323 31.4307C70.3388 31.3369 70.1256 31.2912 69.9107 31.2976C69.6958 31.3039 69.4856 31.3621 69.298 31.4671C67.8631 32.0995 67.243 32.3791 66.5012 32.6831L65.9662 32.899C65.6774 33.0145 65.0967 32.9172 65.2761 31.9049L67.1822 26.7703H67.1548L65.9388 26.0711C65.8772 26.0347 65.809 26.011 65.7382 26.0012C65.6937 25.9978 65.6489 25.9978 65.6044 26.0012C64.8231 25.983 64.6012 20.9487 64.5951 20.7937L64.5404 20.7633L63.3427 20.0641C63.1352 19.9466 62.9001 19.8867 62.6617 19.8908C62.266 19.9012 61.8784 20.0053 61.5308 20.1948C59.6551 21.1798 57.7612 24.0982 57.2991 26.7187C56.9951 28.3724 55.3444 30.9169 54.3838 31.8532C53.4231 32.7895 53.3563 33.5739 53.3563 33.5739L52.6084 37.8116L52.3683 39.1675C52.1919 40.1798 51.1523 41.1587 51.1523 41.1587L47.2854 44.0801C44.8534 46.0926 44.1785 48.1233 43.7134 50.6374V50.6556C43.7134 50.7438 43.7134 50.8046 43.7559 50.8289C43.7624 50.8326 43.7698 50.8346 43.7772 50.8346C43.7847 50.8346 43.792 50.8326 43.7985 50.8289V50.8289L44.294 50.5462L70.9183 35.1911C71.045 35.1043 71.1324 34.9711 71.1615 34.8203C71.1615 34.8203 71.1615 34.8203 71.1615 34.8203C71.3135 33.9083 71.7695 32.1846 71.7695 32.1846L71.7483 32.142ZM64.051 24.3627C63.7652 25.9739 62.6039 27.7705 61.4487 28.3755C60.6523 28.7919 60.0716 28.5335 59.8771 27.8009C59.7339 27.8572 59.5789 27.8765 59.4264 27.8568C59.2738 27.8371 59.1287 27.7792 59.0046 27.6884C58.6337 27.3844 62.0263 21.575 62.303 21.7027C62.4365 21.7716 62.5525 21.8702 62.6421 21.9908C62.7317 22.1115 62.7925 22.251 62.8198 22.3988C63.7652 22.11 64.3063 22.9156 64.051 24.3627Z" fill="#455A64"/>
<path opacity="0.5" d="M47.5651 46.8981L45.6255 45.7764C44.4977 47.2568 44.0478 48.8164 43.7134 50.6252V50.6434C43.7134 50.7316 43.7134 50.7924 43.7559 50.8167C43.7624 50.8204 43.7698 50.8224 43.7772 50.8224C43.7847 50.8224 43.792 50.8204 43.7985 50.8167V50.8167L45.3185 49.6007L47.5651 46.8981Z" fill="#37474F"/>
<path opacity="0.5" d="M52.2407 39.6144L54.9767 41.1921L56.211 34.0633L53.7455 32.6406C53.5494 32.9227 53.4176 33.2444 53.3594 33.583L52.6116 37.8208L52.3714 39.1766C52.341 39.3261 52.2973 39.4726 52.2407 39.6144V39.6144Z" fill="#37474F"/>
<path opacity="0.5" d="M58.5943 23.3223C57.9691 24.3738 57.5309 25.5258 57.2992 26.7271C57.1048 27.5829 56.7786 28.4033 56.3325 29.1591L58.6794 30.5149L59.8437 27.8215C59.7047 27.8711 59.5557 27.8862 59.4096 27.8656C59.2634 27.8449 59.1245 27.7891 59.0047 27.7029C58.8132 27.5509 59.6127 25.9397 60.4821 24.4258L58.5943 23.3223Z" fill="#37474F"/>
<path d="M71.7665 32.1511H71.7483C71.5568 32.0613 71.3468 32.0181 71.1355 32.0249C70.9242 32.0318 70.7175 32.0886 70.5323 32.1906C68.7721 32.9658 68.2401 33.2211 67.1883 33.6346C66.9086 33.7471 66.3462 33.6559 66.4921 32.7043C66.4906 32.6831 66.4906 32.6618 66.4921 32.6405L66.7323 31.2847L67.398 27.5911C67.398 27.5911 67.55 27.0104 67.1639 26.7915H67.1366C67.0414 26.7473 66.9376 26.7244 66.8326 26.7247C66.6081 26.698 66.3926 26.621 66.202 26.4994C66.0115 26.3778 65.8509 26.2147 65.7321 26.0224C65.5239 25.7136 65.3801 25.366 65.309 25.0005C65.238 24.6349 65.2413 24.2587 65.3187 23.8944C65.5983 22.3106 65.2913 21.201 64.5891 20.7875L64.5343 20.7541C64.0814 20.5139 63.4734 20.5535 62.762 20.9274C60.8863 21.9123 58.9924 24.8307 58.5303 27.4512C58.2263 29.105 56.5756 31.6495 55.615 32.5858C54.6543 33.5221 54.5875 34.3064 54.5875 34.3064L53.8396 38.5442L53.5995 39.9C53.4231 40.9123 52.3835 41.8912 52.3835 41.8912L48.5318 44.7823C46.9878 46.0112 45.8734 47.6983 45.3489 49.6007C45.3489 49.6007 43.8988 50.7255 43.8076 50.8167L44.3031 50.5339L71.0035 35.185C71.0035 35.185 71.3074 35.0178 71.3774 34.9752C71.4473 34.9327 72.5204 33.9173 72.5204 33.9173C72.4687 33.0418 72.2134 32.4186 71.7665 32.1511ZM64.051 24.3626C63.7652 25.9738 62.6039 27.7704 61.4487 28.3754C60.6523 28.7919 60.0716 28.5335 59.8771 27.8008C59.7905 27.3888 59.7905 26.9634 59.8771 26.5514C60.1628 24.9402 61.3271 23.1435 62.4823 22.5416C62.5893 22.4842 62.7012 22.4363 62.8167 22.3987C63.7652 22.1099 64.3063 22.9155 64.051 24.3626Z" fill="#37474F"/>
<path d="M64.0509 24.3619C63.7651 25.9731 62.6038 27.7698 61.4486 28.3747C60.6522 28.7912 60.0715 28.5328 59.877 27.8002C59.9932 27.7632 60.1061 27.7164 60.2144 27.6603C61.3696 27.0523 62.5339 25.2587 62.8166 23.6475C62.9044 23.2357 62.9044 22.8099 62.8166 22.3981C63.7651 22.1093 64.3062 22.9149 64.0509 24.3619Z" fill="#263238"/>
<path d="M62.9352 22.4652C63.0438 22.4584 63.1524 22.4797 63.2504 22.5271C63.3484 22.5745 63.4325 22.6464 63.4946 22.7358C63.9718 23.4167 63.5128 25.1495 63.3152 25.7028C63.0386 26.475 61.248 28.2838 60.7555 28.2838C60.5927 28.257 60.4371 28.1974 60.2981 28.1085C60.159 28.0197 60.0396 27.9035 59.9469 27.767C59.8657 27.3657 59.8657 26.9523 59.9469 26.551C60.2296 24.9611 61.3818 23.1857 62.5126 22.599C62.6096 22.5442 62.7113 22.4984 62.8166 22.4622H62.923L62.9352 22.4652ZM62.923 22.3862H62.8014C62.6859 22.4238 62.574 22.4716 62.467 22.5291C61.3118 23.1371 60.1475 24.9276 59.8618 26.5388C59.7752 26.9508 59.7752 27.3763 59.8618 27.7883C59.961 27.937 60.0901 28.0635 60.2408 28.1598C60.3915 28.2561 60.5606 28.3201 60.7373 28.3476V28.3476C61.2723 28.3476 63.072 26.5236 63.3608 25.718C63.6496 24.9124 64.2728 22.374 62.9109 22.374L62.923 22.3862Z" fill="#263238"/>
<path d="M43.7987 50.8195L70.9945 35.1848L71.3715 34.975C71.4384 34.9355 72.5145 33.9141 72.5145 33.9141L45.3369 49.6005C45.3369 49.6005 43.6892 50.8742 43.7987 50.8195Z" fill="#263238"/>
<path d="M38.9741 57.9299L46.3309 53.6191V62.1767L38.9741 66.4844V57.9299Z" fill="#FAFAFA"/>
<path d="M39.2779 58.1035V65.968L46.0267 62.016V54.1516L39.2779 58.1035ZM38.9739 66.7888C38.9208 66.7884 38.8686 66.7748 38.8219 66.7493C38.7755 66.7225 38.7371 66.684 38.7104 66.6375C38.6837 66.5911 38.6697 66.5384 38.6699 66.4848V57.9303C38.6694 57.877 38.6829 57.8245 38.709 57.7781C38.7352 57.7317 38.7731 57.693 38.8189 57.6658L46.1757 53.3581C46.2219 53.3314 46.2743 53.3174 46.3277 53.3174C46.3811 53.3174 46.4335 53.3314 46.4797 53.3581C46.5256 53.3846 46.5639 53.4227 46.5905 53.4686C46.6172 53.5145 46.6314 53.5665 46.6317 53.6196V62.1771C46.6314 62.2302 46.6172 62.2822 46.5905 62.3281C46.5639 62.374 46.5256 62.4121 46.4797 62.4386L39.1229 66.7463C39.0778 66.7731 39.0264 66.7877 38.9739 66.7888V66.7888Z" fill="#455A64"/>
<path d="M50.0337 51.7828V52.3908C50.0337 52.7282 50.2708 52.865 50.5596 52.6948L76.6732 37.6225C76.8266 37.5224 76.9543 37.3878 77.0462 37.2294C77.1381 37.071 77.1915 36.8933 77.2022 36.7105V36.0873C77.2022 35.7529 76.965 35.6161 76.6732 35.7833L50.5596 50.8617C50.4053 50.9626 50.2771 51.0987 50.1857 51.2589C50.0942 51.419 50.0421 51.5986 50.0337 51.7828V51.7828Z" fill="#E0E0E0"/>
<path d="M50.0337 55.5196V56.1276C50.0337 56.462 50.2708 56.5988 50.5596 56.4316L76.6732 41.3562C76.8269 41.2565 76.9549 41.122 77.0468 40.9635C77.1387 40.8051 77.192 40.6271 77.2022 40.4442V39.8362C77.2022 39.4988 76.965 39.362 76.6732 39.5322L50.5596 54.6076C50.4065 54.7076 50.2791 54.8423 50.1877 55.0008C50.0963 55.1592 50.0436 55.337 50.0337 55.5196V55.5196Z" fill="#E0E0E0"/>
<path d="M50.0337 59.2345V59.8425C50.0337 60.1769 50.2708 60.3137 50.5596 60.1465L76.6732 45.0711C76.8271 44.9716 76.9552 44.8371 77.0471 44.6786C77.1391 44.5201 77.1922 44.3421 77.2022 44.1591V43.5511C77.2022 43.2167 76.965 43.0799 76.6732 43.2471L50.5596 58.3225C50.407 58.4231 50.2799 58.5579 50.1886 58.7162C50.0973 58.8746 50.0443 59.052 50.0337 59.2345V59.2345Z" fill="#E0E0E0"/>
<path d="M42.774 62.3018L41.0625 60.6572L41.8012 59.0946L42.774 60.034L46.8263 51.4551L47.5651 52.1634L42.774 62.3018Z" fill="#2F80ED"/>
<path d="M38.9741 73.6133L46.3309 69.3057V77.8602L38.9741 82.1679V73.6133Z" fill="#FAFAFA"/>
<path d="M39.2779 73.7869V81.6392L46.0267 77.6872V69.8349L39.2779 73.7869ZM38.9739 82.4721C38.9207 82.4725 38.8683 82.4589 38.8219 82.4326C38.7755 82.4058 38.737 82.3673 38.7104 82.3208C38.6837 82.2744 38.6697 82.2217 38.6699 82.1681V73.6136C38.6699 73.5608 38.6837 73.509 38.7098 73.4631C38.7359 73.4173 38.7735 73.379 38.8189 73.3521L46.1757 69.0445C46.2218 69.0171 46.2744 69.0024 46.3281 69.002C46.3817 69.0015 46.4346 69.0152 46.4812 69.0418C46.5278 69.0683 46.5666 69.1068 46.5935 69.1532C46.6205 69.1995 46.6347 69.2522 46.6347 69.3059V77.8605C46.6349 77.914 46.621 77.9667 46.5943 78.0131C46.5676 78.0596 46.5291 78.0982 46.4827 78.1249L39.1259 82.4326C39.0796 82.4589 39.0272 82.4725 38.9739 82.4721Z" fill="#455A64"/>
<path d="M50.0337 67.4665V68.0745C50.0337 68.4089 50.2708 68.5457 50.5596 68.3785L76.6732 53.3031C76.8271 53.2036 76.9552 53.0691 77.0471 52.9106C77.1391 52.7521 77.1922 52.5741 77.2022 52.3911V51.7831C77.2022 51.4457 76.965 51.3119 76.6732 51.4791L50.5596 66.5545C50.407 66.655 50.2799 66.7899 50.1886 66.9482C50.0973 67.1065 50.0443 67.284 50.0337 67.4665V67.4665Z" fill="#E0E0E0"/>
<path d="M50.0337 71.2062V71.8142C50.0337 72.1516 50.2708 72.2854 50.5596 72.1182L76.6732 57.0428C76.8271 56.9433 76.9552 56.8088 77.0471 56.6503C77.1391 56.4918 77.1922 56.3138 77.2022 56.1308V55.5228C77.2022 55.1884 76.965 55.0516 76.6732 55.2188L50.5596 70.2972C50.4069 70.3969 50.2797 70.5312 50.1884 70.689C50.097 70.8469 50.044 71.0241 50.0337 71.2062V71.2062Z" fill="#E0E0E0"/>
<path d="M50.0337 74.921V75.529C50.0337 75.8634 50.2708 76.0002 50.5596 75.833L76.6732 60.7576C76.8269 60.6579 76.9549 60.5234 77.0468 60.3649C77.1387 60.2064 77.192 60.0285 77.2022 59.8456V59.2376C77.2022 58.9002 76.965 58.7634 76.6732 58.9336L50.5596 74.009C50.4068 74.1093 50.2797 74.2441 50.1883 74.4025C50.097 74.5609 50.044 74.7384 50.0337 74.921V74.921Z" fill="#E0E0E0"/>
<path d="M42.774 77.9874L41.0625 76.3398L41.8012 74.7803L42.774 75.7166L46.8263 67.1377L47.5651 67.8491L42.774 77.9874Z" fill="#2F80ED"/>
<path d="M38.9741 89.3L46.3309 84.9893V93.5469L38.9741 97.8545V89.3Z" fill="#FAFAFA"/>
<path d="M39.2779 89.4735V97.3258L46.0267 93.3738V85.5215L39.2779 89.4735ZM38.9739 98.1588C38.9207 98.1592 38.8683 98.1455 38.8219 98.1193C38.7755 98.0925 38.7371 98.0539 38.7104 98.0075C38.6837 97.961 38.6697 97.9084 38.6699 97.8548V89.3002C38.6694 89.247 38.6829 89.1945 38.709 89.1481C38.7352 89.1016 38.7731 89.0629 38.8189 89.0357L46.1757 84.7281C46.2221 84.7006 46.2749 84.6859 46.3289 84.6856C46.3828 84.6852 46.4358 84.6992 46.4825 84.7261C46.5292 84.7531 46.568 84.7919 46.5947 84.8387C46.6215 84.8855 46.6353 84.9386 46.6347 84.9925V93.5471C46.6344 93.6002 46.6202 93.6522 46.5936 93.6981C46.5669 93.7439 46.5287 93.782 46.4827 93.8085L39.1259 98.1162C39.0799 98.1435 39.0275 98.1582 38.9739 98.1588Z" fill="#455A64"/>
<path d="M50.0337 83.1527V83.7607C50.0337 84.0951 50.2708 84.2319 50.5596 84.0647L76.6732 69.0076C76.8269 68.9079 76.9549 68.7734 77.0468 68.6149C77.1387 68.4564 77.192 68.2785 77.2022 68.0956V67.4876C77.2022 67.1502 76.965 67.0134 76.6732 67.1836L50.5596 82.2589C50.4092 82.3575 50.2835 82.4894 50.1923 82.6444C50.1011 82.7994 50.0468 82.9733 50.0337 83.1527Z" fill="#E0E0E0"/>
<path d="M50.0337 86.8893V87.4973C50.0337 87.8317 50.2708 87.9685 50.5596 87.8013L76.6732 72.726C76.8271 72.6265 76.9552 72.492 77.0471 72.3335C77.1391 72.175 77.1922 71.997 77.2022 71.814V71.206C77.2022 70.8685 76.965 70.7348 76.6732 70.902L50.5596 85.9773C50.4068 86.0777 50.2797 86.2125 50.1883 86.3709C50.097 86.5292 50.044 86.7068 50.0337 86.8893Z" fill="#E0E0E0"/>
<path d="M50.0337 90.6071V91.2151C50.0337 91.5526 50.2708 91.6863 50.5596 91.5191L76.6732 76.4438C76.8272 76.3444 76.9555 76.21 77.0475 76.0514C77.1394 75.8929 77.1924 75.7148 77.2022 75.5318V74.9086C77.2022 74.5742 76.965 74.4374 76.6732 74.6046L50.5596 89.683C50.4049 89.7842 50.2764 89.9208 50.185 90.0815C50.0935 90.2422 50.0417 90.4224 50.0337 90.6071V90.6071Z" fill="#E0E0E0"/>
<path d="M38.9741 104.983L46.3309 100.676V109.233L38.9741 113.541V104.983Z" fill="#FAFAFA"/>
<path d="M39.2779 105.159V113.008L46.0267 109.056V101.207L39.2779 105.159ZM38.9739 113.844C38.8933 113.844 38.816 113.812 38.759 113.755C38.702 113.698 38.6699 113.621 38.6699 113.54V104.983C38.6699 104.93 38.6837 104.878 38.7098 104.832C38.7359 104.787 38.7735 104.748 38.8189 104.721L46.1757 100.414C46.2219 100.387 46.2743 100.373 46.3277 100.373C46.381 100.373 46.4335 100.387 46.4797 100.414C46.5261 100.441 46.5646 100.479 46.5913 100.526C46.6179 100.572 46.6319 100.625 46.6317 100.678V109.236C46.6314 109.289 46.6172 109.341 46.5905 109.387C46.5638 109.433 46.5256 109.471 46.4797 109.497L39.1229 113.805C39.0774 113.831 39.0261 113.844 38.9739 113.844V113.844Z" fill="#455A64"/>
<path d="M50.0337 98.839V99.447C50.0337 99.7844 50.2708 99.9182 50.5596 99.751L76.6732 84.6756C76.8271 84.5761 76.9552 84.4416 77.0471 84.2831C77.1391 84.1246 77.1922 83.9466 77.2022 83.7636V83.1556C77.2022 82.8212 76.965 82.6844 76.6732 82.8516L50.5596 97.93C50.4069 98.0298 50.2797 98.164 50.1884 98.3218C50.097 98.4797 50.044 98.6569 50.0337 98.839V98.839Z" fill="#E0E0E0"/>
<path d="M50.0337 102.576V103.184C50.0337 103.521 50.2708 103.658 50.5596 103.488L76.6732 88.4154C76.8266 88.3154 76.9543 88.1808 77.0462 88.0224C77.1381 87.864 77.1915 87.6862 77.2022 87.5034V86.8802C77.2022 86.5458 76.965 86.409 76.6732 86.5762L50.5596 101.655C50.4053 101.756 50.2771 101.892 50.1857 102.052C50.0942 102.212 50.0421 102.392 50.0337 102.576V102.576Z" fill="#E0E0E0"/>
<path d="M50.0337 106.291V106.899C50.0337 107.233 50.2708 107.37 50.5596 107.203L76.6732 92.1274C76.8271 92.0278 76.9552 91.8934 77.0471 91.7348C77.1391 91.5763 77.1922 91.3983 77.2022 91.2154V90.6074C77.2022 90.2699 76.965 90.1362 76.6732 90.3034L50.5596 105.379C50.407 105.479 50.2799 105.614 50.1886 105.772C50.0973 105.931 50.0443 106.108 50.0337 106.291V106.291Z" fill="#E0E0E0"/>
<path d="M119.001 54.2445C119.292 52.4464 118.071 50.7522 116.273 50.4603C114.475 50.1684 112.781 51.3895 112.489 53.1876C112.197 54.9857 113.418 56.68 115.216 56.9718C117.014 57.2637 118.709 56.0427 119.001 54.2445Z" fill="#263238"/>
<path d="M111.813 64.0078L107.107 69.4798L100.787 66.7438L100.665 70.1668C100.665 70.1668 105.833 72.5836 106.633 72.7478C107.432 72.912 108.198 73.0883 108.891 72.5563C109.7 71.9483 112.603 68.586 112.603 68.586L111.813 64.0078Z" fill="#FFA8A7"/>
<path d="M116.084 61.2016C114.211 61.08 112.74 62.5027 111.64 63.7795C110.539 65.0563 109.15 67.0627 109.15 67.0627C109.15 67.0627 109.907 69.2728 111.901 69.9416L115.339 65.8589L116.084 61.2016Z" fill="#E0E0E0"/>
<path d="M123.635 109.504H121.312V113.48H123.635V109.504Z" fill="#FFA8A7"/>
<path d="M115.582 110.699L113.26 110.778L113.144 106.57L115.464 106.491L115.582 110.699Z" fill="#FFA8A7"/>
<path d="M123.48 77.9857C123.48 80.2049 123.769 93.6447 123.769 93.6447C123.821 94.2831 124.42 95.4687 124.292 97.9007C124.116 101.245 123.827 109.887 123.827 109.887C123.827 109.887 122.739 110.967 121.2 109.887C121.2 109.887 119.097 97.9129 118.683 94.6145C118.319 91.7326 117.701 83.9106 117.701 83.9106L116.416 94.7695C116.416 94.7695 116.792 96.934 116.878 98.4601C116.963 99.9862 115.619 107.744 115.619 107.744C115.242 107.98 114.811 108.112 114.367 108.129C113.923 108.145 113.483 108.045 113.09 107.838C113.09 107.838 112.09 96.0159 111.849 94.6358C111.609 93.2556 112.619 77.9766 112.619 77.9766L123.48 77.9857Z" fill="#37474F"/>
<path d="M121.249 61.9431C121.744 62.0296 122.202 62.2608 122.566 62.6077C122.929 62.9545 123.182 63.4014 123.292 63.8917C123.418 64.471 123.481 65.0621 123.48 65.6549V77.9852C121.854 79.7575 116.184 80.5844 112.618 77.9852C112.618 77.9852 112.688 67.0959 112.956 65.3053C113.418 62.1985 114.904 61.0889 116.4 61.2044L119.972 61.7121L121.249 61.9431Z" fill="#F0F0F0"/>
<path d="M121.437 56.0576C121.437 56.0576 120.902 58.5656 120.689 58.9791C120.547 59.2332 120.311 59.4227 120.033 59.508L120.069 57.7448L121.437 56.0576Z" fill="#263238"/>
<path d="M120.766 52.4619C120.952 52.4395 121.142 52.4601 121.319 52.5223C121.497 52.5845 121.658 52.6865 121.79 52.8207C122.231 53.2706 121.985 54.6781 121.437 56.0583L120.431 56.1738L120.766 52.4619Z" fill="#263238"/>
<path d="M120.13 56.1729C120.331 56.2945 120.62 55.9054 120.869 55.647C121.118 55.3886 121.93 55.039 122.334 55.8841C122.738 56.7292 121.975 57.9026 121.337 58.1033C120.233 58.4498 120.069 57.7445 120.069 57.7445L119.972 61.7117C119.729 62.245 119.357 62.7097 118.89 63.0641C118.423 63.4185 117.876 63.6516 117.297 63.7425C115.342 64.01 115.743 62.3988 116.385 61.6145V60.3985C115.894 60.4772 115.395 60.5027 114.898 60.4745C114.087 60.3498 113.576 59.7084 113.333 58.8329C112.937 57.4223 112.785 56.2853 113.12 53.5129C113.488 50.4729 117.023 50.4425 118.929 51.6433C120.835 52.8441 120.13 56.1729 120.13 56.1729Z" fill="#FFA8A7"/>
<path d="M120.13 56.5138C120.23 56.5138 120.616 55.8754 120.869 55.6474C121.215 55.3282 120.765 52.4615 120.765 52.4615C120.857 52.2135 120.875 51.944 120.815 51.6863C120.756 51.4286 120.622 51.1939 120.431 51.0114C119.954 50.4855 119.157 50.4277 117.795 50.2149C117.084 50.1024 116.002 49.9109 115.287 49.768C114.436 49.6099 113.731 49.4427 113.132 49.9656C112.897 50.1704 112.731 50.4424 112.656 50.7447C112.581 51.047 112.601 51.3651 112.712 51.6559C112.775 51.788 112.857 51.9099 112.956 52.0176C113.117 52.2099 113.327 52.3557 113.564 52.4402C113.564 52.4402 113.934 52.7685 115.226 52.9266C116.419 53.0156 117.617 52.9922 118.805 52.8567C119.178 52.808 119.258 53.1607 119.461 54.1608C119.641 55.0242 119.79 56.5077 120.13 56.5138Z" fill="#263238"/>
<path d="M120.766 52.6834L121.982 52.0298C121.942 51.9495 121.887 51.8778 121.82 51.819C121.753 51.7601 121.674 51.7153 121.589 51.687C121.504 51.6587 121.415 51.6476 121.326 51.6542C121.236 51.6609 121.149 51.6852 121.07 51.7258C120.906 51.8161 120.783 51.9657 120.727 52.1439C120.67 52.3221 120.684 52.5152 120.766 52.6834V52.6834Z" fill="#263238"/>
<path d="M116.403 60.4054C116.403 60.4054 118.212 60.0406 118.835 59.7032C119.207 59.5092 119.511 59.2085 119.711 58.8398C119.615 59.2094 119.445 59.5558 119.212 59.8582C118.75 60.451 116.394 60.8858 116.394 60.8858L116.403 60.4054Z" fill="#F28F8F"/>
<path d="M116.838 55.7207C116.841 55.7915 116.865 55.8599 116.906 55.9174C116.948 55.9748 117.005 56.0188 117.072 56.0439C117.138 56.069 117.21 56.074 117.279 56.0584C117.348 56.0427 117.411 56.0071 117.46 55.956C117.51 55.9048 117.543 55.8404 117.555 55.7707C117.568 55.7009 117.56 55.629 117.532 55.5638C117.505 55.4986 117.458 55.4429 117.399 55.4038C117.34 55.3647 117.271 55.3438 117.2 55.3438C117.151 55.3445 117.103 55.3549 117.059 55.3743C117.014 55.3938 116.974 55.4218 116.94 55.4568C116.907 55.4919 116.88 55.5333 116.863 55.5785C116.845 55.6238 116.837 55.6721 116.838 55.7207V55.7207Z" fill="#263238"/>
<path d="M117.236 54.3528L118.012 54.7815C118.065 54.6763 118.076 54.5549 118.043 54.4418C118.009 54.3288 117.934 54.2328 117.832 54.1735C117.781 54.1454 117.726 54.1278 117.668 54.1216C117.61 54.1154 117.552 54.1209 117.496 54.1376C117.441 54.1543 117.389 54.182 117.345 54.2189C117.3 54.2559 117.263 54.3014 117.236 54.3528V54.3528Z" fill="#263238"/>
<path d="M116.567 58.2256L115.737 58.5296C115.755 58.5851 115.785 58.6364 115.823 58.6805C115.861 58.7247 115.908 58.7607 115.96 58.7864C116.013 58.8122 116.07 58.8273 116.128 58.8306C116.186 58.834 116.245 58.8257 116.3 58.8062C116.409 58.7608 116.497 58.6758 116.547 58.5682C116.597 58.4606 116.604 58.3383 116.567 58.2256V58.2256Z" fill="#F28F8F"/>
<path d="M113.603 54.6537L114.312 54.1095C114.278 54.0627 114.236 54.023 114.187 53.9928C114.139 53.9626 114.084 53.9426 114.027 53.9338C113.971 53.925 113.913 53.9277 113.857 53.9417C113.802 53.9557 113.749 53.9807 113.704 54.0153C113.609 54.0888 113.545 54.1959 113.527 54.3146C113.508 54.4332 113.535 54.5545 113.603 54.6537V54.6537Z" fill="#263238"/>
<path d="M113.822 55.6318C113.825 55.7027 113.849 55.7711 113.891 55.8285C113.932 55.886 113.99 55.93 114.056 55.955C114.122 55.9801 114.194 55.9851 114.264 55.9695C114.333 55.9539 114.396 55.9183 114.445 55.8671C114.494 55.816 114.527 55.7515 114.54 55.6818C114.552 55.6121 114.544 55.5401 114.517 55.4749C114.489 55.4097 114.443 55.3541 114.383 55.315C114.324 55.2758 114.255 55.2549 114.184 55.2549C114.136 55.2557 114.088 55.2661 114.043 55.2855C113.999 55.3049 113.958 55.3329 113.925 55.368C113.891 55.403 113.865 55.4444 113.847 55.4897C113.83 55.535 113.821 55.5833 113.822 55.6318Z" fill="#263238"/>
<path d="M115.668 55.2734L115.549 57.4562L114.412 57.067L115.668 55.2734Z" fill="#F28F8F"/>
<path d="M121.313 112.334V112C121.088 112.097 120.574 114.067 119.65 114.909C118.917 115.575 117.92 116.347 117.665 117.092C117.409 117.837 119.057 118.308 119.741 118.174C120.538 118.034 121.915 117.475 122.261 116.958C122.608 116.441 122.769 115.672 123.049 115.292C123.328 114.912 123.979 114.487 124.131 114.046C124.216 113.806 124.116 113.274 123.997 112.83C123.879 112.386 123.775 111.97 123.635 112.006C123.635 112.058 123.635 112.261 123.635 112.261C123.304 112.52 122.894 112.658 122.474 112.654C122.134 112.66 121.31 112.593 121.313 112.334Z" fill="#263238"/>
<path d="M113.235 110.049C113.114 110.049 113.017 110.225 112.752 110.511C112.354 110.913 111.892 111.246 111.384 111.496C110.515 111.93 108.824 112.599 108.058 112.946C107.581 113.158 107.602 113.736 108.098 114.064C108.593 114.393 109.785 114.63 111.217 114.311C111.998 114.137 113.013 113.417 113.649 113.453C114.284 113.49 115.497 113.484 115.971 113.149C116.446 112.815 116.257 112.122 116.12 111.523C115.974 110.866 115.765 109.863 115.549 109.909V110.115C115.269 110.538 113.849 110.723 113.235 110.398V110.049Z" fill="#263238"/>
<path d="M117.701 83.9198C116.501 83.5451 115.397 82.9122 114.467 82.0654C114.467 82.0654 115.093 83.2328 116.947 84.3211L116.415 94.7787L117.701 83.9198Z" fill="#263238"/>
<path d="M107.839 100.016L103.93 111.425C103.905 111.498 103.858 111.561 103.796 111.605C103.733 111.65 103.659 111.674 103.582 111.674C103.505 111.674 103.43 111.65 103.368 111.605C103.305 111.561 103.259 111.498 103.234 111.425L99.376 99.9248L107.839 100.016Z" fill="#FFA8A7"/>
<path d="M103.234 111.425C103.258 111.498 103.305 111.561 103.368 111.606C103.43 111.65 103.505 111.674 103.582 111.674C103.658 111.674 103.733 111.65 103.796 111.606C103.858 111.561 103.905 111.498 103.93 111.425L104.693 109.197C104.364 109.374 103.992 109.456 103.62 109.435C103.247 109.414 102.887 109.291 102.58 109.078L102.41 108.963L103.234 111.425Z" fill="#263238"/>
<path d="M99.525 49.0537V50.1603V51.507L99.3882 99.9159C100.282 100.937 101.607 101.457 102.951 101.594C104.997 101.807 107.098 101.135 107.845 100.01L107.982 51.6286V49.0537C107.882 50.7318 99.449 50.7257 99.525 49.0537Z" fill="#2F80ED"/>
<path d="M99.4974 53.3006V55.7934C99.473 56.5169 101.017 56.9851 102.79 57.1462C105.149 57.3711 107.927 56.7327 107.958 55.7751V53.9359V53.2793C107.924 54.2369 105.146 54.8783 102.79 54.6534C101.087 54.4953 99.5977 54.0454 99.5126 53.3796C99.502 53.3546 99.4968 53.3277 99.4974 53.3006Z" fill="#EBEBEB"/>
<path d="M99.5037 53.9234C99.4429 55.6015 107.9 55.5802 107.961 53.9021V51.4062C107.9 53.0843 99.449 53.1056 99.5037 51.4275V53.9234Z" fill="#2F80ED"/>
<path d="M99.5249 49.0537V51.5161C99.452 53.1638 107.614 53.2124 107.982 51.6377C107.992 51.6073 107.997 51.5755 107.997 51.5435V49.0628C107.882 50.7318 99.4489 50.7257 99.5249 49.0537Z" fill="#EBEBEB"/>
<path opacity="0.1" d="M107.97 51.6374V49.0625C107.925 49.8164 106.198 50.3788 104.283 50.4457L104.164 101.642L103.936 111.428L107.839 100.016L107.97 51.6374Z" fill="#2F80ED"/>
<path d="M99.5645 38.6081L99.525 49.0627C99.4915 49.7771 101.012 50.2483 102.775 50.4185C105.134 50.6496 107.924 50.0264 107.979 49.0718L108.016 38.5838C108.016 36.4984 103.784 35.9725 101.258 36.8419C100.312 37.1429 99.6405 37.7235 99.5645 38.6081Z" fill="#F28F8F"/>
<path d="M127.015 81.4535C126.941 82.5078 126.802 83.5566 126.599 84.5938C125.903 87.2751 125.012 88.0807 123.823 88.1597C121.93 88.2844 121.917 87.576 122.769 86.354C123.142 85.8213 123.427 85.2321 123.614 84.609C123.335 84.8413 123.029 85.0384 122.702 85.1957C122.556 85.2721 122.388 85.2907 122.229 85.2478C122.071 85.205 121.934 85.1038 121.847 84.9647C121.787 84.837 122.115 84.7093 122.48 84.2655C122.942 83.7 123.179 83.2501 123.817 82.782C124.029 82.5721 124.164 82.2968 124.2 82.0007C124.298 81.6176 124.365 75.5346 124.021 74.276L122.404 68.424C121.078 67.512 119.668 63.0128 121.683 62.04C123.574 62.2528 124.954 64.7274 127.019 72.376C127.368 73.738 127.228 79.3741 127.015 81.4535Z" fill="#FFA8A7"/>
<path d="M121.249 61.9436C120.991 62.1723 120.785 62.4532 120.644 62.7677C120.503 63.0821 120.43 63.423 120.431 63.7676C120.376 65.0413 120.975 66.8775 121.343 68.0236C121.711 69.1697 122.455 71.2551 122.455 71.2551C122.455 71.2551 125.571 70.8964 126.28 69.0693C126.28 69.0693 124.82 64.3482 123.416 62.813C123.146 62.5111 122.81 62.2756 122.434 62.1248C122.058 61.974 121.652 61.912 121.249 61.9436Z" fill="#E0E0E0"/>
<path d="M101.306 63.0859C101.306 63.0859 102.063 62.4779 103.507 62.7181C104.206 62.8336 103.939 65.4784 101.683 66.2141C100.221 66.6944 99.9231 66.4482 99.4519 67.649C99.4519 67.649 98.5703 67.4666 98.7831 66.129C99.0177 64.7439 99.6347 63.4519 100.565 62.3989C101.209 61.6389 101.255 61.0005 101.571 61.2163C101.887 61.4322 101.708 62.0888 101.708 62.0888L101.306 63.0859Z" fill="#FFA8A7"/>
</svg>
