<svg width="30" height="30" viewBox="0 0 30 30" fill="none" xmlns="http://www.w3.org/2000/svg">
<path d="M14.933 30C15.5576 30 16.1822 29.8516 16.7473 29.5549C17.3124 29.2582 17.7883 28.8427 18.1452 28.3383C21.9819 22.9377 26.5028 15.638 26.5028 11.543C26.5028 8.48665 25.2833 5.54896 23.1121 3.38279C20.9112 1.21662 17.9667 0 14.9033 0C11.8398 0 8.89531 1.21662 6.72412 3.38279C4.55293 5.54896 3.3335 8.48665 3.3335 11.543C3.3335 15.6083 7.88407 22.9377 11.6911 28.3383C12.048 28.8724 12.5239 29.2878 13.089 29.5846C13.6541 29.8516 14.2787 30 14.933 30ZM22.5768 11.4837C22.5768 12.997 22.1306 14.4807 21.2979 15.727C20.4651 16.9733 19.2754 17.9525 17.8775 18.546C16.4796 19.1098 14.933 19.2878 13.4459 18.9911C11.9588 18.6944 10.5906 17.9822 9.5199 16.9139C8.44918 15.8457 7.73536 14.4807 7.43794 12.997C7.14051 11.5134 7.28923 9.97033 7.88407 8.57567C8.44918 7.18101 9.43067 5.99407 10.7096 5.1632C11.9588 4.33234 13.4459 3.88724 14.9627 3.88724C16.9852 3.88724 18.9482 4.68843 20.3759 6.11276C21.7737 7.50742 22.5768 9.4362 22.5768 11.4837Z" fill="black"/>
<path d="M21.5993 11.4842C21.5993 12.8195 21.2127 14.0954 20.4691 15.1934C19.7255 16.2913 18.6846 17.1518 17.4651 17.6563C16.2457 18.1607 14.9073 18.2794 13.5986 18.042C12.29 17.775 11.1003 17.1518 10.1783 16.2023C9.25624 15.2824 8.60191 14.0658 8.33423 12.7898C8.06655 11.5138 8.21526 10.1489 8.72088 8.93224C9.2265 7.71563 10.089 6.67705 11.1895 5.93521C12.29 5.19337 13.5986 4.80762 14.9073 4.80762C16.6918 4.80762 18.3871 5.51978 19.6363 6.76607C20.8855 8.01236 21.5993 9.70376 21.5993 11.4842Z" fill="black"/>
<path d="M11.6861 12.9411H12.3513C12.2783 12.5484 12.0734 12.2023 11.7841 11.9502L11.4331 12.5096C11.5482 12.6305 11.6359 12.7776 11.6861 12.9411Z" fill="white"/>
<path d="M10.6437 14.3503C10.0425 14.3503 9.55341 13.8611 9.55341 13.2599C9.55341 12.6587 10.0425 12.1696 10.6437 12.1696C10.7598 12.1696 10.8715 12.188 10.9765 12.2218L11.3275 11.6624C11.1176 11.5724 10.8865 11.5225 10.6437 11.5225C9.68415 11.5225 8.90625 12.3004 8.90625 13.2599C8.90625 14.2195 9.68415 14.9974 10.6437 14.9974C11.5171 14.9974 12.2397 14.353 12.3626 13.5138H11.7039C11.5892 13.9929 11.1575 14.3503 10.6437 14.3503Z" fill="white"/>
<path d="M19.0632 11.5225C18.9114 11.5225 18.7643 11.542 18.624 11.5786L18.9048 12.1813C18.9565 12.1737 19.0094 12.1696 19.0632 12.1696C19.6644 12.1696 20.1535 12.6588 20.1535 13.2599C20.1535 13.8611 19.6644 14.3503 19.0632 14.3503C18.462 14.3503 17.9728 13.8611 17.9728 13.2599C17.9728 12.9363 18.1147 12.6453 18.3394 12.4455L18.0585 11.8428C17.6152 12.1576 17.3257 12.6748 17.3257 13.2599C17.3257 14.2195 18.1036 14.9974 19.0632 14.9974C20.0227 14.9974 20.8006 14.2195 20.8006 13.2599C20.8006 12.3004 20.0228 11.5225 19.0632 11.5225Z" fill="white"/>
<path d="M18.9824 13.4817L19.2846 13.3409L18.3458 11.3264L17.1538 8.7682C17.1196 8.69483 17.0375 8.65658 16.9595 8.67762L16.0392 8.92453L16.1256 9.24651L16.9108 9.03586L17.1727 9.598C16.7808 9.60454 14.6575 9.68648 14.2036 10.6915H12.6304L11.9304 10.3349C11.7671 10.2517 11.5887 10.2021 11.4059 10.189L10.275 10.1077C10.1397 10.098 10.012 10.1709 9.95155 10.2922L9.90794 10.3797C9.86546 10.4649 9.85851 10.5635 9.88862 10.6538L9.89217 10.6645L8.9541 11.5138L9.07993 11.6528L9.97917 10.8386L11.6999 11.0687L11.7217 11.0717L11.7675 11.1514L10.6447 12.941H11.0429L11.9579 11.4825L12.015 11.5819L12.7964 12.941L12.8546 13.0422H10.1538V13.4129H13.0677L13.1156 13.4962C13.1191 13.5023 13.123 13.5081 13.1267 13.5141C13.2822 13.77 13.56 13.9272 13.8606 13.9272H16.0207L17.1535 11.5981H15.8718V11.4952H17.2035L17.2808 11.3362H15.3146V11.2333H17.3765L17.8765 11.1083L18.0486 11.4776L18.9824 13.4817Z" fill="white"/>
<path d="M18.556 10.5826C18.8708 10.5826 18.8708 9.44238 18.556 9.44238C18.2411 9.44238 17.9858 9.69759 17.9858 10.0125C17.9858 10.3274 18.2411 10.5826 18.556 10.5826Z" fill="white"/>
<path d="M11.8205 8.31712H11.4269C11.4845 8.28862 11.5286 8.23849 11.5496 8.17758C11.5707 8.11666 11.567 8.04987 11.5394 7.99165C11.5118 7.93344 11.4625 7.88848 11.4022 7.86651C11.3419 7.84454 11.2754 7.84733 11.2171 7.87426L10.8691 8.03456L10.5212 7.87426C10.4629 7.84713 10.3963 7.8442 10.3358 7.86612C10.2753 7.88803 10.2259 7.93302 10.1983 7.99132C10.1706 8.04962 10.167 8.11653 10.1881 8.17752C10.2092 8.23852 10.2534 8.28868 10.3111 8.31713H9.91778C9.83599 8.31726 9.75759 8.34999 9.69977 8.40813C9.64196 8.46627 9.60945 8.54508 9.60938 8.62728V8.91007H9.73019V10.3125H12.0081V8.91007H12.1289V8.62728C12.1288 8.54508 12.0963 8.46627 12.0385 8.40813C11.9807 8.34998 11.9023 8.31726 11.8205 8.31712ZM10.9338 8.14793L11.2709 7.99242C11.2885 7.98431 11.3078 7.98077 11.3271 7.98213C11.3464 7.98348 11.365 7.98969 11.3813 8.00018C11.3975 8.01067 11.4109 8.02511 11.4202 8.04216C11.4295 8.05921 11.4343 8.07833 11.4343 8.09775C11.4342 8.12844 11.4221 8.15785 11.4005 8.17954C11.3789 8.20124 11.3496 8.21346 11.3191 8.21352H10.9338V8.14793ZM10.304 8.09776C10.3038 8.07831 10.3085 8.05912 10.3178 8.04205C10.3271 8.02497 10.3405 8.01058 10.3569 8.00024C10.3754 7.98813 10.3969 7.98164 10.419 7.98156C10.4356 7.98165 10.4521 7.98536 10.4672 7.99242L10.8045 8.14793V8.21352H10.4192C10.3886 8.21346 10.3594 8.20124 10.3378 8.17955C10.3162 8.15785 10.304 8.12844 10.304 8.09776V8.09776ZM11.7844 10.0877H9.95387V8.91007H11.7844V10.0877Z" fill="white"/>
</svg>
