<svg width="153" height="152" viewBox="0 0 153 152" fill="none" xmlns="http://www.w3.org/2000/svg">
<g clip-path="url(#clip0_86_6608)">
<path d="M152.5 116.25H0.5V116.326H152.5V116.25Z" fill="#EBEBEB"/>
<path d="M137.27 121.142H132.74V121.218H137.27V121.142Z" fill="#EBEBEB"/>
<path d="M101.191 121.969H98.5493V122.045H101.191V121.969Z" fill="#EBEBEB"/>
<path d="M131.457 118.32H121.063V118.396H131.457V118.32Z" fill="#EBEBEB"/>
<path d="M33.8275 119.89H20.6978V119.966H33.8275V119.89Z" fill="#EBEBEB"/>
<path d="M41.2695 119.89H36.5332V119.966H41.2695V119.89Z" fill="#EBEBEB"/>
<path d="M77.947 118.868H49.4683V118.944H77.947V118.868Z" fill="#EBEBEB"/>
<path d="M72.5467 102.688H13.8485C13.3887 102.687 12.9479 102.504 12.6231 102.179C12.2982 101.853 12.1157 101.412 12.1157 100.952V18.4403C12.1197 17.9831 12.304 17.546 12.6284 17.2238C12.9528 16.9017 13.3913 16.7205 13.8485 16.7197H72.5467C73.0071 16.7197 73.4486 16.9026 73.7741 17.2281C74.0996 17.5536 74.2825 17.9951 74.2825 18.4555V100.952C74.2825 101.413 74.0996 101.854 73.7741 102.18C73.4486 102.505 73.0071 102.688 72.5467 102.688V102.688ZM13.8485 16.7805C13.4088 16.7813 12.9874 16.9566 12.6768 17.2677C12.3662 17.5789 12.1917 18.0006 12.1917 18.4403V100.952C12.1917 101.392 12.3662 101.814 12.6768 102.125C12.9874 102.436 13.4088 102.611 13.8485 102.612H72.5467C72.9867 102.611 73.4084 102.436 73.7195 102.125C74.0306 101.814 74.2057 101.392 74.2065 100.952V18.4403C74.2057 18.0004 74.0306 17.5786 73.7195 17.2676C73.4084 16.9565 72.9867 16.7813 72.5467 16.7805H13.8485Z" fill="#EBEBEB"/>
<path d="M138.306 102.688H79.604C79.1439 102.687 78.7028 102.504 78.3775 102.179C78.0521 101.853 77.869 101.412 77.8682 100.952V18.4403C77.873 17.9828 78.0579 17.5457 78.3828 17.2236C78.7077 16.9015 79.1465 16.7205 79.604 16.7197H138.306C138.763 16.7213 139.201 16.9028 139.525 17.2249C139.848 17.5469 140.032 17.9836 140.036 18.4403V100.952C140.036 101.412 139.854 101.852 139.53 102.177C139.206 102.503 138.766 102.686 138.306 102.688V102.688ZM79.604 16.7805C79.164 16.7813 78.7423 16.9565 78.4312 17.2676C78.1201 17.5786 77.945 18.0004 77.9442 18.4403V100.952C77.945 101.392 78.1201 101.814 78.4312 102.125C78.7423 102.436 79.164 102.611 79.604 102.612H138.306C138.746 102.611 139.168 102.436 139.479 102.125C139.79 101.814 139.965 101.392 139.966 100.952V18.4403C139.965 18.0004 139.79 17.5786 139.479 17.2676C139.168 16.9565 138.746 16.7813 138.306 16.7805H79.604Z" fill="#EBEBEB"/>
<path d="M65.7018 116.25H71.3623V77.3756H65.7018V116.25Z" fill="#E6E6E6"/>
<path d="M67.693 116.25H65.6987V108.863H69.7814L67.693 116.25Z" fill="#F0F0F0"/>
<path d="M125.566 116.25H131.226V77.3756H125.566V116.25Z" fill="#E6E6E6"/>
<path d="M65.7021 114.229L127.305 114.229V77.3725H65.7021V114.229Z" fill="#F0F0F0"/>
<path d="M125.31 116.25H127.304V108.863H123.222L125.31 116.25Z" fill="#F0F0F0"/>
<path d="M106.994 80.4278V110.916H125.255V80.4278H106.994Z" fill="#E6E6E6"/>
<path d="M114.317 81.4985H117.932C119.46 81.5177 120.939 80.9659 122.082 79.9512H110.171C111.312 80.966 112.791 81.5178 114.317 81.4985Z" fill="#F0F0F0"/>
<path d="M87.3711 80.4278V110.916H105.632V80.4278H87.3711Z" fill="#E6E6E6"/>
<path d="M94.5119 81.5005H98.1234C99.6511 81.5197 101.131 80.9672 102.273 79.9512H90.3623C91.5044 80.9672 92.9842 81.5197 94.5119 81.5005V81.5005Z" fill="#F0F0F0"/>
<path d="M67.751 80.4278V110.916H86.0123V80.4278H67.751Z" fill="#E6E6E6"/>
<path d="M74.8889 81.5005H78.5004C80.0281 81.5203 81.5082 80.9684 82.65 79.9531H70.7393C71.8814 80.9679 73.3612 81.5197 74.8889 81.5005V81.5005Z" fill="#F0F0F0"/>
<path d="M21.7742 116.25H60.4004L60.4004 29.4205H21.7742L21.7742 116.25Z" fill="#F0F0F0"/>
<path d="M21.7739 116.25H59.5854L59.5854 29.4205H21.7739L21.7739 116.25Z" fill="#F5F5F5"/>
<path d="M57.2813 114.28L57.2812 31.3906L24.0784 31.3906L24.0784 114.28H57.2813Z" fill="#F0F0F0"/>
<path d="M54.0194 46.8158C54.0194 44.4148 53.0656 42.1121 51.3678 40.4143C49.67 38.7165 47.3673 37.7627 44.9663 37.7627H36.3935C33.9924 37.7627 31.6897 38.7165 29.9919 40.4143C28.2941 42.1121 27.3403 44.4148 27.3403 46.8158H54.0194Z" fill="#FAFAFA"/>
<path d="M54.019 109.128V89.3252H27.343V109.128H54.019Z" fill="#F5F5F5"/>
<path d="M54.0193 52.3877H42.2515V86.7671H54.0193V52.3877Z" fill="#F5F5F5"/>
<path d="M39.1082 52.3877H27.3403V86.7671H39.1082V52.3877Z" fill="#F5F5F5"/>
<path d="M31.6085 69.4254H26.7901C26.6913 69.4262 26.5934 69.4074 26.502 69.3702C26.4106 69.333 26.3274 69.278 26.2573 69.2085C26.1872 69.139 26.1316 69.0563 26.0936 68.9651C26.0557 68.874 26.0361 68.7763 26.0361 68.6775C26.0361 68.4792 26.1149 68.289 26.2552 68.1487C26.3954 68.0085 26.5856 67.9297 26.784 67.9297H31.6024C31.8005 67.9305 31.9902 68.0095 32.1303 68.1496C32.2704 68.2897 32.3494 68.4794 32.3502 68.6775C32.3502 68.8748 32.2723 69.0641 32.1333 69.2042C31.9944 69.3443 31.8057 69.4238 31.6085 69.4254V69.4254Z" fill="#E0E0E0"/>
<path d="M24.6743 114.28L24.6743 31.3906H24.0754L24.0754 114.28H24.6743Z" fill="#F0F0F0"/>
<path d="M84.8325 67.8477H125.793V29.4211L84.8325 29.4211V67.8477Z" fill="#E6E6E6"/>
<path d="M83.8022 67.8477H124.763V29.4211L83.8022 29.4211V67.8477Z" fill="#F5F5F5"/>
<path d="M81.4064 70.0703H125.793V67.847H81.4064V70.0703Z" fill="#E6E6E6"/>
<path d="M80.2452 70.0703H122.346V67.847H80.2452V70.0703Z" fill="#F5F5F5"/>
<path d="M122.909 65.846V31.418L85.6535 31.418V65.846H122.909Z" fill="white"/>
<path d="M105.313 65.846V31.418H103.249V65.846H105.313Z" fill="#F5F5F5"/>
<path d="M86.4346 65.8489V31.4209H85.6533V65.8489H86.4346Z" fill="#E6E6E6"/>
<path d="M106.094 65.846V31.418H105.313V65.846H106.094Z" fill="#E6E6E6"/>
<path d="M90.3378 68.8651C89.5839 61.0583 89.061 48.3937 89.4684 44.1559C89.4754 44.0837 89.4978 44.0138 89.534 43.9509C89.5701 43.888 89.6193 43.8336 89.6782 43.7911C89.757 43.7339 89.8502 43.6999 89.9473 43.6928C90.0445 43.6857 90.1417 43.7059 90.2279 43.7511C90.3142 43.7963 90.3862 43.8647 90.4356 43.9486C90.4851 44.0325 90.5102 44.1285 90.5081 44.2259C90.4351 46.3265 90.353 51.5735 90.8121 60.6236C91.034 65.1289 91.3562 68.2236 91.1343 68.8651H90.3378Z" fill="#E6E6E6"/>
<path d="M87.5293 50.8742C85.4013 48.4908 81.0055 46.7976 76.5397 46.8067C74.7887 46.8067 81.8718 49.5761 84.8176 52.6313C87.1067 55.0025 89.6816 58.994 90.5662 61.2102C89.9978 56.5438 89.6755 53.2545 87.5293 50.8742Z" fill="#E6E6E6"/>
<path d="M91.7823 51.6005C93.5637 49.1198 97.6768 47.2107 102.118 46.9949C103.866 46.9097 97.2208 50.0349 94.7402 53.2147C92.8128 55.6923 90.8368 59.7993 90.2957 62.0489C90.1802 57.3765 90.0008 54.0811 91.7823 51.6005Z" fill="#E6E6E6"/>
<path d="M87.4442 42.1768C85.6202 40.1582 81.9175 38.7233 78.1388 38.7325C76.6522 38.7325 82.6532 41.0793 85.149 43.6633C87.0855 45.6728 89.2712 49.0533 90.013 50.9289C89.5236 46.983 89.25 44.1923 87.4442 42.1768Z" fill="#E6E6E6"/>
<path d="M91.0342 45.1585C92.5542 43.0579 96.0259 41.4406 99.7924 41.2582C101.27 41.1883 95.6428 43.824 93.5452 46.5265C91.9128 48.6241 90.2407 52.1019 89.7787 54.008C89.6692 50.0499 89.5264 47.2592 91.0342 45.1585Z" fill="#E6E6E6"/>
<path d="M90.6421 77.3754C89.5126 77.3712 88.4272 76.9364 87.6071 76.1598C86.7869 75.3831 86.2937 74.323 86.228 73.1954L85.8389 66.4102H95.4757L95.0835 73.1954C95.0182 74.328 94.5214 75.3925 93.6953 76.17C92.8692 76.9475 91.7765 77.3789 90.6421 77.3754V77.3754Z" fill="#E6E6E6"/>
<path d="M96.0835 67.9531H85.1973L84.8872 65.1289H96.3936L96.0835 67.9531Z" fill="#E6E6E6"/>
<path d="M76.5016 129.978C109.056 129.978 135.446 128.438 135.446 126.537C135.446 124.636 109.056 123.096 76.5016 123.096C43.9478 123.096 17.5576 124.636 17.5576 126.537C17.5576 128.438 43.9478 129.978 76.5016 129.978Z" fill="#F5F5F5"/>
<path d="M77.6886 123.249L75.1502 123.535L74.2139 117.777L76.7523 117.491L77.6886 123.249Z" fill="#FFC3BD"/>
<path d="M89.0523 123.8H86.517L85.8877 117.93H88.4231L89.0523 123.8Z" fill="#FFC3BD"/>
<path d="M86.31 123.508H89.3986C89.4489 123.508 89.4977 123.525 89.5369 123.557C89.5761 123.588 89.6035 123.632 89.6145 123.681L90.1161 125.934C90.1281 125.989 90.1274 126.045 90.1142 126.1C90.101 126.155 90.0756 126.205 90.0399 126.249C90.0042 126.292 89.9591 126.327 89.9081 126.35C89.857 126.374 89.8013 126.385 89.7452 126.384C88.7511 126.368 88.0246 126.311 86.7721 126.311C86.003 126.311 83.6804 126.39 82.6164 126.39C81.5524 126.39 81.4004 125.338 81.8503 125.244C83.802 124.815 85.2734 124.225 85.8996 123.663C86.0123 123.562 86.1587 123.507 86.31 123.508V123.508Z" fill="#263238"/>
<path d="M75.1108 123.1L77.8468 122.796C77.8971 122.79 77.9478 122.802 77.9905 122.829C78.0332 122.856 78.0651 122.897 78.0809 122.945L78.8318 125.125C78.8505 125.177 78.8571 125.233 78.8513 125.288C78.8454 125.343 78.8272 125.396 78.798 125.443C78.7687 125.49 78.7293 125.53 78.6825 125.56C78.6357 125.589 78.5828 125.608 78.5278 125.615C77.5337 125.712 76.0958 125.815 74.8464 125.958C73.3872 126.122 73.144 126.514 71.4264 126.472C70.3836 126.448 70.1192 125.39 70.5569 125.304C72.5512 124.918 72.9342 124.617 74.5089 123.374C74.6788 123.226 74.8879 123.131 75.1108 123.1V123.1Z" fill="#263238"/>
<path d="M77.3482 49.3239C76.497 50.0262 75.6579 50.6372 74.7915 51.2634C73.9251 51.8897 73.0405 52.4794 72.1285 53.0358C71.2165 53.5921 70.2832 54.1362 69.3013 54.6257C68.2996 55.1478 67.2563 55.586 66.1823 55.9359C65.8995 56.0241 65.6229 56.1001 65.3037 56.1761C64.9917 56.2445 64.676 56.2953 64.3583 56.3281C63.7867 56.3919 63.2517 56.4162 62.7167 56.4436C61.6496 56.4922 60.5887 56.4892 59.5551 56.4831C57.4635 56.4588 55.3903 56.3585 53.3048 56.1791L53.2744 54.2761C55.3203 54.0146 57.3754 53.7866 59.4091 53.5586C60.4245 53.4462 61.4399 53.3246 62.4279 53.1938C62.9234 53.127 63.4128 53.0479 63.8627 52.9628C64.0574 52.9281 64.2502 52.8834 64.4403 52.829C64.6167 52.7682 64.8355 52.6983 65.0483 52.6162C65.9174 52.2625 66.7614 51.8501 67.5746 51.382C68.4167 50.8986 69.2557 50.3788 70.0826 49.8286C70.9095 49.2783 71.7333 48.7068 72.5511 48.1262C73.3688 47.5455 74.1805 46.9284 74.9466 46.3447L77.3482 49.3239Z" fill="#FFC3BD"/>
<path d="M79.8257 47.1601C79.4609 49.5556 74.4175 53.2188 74.4175 53.2188L70.7969 48.7287C72.3821 47.0359 74.064 45.4362 75.8342 43.9377C77.4606 42.6062 80.2209 44.5518 79.8257 47.1601Z" fill="#2F80ED"/>
<path d="M53.9734 54.4708L52.5355 53.4463L52.3774 56.6839C52.3774 56.6839 53.1739 56.6839 53.481 56.1002L53.9734 54.4708Z" fill="#FFC3BD"/>
<path d="M51.2343 52.5039L50.9395 55.6746L52.3774 56.6839L52.5354 53.4463L51.2343 52.5039Z" fill="#FFC3BD"/>
<path opacity="0.2" d="M74.2168 117.78L74.6971 120.747L77.2355 120.461L76.7552 117.494L74.2168 117.78Z" fill="#2F80ED"/>
<path opacity="0.2" d="M88.4231 117.932H85.8877L86.213 120.959H88.7483L88.4231 117.932Z" fill="#2F80ED"/>
<path d="M88.4592 44.0131C88.648 44.0552 88.8265 44.1347 88.984 44.2469C89.1415 44.3591 89.2749 44.5018 89.3764 44.6664C89.4779 44.8311 89.5453 45.0144 89.5747 45.2056C89.6041 45.3967 89.5949 45.5918 89.5476 45.7794C88.9979 48.0623 88.5837 50.3757 88.3072 52.7075C88.0671 54.6714 87.9242 56.5471 87.8361 58.2464C87.6233 62.2288 87.7114 65.2658 87.5928 66.2963L74.0679 65.36C72.6938 54.5984 74.302 47.728 75.2079 44.9403C75.3474 44.5062 75.607 44.1204 75.9568 43.8277C76.3065 43.535 76.7319 43.3474 77.1839 43.2866C77.7037 43.2197 78.3239 43.1528 78.9805 43.1133C79.2085 43.1133 79.4426 43.092 79.6767 43.0859C81.6007 43.1044 83.5221 43.2333 85.4314 43.472C85.7932 43.5146 86.158 43.5693 86.5137 43.624C87.222 43.7487 87.8999 43.8885 88.4592 44.0131Z" fill="#263238"/>
<path d="M85.3162 36.9697C84.8237 38.7937 84.2248 42.156 85.4317 43.4814C82.2975 45.5912 80.2971 48.5582 79.7195 47.9137C79.4155 47.5763 79.2879 43.6577 79.6831 43.0801C81.7807 42.7305 81.8354 41.1984 81.577 39.7361L85.3162 36.9697Z" fill="#FFC3BD"/>
<path d="M85.1881 42.7246C85.1881 42.7246 80.0779 44.9864 79.4121 50.0389C80.8166 48.4094 83.9265 46.6371 83.9265 46.6371L82.5555 46.2449C83.4269 45.9137 84.3292 45.6703 85.2489 45.5184C85.0969 44.8192 85.9086 43.4269 85.9086 43.4269L85.1881 42.7246Z" fill="#2F80ED"/>
<path d="M80.5796 42.6426C80.5796 42.6426 81.2575 45.5306 79.4031 50.0389C79.1143 48.3183 77.9014 45.4394 77.9014 45.4394L79.1538 45.7768C79.1538 45.7768 79.09 45.1962 78.0777 44.421C78.4546 43.6975 79.6342 42.8432 79.6342 42.8432L80.5796 42.6426Z" fill="#2F80ED"/>
<path opacity="0.2" d="M83.7961 38.0977L81.583 39.7332C81.6495 40.0738 81.6851 40.4197 81.6894 40.7668C82.4859 40.709 83.6289 39.9186 83.7688 39.0978C83.8387 38.7689 83.848 38.4299 83.7961 38.0977Z" fill="#2F80ED"/>
<path d="M78.8225 31.6862C77.5852 31.7379 76.9042 33.8689 78.1567 35.6382C79.4092 37.4075 80.4854 31.6163 78.8225 31.6862Z" fill="#263238"/>
<path d="M84.9176 33.5619C85.0636 36.073 85.2764 37.5352 84.1728 38.964C82.51 41.1163 79.2936 40.3472 78.3968 37.9304C77.5943 35.7538 77.4848 32.0115 79.8104 30.7286C80.3209 30.4424 80.8961 30.2914 81.4813 30.29C82.0666 30.2887 82.6424 30.437 83.1542 30.7209C83.666 31.0049 84.0967 31.4149 84.4053 31.9122C84.7139 32.4094 84.8903 32.9773 84.9176 33.5619V33.5619Z" fill="#FFC3BD"/>
<path d="M85.2858 35.4893C83.3827 34.2733 82.7109 32.6712 82.565 31.8656C81.8262 32.0389 78.16 33.7261 77.0322 31.8656C75.9043 30.0052 77.3362 28.9108 79.4338 30.0568C78.5005 28.4092 79.3486 27.6036 82.2822 27.5306C85.2158 27.4576 84.8206 29.16 84.8206 29.16C84.8206 29.16 87.0398 28.1933 87.8272 29.8957C88.7362 31.8535 87.0581 35.1944 85.2858 35.4893Z" fill="#263238"/>
<path d="M84.3188 28.7099C84.3462 28.7099 85.4285 28.9713 86.6779 27.7158C86.456 28.7859 84.5164 29.5003 84.5164 29.5003L84.3188 28.7099Z" fill="#263238"/>
<path d="M85.775 32.3851C84.6076 31.9808 83.191 33.7136 83.7139 35.8051C84.2367 37.8967 87.3527 32.9293 85.775 32.3851Z" fill="#263238"/>
<path d="M86.4376 35.6505C86.3851 35.9593 86.2722 36.2547 86.1053 36.5197C85.9383 36.7847 85.7207 37.0142 85.4648 37.1948C84.7777 37.6751 84.1576 37.1279 84.118 36.3345C84.0816 35.6201 84.3977 34.5105 85.1972 34.3463C85.9968 34.1822 86.5622 34.8844 86.4376 35.6505Z" fill="#FFC3BD"/>
<path d="M77.883 93.909C78.491 86.4975 82.9598 65.9744 82.9598 65.9744L74.0678 65.3604C74.0678 65.3604 70.6387 85.7283 70.3773 93.4621C70.1037 101.503 73.3382 119.369 73.3382 119.369L77.5942 118.883C77.5942 118.883 77.269 101.354 77.883 93.909Z" fill="#2F80ED"/>
<path opacity="0.5" d="M77.883 93.909C78.491 86.4975 82.9598 65.9744 82.9598 65.9744L74.0678 65.3604C74.0678 65.3604 70.6387 85.7283 70.3773 93.4621C70.1037 101.503 73.3382 119.369 73.3382 119.369L77.5942 118.883C77.5942 118.883 77.269 101.354 77.883 93.909Z" fill="white"/>
<path opacity="0.2" d="M79.6097 72.9238C77.8161 75.216 77.7857 83.2598 78.4788 89.2121C79.1385 84.9197 80.1782 79.4842 81.0932 74.9241L79.6097 72.9238Z" fill="#2F80ED"/>
<path d="M78.8652 65.6885C78.8652 65.6885 79.8259 87.388 80.896 94.7357C82.0664 102.783 85.0425 120.384 85.0425 120.384H89.6846C89.6846 120.384 88.9216 103.819 88.3075 95.9122C87.6113 86.9077 87.5931 66.3086 87.5931 66.3086L78.8652 65.6885Z" fill="#2F80ED"/>
<path opacity="0.5" d="M78.8652 65.6885C78.8652 65.6885 79.8259 87.388 80.896 94.7357C82.0664 102.783 85.0425 120.384 85.0425 120.384H89.6846C89.6846 120.384 88.9216 103.819 88.3075 95.9122C87.6113 86.9077 87.5931 66.3086 87.5931 66.3086L78.8652 65.6885Z" fill="white"/>
<path d="M84.4863 120.473H89.9522V118.841L83.8418 118.734L84.4863 120.473Z" fill="#2F80ED"/>
<path d="M73.1499 119.842L78.2328 119.265L78.0473 117.623L72.3564 118.179L73.1499 119.842Z" fill="#2F80ED"/>
<path d="M81.2211 34.7115C81.2455 34.9152 81.1573 35.0946 81.0235 35.1098C80.8898 35.125 80.7651 34.973 80.7378 34.7693C80.7104 34.5656 80.8016 34.3893 80.9354 34.3741C81.0691 34.3589 81.1968 34.5109 81.2211 34.7115Z" fill="#263238"/>
<path d="M78.9321 34.9879C78.9564 35.1916 78.8683 35.3679 78.7345 35.3862C78.6007 35.4044 78.4761 35.2494 78.4518 35.0457C78.4275 34.842 78.5156 34.6657 78.6463 34.6505C78.7771 34.6353 78.9017 34.7842 78.9321 34.9879Z" fill="#263238"/>
<path d="M79.6678 35.0029C79.4994 35.6521 79.2426 36.275 78.9048 36.8543C79.0559 36.9366 79.2231 36.985 79.3948 36.996C79.5665 37.007 79.7385 36.9804 79.8988 36.9181L79.6678 35.0029Z" fill="#ED847E"/>
<path d="M81.8441 33.8839C81.823 33.8907 81.8004 33.8915 81.7789 33.8861C81.7574 33.8808 81.7379 33.8695 81.7225 33.8535C81.6205 33.7428 81.4939 33.6576 81.3529 33.6048C81.2119 33.552 81.0604 33.5331 80.9108 33.5495C80.8933 33.5546 80.8749 33.5556 80.8569 33.5526C80.8389 33.5496 80.8219 33.5425 80.807 33.532C80.7921 33.5215 80.7798 33.5078 80.7709 33.4919C80.762 33.476 80.7569 33.4583 80.7557 33.4401C80.7522 33.4245 80.752 33.4083 80.7551 33.3926C80.7582 33.3768 80.7645 33.3619 80.7736 33.3488C80.7828 33.3356 80.7945 33.3245 80.8082 33.3162C80.8219 33.3078 80.8372 33.3024 80.853 33.3003C81.0417 33.2753 81.2337 33.2962 81.4126 33.3613C81.5915 33.4264 81.752 33.5338 81.8805 33.6742C81.8919 33.6852 81.901 33.6985 81.9072 33.7131C81.9134 33.7277 81.9166 33.7434 81.9166 33.7593C81.9166 33.7752 81.9134 33.7909 81.9072 33.8055C81.901 33.8201 81.8919 33.8334 81.8805 33.8444C81.8711 33.8598 81.8587 33.8733 81.8441 33.8839V33.8839Z" fill="#263238"/>
<path d="M80.9627 37.7296C81.2522 37.6684 81.5226 37.5384 81.7512 37.3505C81.9798 37.1627 82.1598 36.9226 82.276 36.6504C82.2819 36.6347 82.2814 36.6173 82.2746 36.6019C82.2678 36.5865 82.2552 36.5745 82.2395 36.5683C82.223 36.5624 82.2048 36.5633 82.1888 36.5707C82.1729 36.5781 82.1605 36.5914 82.1544 36.6079C82.0437 36.8572 81.876 37.0771 81.6648 37.2497C81.4536 37.4224 81.2047 37.543 80.9384 37.6019C80.922 37.6069 80.908 37.6177 80.899 37.6322C80.8901 37.6468 80.8868 37.6641 80.8897 37.681C80.8945 37.6962 80.9044 37.7093 80.9176 37.7182C80.9309 37.727 80.9468 37.7311 80.9627 37.7296Z" fill="#263238"/>
<path d="M77.8466 34.3159C77.8232 34.3251 77.7971 34.3251 77.7737 34.3159C77.7437 34.3055 77.7189 34.2838 77.7047 34.2554C77.6905 34.227 77.688 34.1942 77.6977 34.1639C77.7559 33.9823 77.8566 33.8172 77.9914 33.6824C78.1262 33.5476 78.2913 33.4469 78.4729 33.3887C78.4883 33.3846 78.5043 33.3837 78.5201 33.386C78.5358 33.3882 78.5509 33.3936 78.5645 33.4018C78.5782 33.4101 78.59 33.421 78.5993 33.4338C78.6086 33.4467 78.6153 33.4614 78.6188 33.4769C78.6229 33.4919 78.6239 33.5075 78.6218 33.5229C78.6197 33.5383 78.6145 33.5531 78.6066 33.5664C78.5987 33.5797 78.5881 33.5913 78.5756 33.6005C78.5631 33.6097 78.5488 33.6162 78.5337 33.6198V33.6198C78.3919 33.6665 78.263 33.7458 78.1574 33.8514C78.0518 33.957 77.9724 34.0859 77.9257 34.2278C77.9224 34.2485 77.9131 34.2678 77.8991 34.2834C77.8851 34.2991 77.8669 34.3103 77.8466 34.3159Z" fill="#263238"/>
<path d="M85.4708 123.952C85.2985 123.964 85.127 123.918 84.9844 123.821C84.9409 123.784 84.9069 123.737 84.8852 123.684C84.8635 123.631 84.8548 123.574 84.8597 123.517C84.859 123.482 84.8683 123.447 84.8866 123.417C84.9049 123.387 84.9315 123.362 84.9631 123.347C85.2428 123.201 86.0605 123.705 86.1517 123.763C86.1624 123.769 86.1708 123.778 86.1758 123.789C86.1807 123.8 86.1819 123.812 86.1791 123.824C86.1775 123.836 86.1722 123.847 86.164 123.856C86.1559 123.864 86.1452 123.87 86.1335 123.873C85.9163 123.924 85.694 123.95 85.4708 123.952V123.952ZM85.0938 123.426C85.0677 123.425 85.0417 123.43 85.0178 123.441C85.0051 123.447 84.9946 123.458 84.9876 123.47C84.9806 123.482 84.9773 123.497 84.9783 123.511C84.9728 123.551 84.9774 123.592 84.9917 123.631C85.006 123.669 85.0296 123.703 85.0604 123.73C85.2002 123.845 85.5316 123.863 85.9724 123.775C85.705 123.603 85.4066 123.484 85.0938 123.426Z" fill="#2F80ED"/>
<path d="M86.1214 123.858C86.1115 123.861 86.101 123.861 86.091 123.858C85.8296 123.715 85.3219 123.161 85.3767 122.882C85.3857 122.838 85.4096 122.798 85.4445 122.77C85.4793 122.741 85.523 122.725 85.5682 122.725C85.6137 122.718 85.66 122.722 85.7041 122.735C85.7481 122.748 85.7888 122.77 85.8235 122.8C86.1275 123.04 86.1792 123.77 86.1792 123.8C86.1811 123.811 86.1794 123.822 86.1745 123.832C86.1696 123.842 86.1616 123.85 86.1518 123.855C86.1422 123.859 86.1317 123.86 86.1214 123.858V123.858ZM85.6198 122.834H85.5955C85.5165 122.834 85.5104 122.879 85.5074 122.894C85.4739 123.061 85.8114 123.479 86.0576 123.676C86.0395 123.388 85.9334 123.112 85.7536 122.885C85.7165 122.853 85.6691 122.835 85.6198 122.834V122.834Z" fill="#2F80ED"/>
<path d="M74.9041 123.474C74.5089 123.601 73.7976 123.778 73.4936 123.568C73.4487 123.537 73.4122 123.496 73.3872 123.447C73.3623 123.399 73.3497 123.345 73.3507 123.291C73.3481 123.258 73.3541 123.225 73.3679 123.196C73.3818 123.166 73.403 123.14 73.4297 123.121C73.7155 122.92 74.7886 123.315 74.9071 123.361C74.9186 123.366 74.9285 123.374 74.9355 123.384C74.9426 123.394 74.9464 123.406 74.9467 123.419C74.9465 123.431 74.9422 123.443 74.9345 123.453C74.9268 123.463 74.9162 123.47 74.9041 123.474V123.474ZM73.5027 123.212C73.4921 123.22 73.4838 123.231 73.4785 123.243C73.4732 123.255 73.471 123.269 73.4723 123.282C73.4716 123.318 73.4799 123.353 73.4963 123.385C73.5128 123.417 73.5369 123.444 73.5665 123.464C73.7368 123.586 74.1532 123.562 74.7004 123.407C74.2596 123.27 73.679 123.121 73.5027 123.212Z" fill="#2F80ED"/>
<path d="M74.9038 123.476C74.8882 123.482 74.8708 123.482 74.8551 123.476C74.536 123.375 73.8732 122.896 73.8884 122.606C73.8884 122.536 73.928 122.448 74.0891 122.414C74.1476 122.4 74.2084 122.399 74.2676 122.41C74.3267 122.421 74.3829 122.444 74.4326 122.478C74.7822 122.707 74.9281 123.393 74.9342 123.393C74.9359 123.404 74.9352 123.415 74.932 123.425C74.9288 123.435 74.9233 123.444 74.9159 123.451L74.9038 123.476ZM74.0496 122.56C74.01 122.582 74.007 122.606 74.007 122.618C74.007 122.792 74.4569 123.174 74.7883 123.326C74.7272 123.041 74.5796 122.782 74.3657 122.585C74.3301 122.559 74.2894 122.542 74.2464 122.533C74.2034 122.525 74.159 122.526 74.1164 122.536C74.0931 122.539 74.0705 122.547 74.0496 122.557V122.56Z" fill="#2F80ED"/>
<path d="M90.5933 47.668C90.5295 48.6591 90.414 49.5802 90.2893 50.5317C90.1647 51.4832 90.0066 52.4165 89.8272 53.3589C89.4743 55.2838 88.9524 57.1739 88.2677 59.0072L87.9637 59.7155L87.8877 59.8919L87.8695 59.9375L87.8391 60.0043L87.7479 60.1928C87.633 60.4117 87.4922 60.6158 87.3284 60.8008C87.0667 61.0994 86.7588 61.3539 86.4164 61.5547C86.1387 61.7213 85.8467 61.8627 85.5439 61.9773C84.5399 62.34 83.49 62.56 82.4248 62.6309C80.4894 62.7745 78.5439 62.7021 76.6245 62.4151L76.6944 60.512L78.0351 60.36C78.485 60.3083 78.9319 60.2384 79.3757 60.1776C80.2634 60.0469 81.142 59.901 81.981 59.7064C82.7547 59.5492 83.5068 59.3001 84.2215 58.9647C84.4135 58.8832 84.5818 58.7546 84.7109 58.5907C84.7109 58.5451 84.6228 58.7367 84.7352 58.4327L84.9359 57.8459C85.4275 56.1652 85.8034 54.4527 86.0607 52.7205C86.2066 51.8389 86.3282 50.9482 86.4498 50.0544C86.5714 49.1607 86.6656 48.2517 86.7538 47.3975L90.5933 47.668Z" fill="#FFC3BD"/>
<path d="M90.8183 45.8312C92.0586 47.9106 91.0007 54.4527 91.0007 54.4527L84.4951 53.2367C84.4951 53.2367 84.1424 49.4914 85.3828 46.6155C86.7295 43.4965 89.3165 43.308 90.8183 45.8312Z" fill="#2F80ED"/>
<path d="M74.8828 66.364L71.4324 50.3128C71.2673 49.6271 70.8834 49.0138 70.3388 48.5657C69.7941 48.1176 69.1184 47.859 68.4137 47.8291H55.1958C55.9002 47.86 56.5754 48.1189 57.1199 48.5669C57.6643 49.0148 58.0485 49.6276 58.2145 50.3128L61.6619 66.364C61.8279 67.0492 62.2121 67.6619 62.7565 68.1099C63.301 68.5578 63.9762 68.8168 64.6806 68.8477H77.9016C77.197 68.8172 76.5215 68.5585 75.977 68.1105C75.4325 67.6624 75.0484 67.0494 74.8828 66.364V66.364Z" fill="#263238"/>
<path opacity="0.7" d="M74.8828 66.364L71.4324 50.3128C71.2673 49.6271 70.8834 49.0138 70.3388 48.5657C69.7941 48.1176 69.1184 47.859 68.4137 47.8291H55.1958C55.9002 47.86 56.5754 48.1189 57.1199 48.5669C57.6643 49.0148 58.0485 49.6276 58.2145 50.3128L61.6619 66.364C61.8279 67.0492 62.2121 67.6619 62.7565 68.1099C63.301 68.5578 63.9762 68.8168 64.6806 68.8477H77.9016C77.197 68.8172 76.5215 68.5585 75.977 68.1105C75.4325 67.6624 75.0484 67.0494 74.8828 66.364V66.364Z" fill="#2F80ED"/>
<path d="M50.0387 67.1661L49.6997 70.9326L50.0037 70.96L50.3427 67.1934L50.0387 67.1661Z" fill="#2F80ED"/>
<path d="M49.3564 72.7529L49.2109 74.3301L49.5137 74.358L49.6591 72.7809L49.3564 72.7529Z" fill="#2F80ED"/>
<path d="M55.1957 47.8291H68.4136C67.7369 47.8417 67.0882 48.101 66.5894 48.5584C66.0905 49.0158 65.776 49.6397 65.705 50.3128L62.2758 87.6075C62.2041 88.2808 61.889 88.9047 61.3896 89.3621C60.8903 89.8194 60.2412 90.0787 59.5642 90.0912H51.3136C50.9958 90.0971 50.6804 90.0351 50.3885 89.9092C50.0966 89.7834 49.835 89.5966 49.6211 89.3615C49.4072 89.1263 49.2461 88.8482 49.1484 88.5457C49.0508 88.2432 49.0189 87.9233 49.0549 87.6075L52.484 50.3128C52.5557 49.6395 52.8709 49.0155 53.3702 48.5582C53.8695 48.1009 54.5187 47.8416 55.1957 47.8291V47.8291Z" fill="#2F80ED"/>
<path d="M57.3054 87.6084C57.2694 87.9242 57.3013 88.2441 57.3989 88.5466C57.4966 88.8491 57.6577 89.1272 57.8716 89.3624C58.0855 89.5976 58.3471 89.7843 58.639 89.9101C58.9309 90.036 59.2463 90.098 59.5641 90.0921H46.3432C46.0255 90.0981 45.7101 90.0361 45.4184 89.9102C45.1266 89.7843 44.8652 89.5975 44.6515 89.3623C44.4379 89.1271 44.277 88.8489 44.1798 88.5464C44.0825 88.2439 44.051 87.9241 44.0875 87.6084H57.3054Z" fill="#263238"/>
<path opacity="0.7" d="M57.3054 87.6084C57.2694 87.9242 57.3013 88.2441 57.3989 88.5466C57.4966 88.8491 57.6577 89.1272 57.8716 89.3624C58.0855 89.5976 58.3471 89.7843 58.639 89.9101C58.9309 90.036 59.2463 90.098 59.5641 90.0921H46.3432C46.0255 90.0981 45.7101 90.0361 45.4184 89.9102C45.1266 89.7843 44.8652 89.5975 44.6515 89.3623C44.4379 89.1271 44.277 88.8489 44.1798 88.5464C44.0825 88.2439 44.051 87.9241 44.0875 87.6084H57.3054Z" fill="#2F80ED"/>
<g opacity="0.5">
<path opacity="0.5" d="M63.4281 52.009H54.4662C54.3972 52.0099 54.3288 51.9961 54.2655 51.9685C54.2022 51.9409 54.1456 51.9001 54.0993 51.849C54.053 51.7978 54.0181 51.7373 53.997 51.6716C53.9759 51.6059 53.969 51.5365 53.9767 51.4679C53.9929 51.3216 54.0615 51.1861 54.17 51.0866C54.2785 50.9871 54.4193 50.9303 54.5665 50.9268H63.5132C63.5822 50.9259 63.6506 50.9398 63.7139 50.9674C63.7771 50.995 63.8338 51.0357 63.8801 51.0869C63.9264 51.1381 63.9612 51.1985 63.9824 51.2642C64.0035 51.3299 64.0104 51.3993 64.0026 51.4679V51.4679C63.9869 51.6117 63.9204 51.7452 63.8151 51.8444C63.7098 51.9436 63.5726 52.0019 63.4281 52.009Z" fill="white"/>
<path opacity="0.5" d="M63.1483 54.9339H54.2016C54.1324 54.9352 54.0636 54.9217 54 54.8943C53.9364 54.8669 53.8794 54.8262 53.8327 54.775C53.7861 54.7237 53.751 54.6631 53.7296 54.5972C53.7083 54.5313 53.7013 54.4616 53.7092 54.3928V54.3928C53.7253 54.2465 53.794 54.111 53.9024 54.0115C54.0109 53.912 54.1518 53.8552 54.2989 53.8516H63.2456C63.3149 53.8503 63.3836 53.8638 63.4473 53.8913C63.5109 53.9187 63.5679 53.9593 63.6145 54.0106C63.6612 54.0618 63.6963 54.1224 63.7176 54.1883C63.7389 54.2542 63.7459 54.3239 63.7381 54.3928C63.722 54.5391 63.6533 54.6746 63.5448 54.7741C63.4364 54.8736 63.2955 54.9304 63.1483 54.9339Z" fill="white"/>
<path opacity="0.5" d="M60.6919 57.8607H53.9339C53.8649 57.8615 53.7965 57.8477 53.7333 57.8201C53.67 57.7925 53.6134 57.7518 53.5671 57.7006C53.5208 57.6494 53.4859 57.5889 53.4648 57.5232C53.4436 57.4575 53.4367 57.3881 53.4445 57.3195C53.4606 57.1732 53.5293 57.0377 53.6378 56.9382C53.7462 56.8387 53.8871 56.7819 54.0343 56.7784H60.7861C60.8554 56.7771 60.9241 56.7906 60.9877 56.818C61.0513 56.8454 61.1084 56.8861 61.155 56.9373C61.2016 56.9886 61.2368 57.0492 61.2581 57.1151C61.2794 57.181 61.2864 57.2507 61.2786 57.3195C61.2625 57.4653 61.1943 57.6004 61.0864 57.6998C60.9786 57.7993 60.8385 57.8564 60.6919 57.8607V57.8607Z" fill="white"/>
<path opacity="0.5" d="M55.9587 60.8009H53.6696C53.6006 60.8022 53.5321 60.7887 53.4687 60.7615C53.4054 60.7343 53.3485 60.6939 53.3019 60.643C53.2553 60.5921 53.2201 60.5319 53.1986 60.4664C53.1771 60.4008 53.1697 60.3314 53.1771 60.2628V60.2628C53.1932 60.1165 53.2619 59.9811 53.3704 59.8815C53.4788 59.782 53.6197 59.7252 53.7668 59.7217H56.059C56.128 59.7208 56.1964 59.7347 56.2597 59.7623C56.3229 59.7899 56.3796 59.8306 56.4259 59.8818C56.4722 59.933 56.507 59.9934 56.5282 60.0591C56.5493 60.1248 56.5562 60.1943 56.5484 60.2628V60.2628C56.5316 60.4086 56.4626 60.5433 56.3542 60.6422C56.2459 60.7411 56.1054 60.7975 55.9587 60.8009V60.8009Z" fill="white"/>
<path opacity="0.5" d="M62.3487 63.7132H53.3959C53.3268 63.7141 53.2584 63.7002 53.1952 63.6726C53.1319 63.645 53.0753 63.6043 53.029 63.5531C52.9827 63.5019 52.9478 63.4415 52.9267 63.3758C52.9056 63.3101 52.8986 63.2406 52.9064 63.1721C52.9226 63.0258 52.9912 62.8903 53.0997 62.7908C53.2081 62.6913 53.349 62.6345 53.4962 62.6309H62.4399C62.5091 62.6296 62.5779 62.6431 62.6415 62.6705C62.7051 62.698 62.7621 62.7386 62.8088 62.7899C62.8554 62.8411 62.8905 62.9017 62.9118 62.9676C62.9332 63.0335 62.9401 63.1032 62.9323 63.1721V63.1721C62.9163 63.3174 62.8485 63.452 62.7414 63.5514C62.6342 63.6508 62.4947 63.7082 62.3487 63.7132Z" fill="white"/>
<path opacity="0.5" d="M58.5641 66.6409H53.1377C53.0684 66.6422 52.9997 66.6287 52.936 66.6013C52.8724 66.5739 52.8154 66.5332 52.7688 66.4819C52.7221 66.4307 52.687 66.3701 52.6657 66.3042C52.6444 66.2383 52.6374 66.1686 52.6452 66.0997V66.0997C52.6613 65.9534 52.73 65.818 52.8385 65.7185C52.9469 65.6189 53.0878 65.5622 53.2349 65.5586H58.6583C58.7274 65.5578 58.7959 65.5716 58.8593 65.5992C58.9227 65.6268 58.9795 65.6675 59.0261 65.7186C59.0726 65.7697 59.1077 65.8301 59.1292 65.8958C59.1507 65.9615 59.1581 66.031 59.1508 66.0997V66.0997C59.1347 66.2455 59.0665 66.3806 58.9586 66.4801C58.8508 66.5795 58.7107 66.6366 58.5641 66.6409V66.6409Z" fill="white"/>
<path opacity="0.5" d="M61.8167 69.5647H52.87C52.801 69.5656 52.7326 69.5517 52.6693 69.5241C52.6061 69.4965 52.5494 69.4558 52.5031 69.4046C52.4568 69.3534 52.4219 69.293 52.4008 69.2273C52.3797 69.1616 52.3728 69.0922 52.3805 69.0236C52.3967 68.8773 52.4654 68.7418 52.5738 68.6423C52.6823 68.5428 52.8231 68.486 52.9703 68.4825H61.9079C61.977 68.4816 62.0455 68.4955 62.1089 68.523C62.1723 68.5506 62.2291 68.5913 62.2757 68.6424C62.3222 68.6935 62.3573 68.7539 62.3788 68.8196C62.4003 68.8853 62.4077 68.9548 62.4004 69.0236C62.3844 69.1689 62.3166 69.3035 62.2094 69.4029C62.1022 69.5023 61.9628 69.5597 61.8167 69.5647Z" fill="white"/>
<path opacity="0.5" d="M59.3573 72.4925H52.6054C52.5362 72.4938 52.4674 72.4803 52.4038 72.4529C52.3402 72.4255 52.2832 72.3848 52.2365 72.3336C52.1899 72.2823 52.1548 72.2217 52.1335 72.1558C52.1121 72.0899 52.1052 72.0202 52.113 71.9514V71.9514C52.1291 71.8051 52.1978 71.6696 52.3062 71.5701C52.4147 71.4706 52.5556 71.4138 52.7027 71.4102H59.4546C59.5238 71.4089 59.5926 71.4224 59.6562 71.4498C59.7198 71.4773 59.7768 71.5179 59.8235 71.5692C59.8701 71.6204 59.9052 71.681 59.9265 71.7469C59.9479 71.8128 59.9548 71.8825 59.947 71.9514V71.9514C59.9309 72.0977 59.8622 72.2331 59.7538 72.3327C59.6453 72.4322 59.5044 72.489 59.3573 72.4925V72.4925Z" fill="white"/>
<path opacity="0.5" d="M54.6302 75.4202H52.338C52.2689 75.421 52.2004 75.4072 52.137 75.3796C52.0736 75.3521 52.0168 75.3114 51.9702 75.2602C51.9237 75.2091 51.8885 75.1487 51.867 75.083C51.8456 75.0173 51.8382 74.9478 51.8455 74.8791V74.8791C51.8617 74.7323 51.9308 74.5964 52.0399 74.4968C52.149 74.3972 52.2906 74.3408 52.4383 74.338H54.7274C54.7967 74.3367 54.8654 74.3502 54.9291 74.3776C54.9927 74.405 55.0497 74.4457 55.0963 74.4969C55.143 74.5481 55.1781 74.6087 55.1994 74.6746C55.2207 74.7406 55.2277 74.8103 55.2199 74.8791V74.8791C55.2038 75.0254 55.1351 75.1609 55.0266 75.2604C54.9182 75.3599 54.7773 75.4167 54.6302 75.4202V75.4202Z" fill="white"/>
<path opacity="0.5" d="M61.0174 78.345H52.0737C52.0044 78.3463 51.9357 78.3328 51.8721 78.3054C51.8085 78.278 51.7514 78.2373 51.7048 78.186C51.6582 78.1348 51.623 78.0742 51.6017 78.0083C51.5804 77.9424 51.5734 77.8727 51.5812 77.8039V77.8039C51.5974 77.6575 51.666 77.5221 51.7745 77.4226C51.883 77.3231 52.0238 77.2663 52.171 77.2627H61.1177C61.1867 77.2619 61.2551 77.2757 61.3184 77.3033C61.3816 77.3309 61.4383 77.3716 61.4846 77.4228C61.5309 77.474 61.5657 77.5344 61.5869 77.6001C61.608 77.6658 61.6149 77.7353 61.6071 77.8039C61.591 77.9502 61.5223 78.0856 61.4139 78.1851C61.3054 78.2847 61.1645 78.3414 61.0174 78.345Z" fill="white"/>
<path opacity="0.5" d="M57.2295 81.2718H51.8061C51.7369 81.2731 51.6681 81.2596 51.6045 81.2322C51.5409 81.2048 51.4839 81.1641 51.4372 81.1129C51.3906 81.0616 51.3555 81.001 51.3341 80.9351C51.3128 80.8692 51.3058 80.7995 51.3136 80.7307V80.7307C51.3298 80.5844 51.3985 80.4489 51.5069 80.3494C51.6154 80.2499 51.7563 80.1931 51.9034 80.1895H57.3268C57.396 80.1882 57.4648 80.2017 57.5284 80.2291C57.592 80.2566 57.649 80.2972 57.6957 80.3485C57.7423 80.3997 57.7774 80.4603 57.7988 80.5262C57.8201 80.5921 57.8271 80.6618 57.8192 80.7307V80.7307C57.8031 80.877 57.7344 81.0124 57.626 81.1119C57.5175 81.2115 57.3766 81.2683 57.2295 81.2718Z" fill="white"/>
<path opacity="0.5" d="M60.4852 84.2091H51.5415C51.4722 84.2104 51.4035 84.1969 51.3399 84.1695C51.2762 84.1421 51.2192 84.1014 51.1726 84.0502C51.1259 83.999 51.0908 83.9384 51.0695 83.8724C51.0482 83.8065 51.0412 83.7368 51.049 83.668V83.668C51.0658 83.5222 51.1348 83.3875 51.2432 83.2886C51.3516 83.1897 51.4921 83.1334 51.6388 83.1299H60.5855C60.6542 83.1291 60.7223 83.1428 60.7853 83.1703C60.8484 83.1977 60.9048 83.2381 60.9511 83.289C60.9973 83.3398 61.0323 83.3999 61.0536 83.4652C61.075 83.5305 61.0822 83.5997 61.0749 83.668V83.668C61.0588 83.8143 60.9901 83.9498 60.8816 84.0493C60.7732 84.1488 60.6323 84.2056 60.4852 84.2091Z" fill="white"/>
</g>
<path d="M77.482 60.6852L75.5394 58.998L74.6274 62.1049C74.6274 62.1049 76.6004 63.175 77.2814 62.1931L77.482 60.6852Z" fill="#FFC3BD"/>
<path d="M73.4268 58.876L72.7944 61.4813L74.6306 62.1044L75.5396 58.9976L73.4268 58.876Z" fill="#FFC3BD"/>
</g>
<defs>
<clipPath id="clip0_86_6608">
<rect width="152" height="152" fill="white" transform="translate(0.5)"/>
</clipPath>
</defs>
</svg>
