<svg width="223" height="223" viewBox="0 0 223 223" fill="none" xmlns="http://www.w3.org/2000/svg">
<path d="M105.702 150.659H19.5842C18.9095 150.657 18.2629 150.389 17.7863 149.911C17.3097 149.434 17.042 148.787 17.042 148.112V27.0541C17.0479 26.3834 17.3182 25.742 17.7941 25.2694C18.2701 24.7967 18.9134 24.5309 19.5842 24.5298H105.702C106.378 24.5298 107.026 24.7981 107.503 25.2757C107.981 25.7533 108.249 26.401 108.249 27.0764V148.112C108.249 148.787 107.981 149.435 107.503 149.913C107.026 150.39 106.378 150.659 105.702 150.659ZM19.5842 24.619C18.9391 24.6202 18.3209 24.8772 17.8652 25.3338C17.4094 25.7904 17.1535 26.4091 17.1535 27.0541V148.112C17.1535 148.757 17.4094 149.376 17.8652 149.832C18.3209 150.289 18.9391 150.546 19.5842 150.547H105.702C106.348 150.546 106.967 150.289 107.423 149.833C107.879 149.376 108.136 148.757 108.138 148.112V27.0541C108.136 26.4087 107.879 25.79 107.423 25.3335C106.967 24.8771 106.348
 24.6202 105.702 24.619H19.5842Z" fill="#EBEBEB"/>
<path d="M202.176 150.659H116.053C115.378 150.657 114.731 150.389 114.254 149.911C113.777 149.434 113.508 148.787 113.507 148.112V27.0541C113.514 26.383 113.785 25.7416 114.262 25.2691C114.739 24.7965 115.382 24.5309 116.053 24.5298H202.176C202.846 24.5321 203.488 24.7984 203.963 25.2709C204.438 25.7434 204.708 26.3841 204.714 27.0541V148.112C204.714 148.786 204.447 149.432 203.971 149.91C203.495 150.387 202.85 150.656 202.176 150.659ZM116.053 24.619C115.408 24.6202 114.789 24.8771 114.333 25.3335C113.876 25.79 113.62 26.4087 113.618 27.0541V148.112C113.62 148.757 113.876 149.376 114.333 149.833C114.789 150.289 115.408 150.546 116.053 150.547H202.176C202.822 150.546 203.44 150.289 203.897 149.833C204.353 149.376 204.61 148.757 204.611 148.112V27.0541C204.61 26.4087 204.353 25.79 203.897 25.3335C203.44 24.8771 202.822 24.6202 202.176 24.619H116.053Z" fill="#EBEBEB"/>
<path d="M200.655 177.727H185.884V177.838H200.655V177.727Z" fill="#EBEBEB"/>
<path d="M147.724 178.939H143.849V179.051H147.724V178.939Z" fill="#EBEBEB"/>
<path d="M185.438 173.587H176.879V173.699H185.438V173.587Z" fill="#EBEBEB"/>
<path d="M42.6602 174.337H23.3975V174.448H42.6602V174.337Z" fill="#EBEBEB"/>
<path d="M49.457 174.337H46.6338V174.448H49.457V174.337Z" fill="#EBEBEB"/>
<path d="M100.417 176.219H58.6357V176.33H100.417V176.219Z" fill="#EBEBEB"/>
<path d="M223 170.55H0V170.662H223V170.55Z" fill="#EBEBEB"/>
<path d="M69.1031 42.4409H16.6445V119.956H69.1031V42.4409Z" fill="#E0E0E0"/>
<path d="M71.0347 42.4409H18.5762V119.956H71.0347V42.4409Z" fill="#F0F0F0"/>
<path d="M68.3807 83.4194H21.127V115.415H68.3807V83.4194Z" fill="#EBEBEB"/>
<path d="M68.3807 45.5898H21.127V83.4196H68.3807V45.5898Z" fill="white"/>
<path d="M68.3804 45.5898H66.7168V115.416H68.3804V45.5898Z" fill="#E0E0E0"/>
<path d="M20.9795 83.424V85.1099H66.8952V83.424H20.9795Z" fill="#E0E0E0"/>
<path d="M68.3811 80.5874H20.2354V83.4195H68.3811V80.5874Z" fill="#F0F0F0"/>
<path d="M195.424 134.482H131.486C126.641 134.482 122.713 138.41 122.713 143.255V162.286C122.713 167.131 126.641 171.058 131.486 171.058H195.424C200.269 171.058 204.197 167.131 204.197 162.286V143.255C204.197 138.41 200.269 134.482 195.424 134.482Z" fill="#E0E0E0"/>
<path d="M191.128 134.75H127.19C122.345 134.75 118.417 138.678 118.417 143.523V162.554C118.417 167.399 122.345 171.326 127.19 171.326H191.128C195.973 171.326 199.901 167.399 199.901 162.554V143.523C199.901 138.678 195.973 134.75 191.128 134.75Z" fill="#F5F5F5"/>
<path d="M128.761 138.202H190.041C190.846 138.202 191.643 138.36 192.386 138.668C193.13 138.976 193.805 139.427 194.374 139.997C194.943 140.566 195.395 141.241 195.703 141.985C196.011 142.728 196.169 143.525 196.169 144.33V151.849H122.65V144.325C122.652 142.704 123.295 141.149 124.441 140.001C125.586 138.853 127.139 138.206 128.761 138.202Z" fill="#E0E0E0"/>
<path d="M122.65 153.691H196.169V161.211C196.169 162.836 195.523 164.395 194.374 165.544C193.225 166.693 191.666 167.339 190.041 167.339H128.761C127.138 167.334 125.584 166.687 124.439 165.538C123.294 164.389 122.65 162.833 122.65 161.211V153.691Z" fill="#E0E0E0"/>
<path d="M176.389 140.842H162.924V151.934H176.389V140.842Z" fill="#E6E6E6"/>
<path d="M162.924 140.842H159.477V151.934H162.924V140.842Z" fill="#F5F5F5"/>
<path d="M162.344 148.964C162.344 149.188 162.277 149.407 162.153 149.593C162.028 149.78 161.851 149.925 161.644 150.011C161.437 150.096 161.21 150.119 160.99 150.075C160.77 150.031 160.568 149.923 160.41 149.765C160.251 149.607 160.144 149.405 160.1 149.185C160.056 148.965 160.079 148.737 160.164 148.53C160.25 148.323 160.395 148.146 160.582 148.022C160.768 147.897 160.987 147.831 161.211 147.831C161.511 147.831 161.8 147.95 162.012 148.163C162.224 148.375 162.344 148.663 162.344 148.964Z" fill="#E0E0E0"/>
<path d="M179.921 139.129H169.806V151.934H179.921V139.129Z" fill="#E6E6E6"/>
<path d="M169.811 139.129H166.885V151.934H169.811V139.129Z" fill="#F5F5F5"/>
<path d="M168.347 141.993C168.901 141.993 169.351 141.544 169.351 140.989C169.351 140.435 168.901 139.986 168.347 139.986C167.793 139.986 167.344 140.435 167.344 140.989C167.344 141.544 167.793 141.993 168.347 141.993Z" fill="#E0E0E0"/>
<path d="M168.347 141.993C168.901 141.993 169.351 141.544 169.351 140.989C169.351 140.435 168.901 139.986 168.347 139.986C167.793 139.986 167.344 140.435 167.344 140.989C167.344 141.544 167.793 141.993 168.347 141.993Z" fill="#E0E0E0"/>
<path d="M181.313 140.842H172.785V151.934H181.313V140.842Z" fill="#EBEBEB"/>
<path d="M172.785 140.842H170.836V151.934H172.785V140.842Z" fill="#F5F5F5"/>
<path d="M190.95 142.72H179.765V151.939H190.95V142.72Z" fill="#E6E6E6"/>
<path d="M179.765 142.72H176.901V151.939H179.765V142.72Z" fill="#F5F5F5"/>
<path d="M193.88 141.297H185.478V151.934H193.88V141.297Z" fill="#E6E6E6"/>
<path d="M185.487 141.297H183.057V151.934H185.487V141.297Z" fill="#F5F5F5"/>
<path d="M196.12 142.72H187.958V151.939H196.12V142.72Z" fill="#E6E6E6"/>
<path d="M187.953 142.72H186.334V151.939H187.953V142.72Z" fill="#F0F0F0"/>
<path d="M144.205 155.823H133.782V166.915H144.205V155.823Z" fill="#E6E6E6"/>
<path d="M133.787 155.823H131.115V166.915H133.787V155.823Z" fill="#F5F5F5"/>
<path d="M146.935 154.111H139.107V166.915H146.935V154.111Z" fill="#E6E6E6"/>
<path d="M139.112 154.111H136.851V166.915H139.112V154.111Z" fill="#F5F5F5"/>
<path d="M179.76 155.823H169.337V166.915H179.76V155.823Z" fill="#E6E6E6"/>
<path d="M169.341 155.823H166.67V166.915H169.341V155.823Z" fill="#F5F5F5"/>
<path d="M182.489 154.111H174.662V166.915H182.489V154.111Z" fill="#E6E6E6"/>
<path d="M174.672 154.111H172.406V166.915H174.672V154.111Z" fill="#F5F5F5"/>
<path d="M148.019 155.823H141.418V166.915H148.019V155.823Z" fill="#EBEBEB"/>
<path d="M141.418 155.823H139.91V166.915H141.418V155.823Z" fill="#F5F5F5"/>
<path d="M155.475 157.701H146.818V166.92H155.475V157.701Z" fill="#E6E6E6"/>
<path d="M146.819 157.701H144.603V166.92H146.819V157.701Z" fill="#F5F5F5"/>
<path d="M157.746 156.278H151.243V166.915H157.746V156.278Z" fill="#E6E6E6"/>
<path d="M151.247 156.278H149.365V166.915H151.247V156.278Z" fill="#F5F5F5"/>
<path d="M159.481 157.701H153.161V166.92H159.481V157.701Z" fill="#E6E6E6"/>
<path d="M153.157 157.701H151.903V166.92H153.157V157.701Z" fill="#F0F0F0"/>
<path d="M151.841 123.845C151.731 123.632 151.557 123.46 151.343 123.354C151.128 123.247 150.886 123.211 150.65 123.252C150.413 123.31 150.2 123.44 150.04 123.625C149.88 123.81 149.781 124.039 149.758 124.282C149.596 124.162 149.4 124.095 149.199 124.089C148.997 124.084 148.798 124.14 148.63 124.251C148.461 124.374 148.33 124.541 148.251 124.734C148.172 124.927 148.149 125.138 148.184 125.344C148.09 125.275 147.983 125.227 147.87 125.202C147.756 125.177 147.639 125.176 147.525 125.199C147.411 125.223 147.304 125.269 147.209 125.336C147.114 125.403 147.034 125.489 146.975 125.589C146.865 125.804 146.843 126.052 146.911 126.283C146.98 126.514 147.136 126.71 147.345 126.829C147.2 126.85 147.069 126.924 146.975 127.036C146.88 127.147 146.831 127.29 146.834 127.436C146.838 127.582 146.896 127.722 146.995 127.829C147.095 127.935 147.231 128.002 147.376 128.015C147.227 128.027 147.085 128.09 146.977 128.194C146.869 128.298 146.8 128.437 146.783 128.586C146.767 128.736 146.802 128.887 146.883 129.015C146.964 129.142 147.086 129.238 147.229 129.286C147.159 129.327 147.098 129.383 147.052 129.45C147.006 129.518 146.976 129.594 146.963 129.675C146.951 129.755 146.957 129.837 146.98 129.915C147.004 129.993 147.045 130.065 147.1 130.125C147.163 130.174 147.237 130.207 147.315 130.221C147.394 130.235 147.474 130.23 147.55 130.206C147.626 130.182 147.695 130.139 147.751 130.082C147.807 130.026 147.848 129.956 147.871 129.88C147.882 129.902 147.899 129.921 147.919 129.935C147.939 129.95 147.962 129.96 147.986 129.963C148.01 129.967 148.035 129.965 148.059 129.958C148.082 129.95 148.104 129.937 148.121 129.92C148.137 129.9 148.149 129.877 148.155 129.852C148.161 129.827 148.162 129.801 148.158 129.776C148.154 129.751 148.145 129.727 148.131 129.705C148.116 129.684 148.098 129.666 148.077 129.652C148.112 129.693 148.159 129.723 148.211 129.739C148.262 129.755 148.318 129.757 148.37 129.743C148.423 129.73 148.471 129.702 148.509 129.663C148.547 129.624 148.573 129.576 148.585 129.523C148.568 129.65 148.584 129.779 148.632 129.897C148.68 130.016 148.758 130.12 148.858 130.199C148.959 130.278 149.078 130.33 149.205 130.349C149.331 130.368 149.46 130.354 149.58 130.308C149.554 130.367 149.542 130.43 149.544 130.494C149.545 130.558 149.56 130.621 149.588 130.678C149.616 130.736 149.656 130.787 149.705 130.827C149.755 130.868 149.812 130.898 149.874 130.914C150.123 130.955 150.378 130.905 150.592 130.772C150.805 130.638 151.046 130.557 151.297 130.535C151.514 130.563 151.725 130.621 151.926 130.709C152.262 130.811 152.619 130.817 152.959 130.727C153.298 130.637 153.606 130.455 153.848 130.201C153.938 130.305 154.054 130.385 154.183 130.432C154.313 130.48 154.452 130.494 154.589 130.474C154.725 130.453 154.854 130.399 154.964 130.315C155.074 130.232 155.161 130.122 155.217 129.996C155.239 130.125 155.304 130.243 155.401 130.331C155.499 130.419 155.623 130.471 155.755 130.479C155.886 130.486 156.015 130.449 156.123 130.374C156.23 130.298 156.309 130.188 156.345 130.062V130.41C156.467 130.421 156.589 130.4 156.701 130.351C156.812 130.302 156.91 130.225 156.984 130.128C157.058 130.031 157.107 129.917 157.125 129.797C157.144 129.676 157.132 129.553 157.09 129.438C157.266 129.431 157.433 129.362 157.563 129.244C157.693 129.126 157.776 128.965 157.799 128.791C157.819 128.615 157.778 128.438 157.682 128.289C157.586 128.141 157.441 128.03 157.273 127.975C157.561 127.881 157.811 127.7 157.99 127.456C158.169 127.212 158.267 126.918 158.27 126.616C158.273 126.313 158.181 126.017 158.007 125.77C157.833 125.523 157.585 125.336 157.3 125.237C157.192 125.195 157.075 125.182 156.96 125.199C156.845 125.215 156.737 125.26 156.644 125.33C156.6 125.369 156.564 125.417 156.54 125.47C156.515 125.524 156.503 125.582 156.503 125.64C156.503 125.699 156.515 125.757 156.54 125.811C156.564 125.864 156.6 125.912 156.644 125.95C156.722 125.675 156.71 125.381 156.609 125.113C156.508 124.845 156.323 124.616 156.082 124.461C155.836 124.33 155.551 124.29 155.279 124.349C155.006 124.408 154.763 124.561 154.593 124.782C154.674 124.66 154.718 124.516 154.718 124.369C154.718 124.222 154.674 124.079 154.593 123.957C154.513 123.841 154.397 123.754 154.264 123.71C154.13 123.666 153.986 123.666 153.852 123.711C153.819 123.527 153.719 123.362 153.57 123.249C153.421 123.136 153.236 123.083 153.049 123.1C152.865 123.142 152.702 123.249 152.59 123.401C152.479 123.554 152.426 123.742 152.443 123.93C152.428 123.857 152.392 123.79 152.339 123.737C152.286 123.685 152.219 123.649 152.145 123.635C152.072 123.621 151.996 123.63 151.928 123.659C151.859 123.689 151.801 123.738 151.76 123.801C151.578 123.743 151.841 123.845 151.841 123.845Z" fill="#EBEBEB"/>
<path d="M151.975 127.408C151.902 127.355 151.819 127.316 151.731 127.294C151.643 127.273 151.551 127.269 151.462 127.284C151.373 127.301 151.292 127.343 151.226 127.404C151.161 127.466 151.114 127.544 151.091 127.631C151.073 127.72 151.089 127.812 151.135 127.89C151.181 127.967 151.255 128.025 151.341 128.051C151.551 128.104 151.765 127.926 151.979 127.957C152.059 127.957 152.131 128.006 152.206 128.024C152.369 128.042 152.534 128.024 152.688 127.97C152.843 127.916 152.983 127.827 153.098 127.712C153.194 127.651 153.278 127.572 153.344 127.48C153.377 127.434 153.397 127.38 153.402 127.323C153.407 127.266 153.396 127.21 153.371 127.159C153.32 127.098 153.254 127.052 153.179 127.028C153.104 127.003 153.023 127.001 152.947 127.02C152.63 127.055 152.329 127.181 152.082 127.382L152.104 127.234L151.975 127.408Z" fill="#FAFAFA"/>
<path d="M156.493 127.141C156.413 127.074 156.321 127.026 156.221 126.998C156.172 126.983 156.119 126.982 156.069 126.995C156.02 127.009 155.975 127.036 155.94 127.074C155.904 127.135 155.893 127.207 155.908 127.277C155.923 127.346 155.963 127.407 156.02 127.449C156.137 127.527 156.272 127.573 156.413 127.582C156.56 127.605 156.738 127.609 156.809 127.484C156.831 127.436 156.835 127.382 156.823 127.33C156.811 127.279 156.783 127.233 156.743 127.199C156.66 127.133 156.564 127.085 156.462 127.06L156.493 127.141Z" fill="#FAFAFA"/>
<path d="M149.352 124.79C149.208 124.852 149.081 124.947 148.981 125.067C148.881 125.187 148.811 125.329 148.776 125.482C148.759 125.525 148.756 125.573 148.767 125.619C148.778 125.664 148.803 125.705 148.839 125.736C148.87 125.749 148.903 125.756 148.937 125.756C148.971 125.756 149.004 125.749 149.035 125.736L149.86 125.54C149.725 125.583 149.6 125.651 149.49 125.74C149.435 125.784 149.392 125.842 149.367 125.908C149.342 125.974 149.335 126.046 149.347 126.115C149.374 126.194 149.426 126.262 149.496 126.309C149.565 126.355 149.647 126.378 149.731 126.374C149.895 126.36 150.05 126.296 150.177 126.191C150.254 126.147 150.32 126.086 150.37 126.012C150.421 125.939 150.453 125.855 150.467 125.767C150.467 125.593 150.244 125.428 150.11 125.54C150.426 125.454 150.727 125.318 151.002 125.138C151.102 125.076 151.188 124.994 151.256 124.898C151.29 124.848 151.31 124.791 151.314 124.732C151.319 124.672 151.308 124.613 151.283 124.559C151.002 124.046 150.645 124.799 150.471 124.866C150.146 124.996 149.771 124.612 149.352 124.79Z" fill="#FAFAFA"/>
<path d="M148.072 126.981C148.055 127.031 148.052 127.085 148.065 127.136C148.077 127.187 148.105 127.234 148.143 127.27C148.163 127.286 148.186 127.297 148.211 127.302C148.236 127.308 148.262 127.308 148.287 127.303C148.312 127.298 148.335 127.288 148.356 127.273C148.376 127.258 148.394 127.239 148.406 127.217C148.215 127.253 148.042 127.35 147.911 127.493C147.881 127.531 147.86 127.574 147.848 127.62C147.837 127.667 147.836 127.715 147.845 127.762C147.855 127.809 147.874 127.853 147.902 127.891C147.931 127.93 147.967 127.961 148.009 127.984C148.069 127.995 148.13 127.993 148.189 127.979C148.248 127.965 148.304 127.94 148.353 127.904C148.652 127.741 148.937 127.553 149.204 127.342C149.124 127.534 149.32 127.748 149.526 127.788C149.734 127.784 149.935 127.714 150.101 127.587C150.319 127.453 150.547 127.253 150.511 127.007C150.468 126.908 150.389 126.827 150.291 126.781C150.192 126.735 150.08 126.727 149.976 126.758C149.771 126.843 149.591 126.98 149.454 127.154C149.57 126.989 149.41 126.735 149.204 126.708C149.105 126.703 149.006 126.723 148.916 126.765C148.826 126.807 148.747 126.87 148.687 126.949C148.919 126.82 148.968 126.503 148.66 126.454C148.455 126.405 148.116 126.815 148.072 126.981Z" fill="#FAFAFA"/>
<path d="M154.383 126.245C154.339 126.23 154.292 126.225 154.246 126.228C154.2 126.232 154.154 126.244 154.113 126.266C154.071 126.287 154.034 126.316 154.004 126.351C153.974 126.387 153.951 126.428 153.937 126.472C153.928 126.517 153.928 126.563 153.937 126.608C153.945 126.653 153.963 126.696 153.988 126.734C154.013 126.772 154.046 126.805 154.084 126.83C154.122 126.856 154.164 126.873 154.209 126.883C154.074 126.896 153.949 126.962 153.861 127.065C153.835 127.093 153.815 127.126 153.802 127.163C153.789 127.199 153.784 127.237 153.786 127.275C153.8 127.329 153.831 127.377 153.876 127.411C153.92 127.445 153.975 127.463 154.031 127.462C154.145 127.457 154.256 127.427 154.356 127.373C154.245 127.372 154.135 127.403 154.04 127.462C154.017 127.478 153.997 127.498 153.982 127.522C153.967 127.545 153.956 127.571 153.952 127.599C153.947 127.627 153.948 127.655 153.955 127.682C153.962 127.709 153.974 127.734 153.991 127.757C154.029 127.783 154.073 127.8 154.119 127.804C154.165 127.809 154.211 127.802 154.254 127.783C154.458 127.729 154.645 127.625 154.798 127.48C154.852 127.545 154.92 127.596 154.998 127.63C155.076 127.663 155.16 127.677 155.244 127.672C155.286 127.666 155.326 127.651 155.362 127.628C155.397 127.606 155.428 127.577 155.453 127.542C155.477 127.508 155.494 127.468 155.502 127.427C155.511 127.386 155.511 127.343 155.503 127.302C155.479 127.245 155.441 127.196 155.391 127.16C155.341 127.124 155.283 127.102 155.222 127.097C155.099 127.09 154.976 127.108 154.86 127.15C154.989 127.08 155.091 126.968 155.15 126.833C155.195 126.695 155.101 126.508 154.954 126.521C154.807 126.535 154.709 126.753 154.579 126.833C154.432 126.686 154.731 126.374 154.383 126.245Z" fill="#FAFAFA"/>
<path d="M151.435 125.562C151.348 125.633 151.28 125.725 151.238 125.83C151.195 125.935 151.181 126.048 151.194 126.16C151.194 126.285 151.227 126.408 151.29 126.516C151.353 126.624 151.443 126.713 151.551 126.775C151.628 126.799 151.71 126.807 151.79 126.797C151.87 126.787 151.947 126.76 152.016 126.717C152.085 126.675 152.144 126.619 152.189 126.552C152.234 126.485 152.265 126.409 152.278 126.329C152.295 126.167 152.261 126.003 152.181 125.86C152.101 125.717 151.979 125.602 151.832 125.531C151.768 125.505 151.699 125.494 151.63 125.5C151.561 125.505 151.495 125.527 151.435 125.562Z" fill="#FAFAFA"/>
<path d="M153.522 125.294L153.598 125.361C153.567 125.319 153.527 125.284 153.481 125.258C153.436 125.232 153.385 125.216 153.332 125.211C153.28 125.206 153.227 125.212 153.177 125.228C153.128 125.245 153.082 125.272 153.043 125.308C153.004 125.343 152.974 125.387 152.953 125.435C152.932 125.483 152.921 125.535 152.922 125.588C152.923 125.641 152.934 125.692 152.956 125.74C152.978 125.788 153.01 125.831 153.049 125.865C153.128 125.932 153.229 125.965 153.332 125.957C153.435 125.95 153.53 125.902 153.598 125.825C153.705 125.878 153.826 125.895 153.944 125.873C154.061 125.852 154.168 125.792 154.249 125.705C154.319 125.61 154.348 125.493 154.332 125.377C154.315 125.26 154.253 125.156 154.16 125.085C154.108 125.06 154.051 125.048 153.994 125.05C153.937 125.052 153.881 125.069 153.831 125.098C153.782 125.127 153.74 125.168 153.711 125.217C153.681 125.266 153.664 125.322 153.66 125.379L153.571 125.281L153.522 125.294Z" fill="#FAFAFA"/>
<path d="M155.828 125.669C155.667 125.801 155.544 125.973 155.472 126.169C155.44 126.268 155.447 126.375 155.491 126.469C155.535 126.563 155.612 126.637 155.708 126.677C155.909 126.726 156.096 126.561 156.212 126.392C156.27 126.318 156.31 126.233 156.331 126.142C156.352 126.051 156.352 125.957 156.332 125.865C156.274 125.687 156.02 125.585 155.886 125.718L155.828 125.669Z" fill="#FAFAFA"/>
<path d="M152.505 124.46C152.484 124.42 152.455 124.385 152.419 124.356C152.384 124.328 152.343 124.307 152.3 124.294C152.256 124.282 152.21 124.278 152.165 124.284C152.12 124.289 152.077 124.304 152.037 124.327C151.961 124.38 151.904 124.457 151.878 124.546C151.851 124.635 151.855 124.731 151.89 124.817C151.929 124.904 151.991 124.979 152.07 125.033C152.149 125.088 152.241 125.119 152.336 125.125C152.559 125.147 152.827 124.964 152.782 124.741C152.835 124.805 152.905 124.854 152.983 124.883C153.061 124.912 153.146 124.92 153.228 124.906C153.387 124.881 153.538 124.823 153.674 124.737C153.866 124.625 154.066 124.46 154.049 124.242C154.035 124.155 153.991 124.075 153.925 124.015C153.86 123.956 153.776 123.921 153.687 123.916C153.6 123.912 153.513 123.926 153.43 123.956C153.348 123.987 153.273 124.034 153.21 124.095C153.108 124.184 153.018 124.291 152.907 124.371C152.853 124.415 152.789 124.443 152.72 124.453C152.652 124.462 152.582 124.452 152.519 124.425L152.505 124.46Z" fill="#FAFAFA"/>
<path d="M155.342 134.603H149.629L149.071 128.845H155.9L155.342 134.603Z" fill="#F0F0F0"/>
<path d="M156.346 129.144H148.572L148.434 128.376H156.484L156.346 129.144Z" fill="#FAFAFA"/>
<path d="M149.41 151.921H142.854L144.91 145.302L145.208 144.339H146.694L149.41 151.921Z" fill="#EBEBEB"/>
<path d="M145.209 144.339L144.91 145.302L142.854 151.921L136.793 151.832L134.844 145.302L134.545 144.339H145.209Z" fill="#E0E0E0"/>
<path d="M145.209 144.339L144.91 145.302L142.854 151.921L130.406 151.738L133.06 144.339H145.209Z" fill="#FAFAFA"/>
<path d="M145.208 144.339L144.909 145.302H132.716L133.059 144.339H145.208Z" fill="#EBEBEB"/>
<path d="M134.589 148.447H131.855L132.81 145.771L135.423 145.797L134.589 148.447ZM132.172 148.224H134.402L135.098 145.994L132.944 145.971L132.172 148.224Z" fill="#EBEBEB"/>
<path d="M137.649 148.447H134.915L135.865 145.771L138.483 145.797L137.649 148.447ZM135.227 148.224H137.484L138.18 145.994L136.026 145.971L135.227 148.224Z" fill="#EBEBEB"/>
<path d="M140.704 148.447H137.97L138.924 145.771L141.538 145.797L140.704 148.447ZM138.286 148.224H140.543L141.234 145.994L139.08 145.971L138.286 148.224Z" fill="#EBEBEB"/>
<path d="M143.763 148.447H141.029L141.984 145.771L144.597 145.797L143.763 148.447ZM141.346 148.224H143.612L144.307 145.994L142.153 145.971L141.346 148.224Z" fill="#EBEBEB"/>
<path d="M133.635 151.305H130.901L131.856 148.629L134.469 148.661L133.635 151.305ZM131.218 151.082H133.47L134.166 148.852H132.012L131.218 151.082Z" fill="#EBEBEB"/>
<path d="M136.695 151.305H133.961L134.915 148.629L137.529 148.661L136.695 151.305ZM134.278 151.082H136.53L137.226 148.852H135.071L134.278 151.082Z" fill="#EBEBEB"/>
<path d="M139.75 151.305H137.016L137.97 148.629L140.584 148.661L139.75 151.305ZM137.332 151.082H139.598L140.294 148.852H138.135L137.332 151.082Z" fill="#EBEBEB"/>
<path d="M142.809 151.305H140.075L141.03 148.629L143.643 148.661L142.809 151.305ZM140.392 151.082H142.644L143.34 148.852H141.186L140.392 151.082Z" fill="#EBEBEB"/>
<path d="M184.292 131.03C184.292 132.435 184.515 133.345 184.885 133.929C185.028 134.143 185.222 134.317 185.449 134.437C185.677 134.556 185.931 134.616 186.187 134.612H188.212C188.469 134.616 188.722 134.555 188.948 134.436C189.175 134.317 189.368 134.143 189.51 133.929C189.885 133.345 190.103 132.435 190.103 131.03C190.103 128.992 189.211 127.36 188.926 126.057C188.819 125.589 189.167 124.148 189.167 124.148H185.22C185.22 124.148 185.568 125.589 185.461 126.057C185.18 127.36 184.292 128.992 184.292 131.03Z" fill="#F0F0F0"/>
<path d="M188.519 114.31C188.107 114.424 187.74 114.662 187.467 114.992C187.079 115.509 187.748 116.722 187.748 116.722C187.932 116.903 188.157 117.038 188.403 117.115C188.65 117.193 188.911 117.211 189.166 117.168L189.955 116.977C189.955 116.977 189.104 114.622 188.524 114.466L188.519 114.31Z" fill="#EBEBEB"/>
<path d="M191.624 114.876C191.522 115.915 190.647 117.079 189.72 116.99C188.792 116.901 188.172 115.576 188.275 114.542C188.377 113.507 189.136 113.543 190.059 113.65C190.982 113.757 191.731 113.841 191.624 114.876Z" fill="#EBEBEB"/>
<path d="M189.014 114.073C189.014 114.073 189.608 114.76 191.102 114.707C191.102 114.707 188.555 115.786 189.014 114.073Z" fill="#EBEBEB"/>
<path d="M189.666 113.989C189.666 113.989 190.496 113.989 190.447 114.336C190.447 114.336 191.133 114.426 191.093 114.122C191.053 113.819 189.666 113.989 189.666 113.989Z" fill="#EBEBEB"/>
<path d="M189.014 114.073C189.014 114.073 189.608 114.76 191.102 114.707C191.102 114.707 188.555 115.786 189.014 114.073Z" fill="#E0E0E0"/>
<path d="M189.666 113.989C189.666 113.989 190.496 113.989 190.447 114.336C190.447 114.336 191.133 114.426 191.093 114.122C191.053 113.819 189.666 113.989 189.666 113.989Z" fill="#E0E0E0"/>
<path d="M188.132 117.021C188.242 117.281 188.423 117.504 188.654 117.666C188.885 117.827 189.157 117.921 189.439 117.936C189.72 117.947 190.001 117.899 190.263 117.795C190.524 117.691 190.762 117.534 190.959 117.334C191.353 116.929 191.627 116.425 191.753 115.875C191.789 115.732 191.869 115.38 191.691 115.286C191.513 115.193 191.374 115.425 191.276 115.523C190.992 115.805 190.678 116.057 190.34 116.272C190.008 116.483 189.651 116.652 189.278 116.776C189.175 116.812 188.168 117.115 188.132 117.021Z" fill="#EBEBEB"/>
<path d="M192.422 115.723C192.467 115.948 192.454 116.18 192.384 116.398C192.314 116.616 192.189 116.812 192.021 116.968C191.791 117.164 191.526 117.316 191.24 117.414C191.044 117.485 190.794 117.543 190.647 117.414C190.5 117.284 190.553 116.99 190.647 116.78C190.776 116.459 190.91 116.142 191.057 115.826C191.162 115.508 191.312 115.208 191.503 114.934C191.691 114.746 191.878 114.934 192.074 115.112C192.243 115.281 192.363 115.492 192.422 115.723Z" fill="#EBEBEB"/>
<path d="M188.471 116.499C188.297 116.456 188.138 116.365 188.014 116.235C187.891 116.106 187.806 115.944 187.771 115.768C187.721 115.505 187.837 114.876 188.167 114.876C188.165 115.431 188.268 115.982 188.471 116.499Z" fill="#E0E0E0"/>
<path d="M190.981 116.682C191.157 116.665 191.326 116.605 191.473 116.507C191.62 116.409 191.741 116.276 191.824 116.12C191.914 115.946 192.021 115.001 191.668 115.34C191.552 115.451 191.494 115.866 191.414 116.022C191.297 116.259 191.152 116.481 190.981 116.682Z" fill="#E0E0E0"/>
<path d="M189.604 117.017C189.714 117.148 189.866 117.239 190.033 117.275C190.201 117.312 190.376 117.291 190.531 117.217C190.465 117.391 189.867 117.436 189.684 117.454C189.198 117.503 188.997 117.253 188.587 116.985C188.587 116.985 189.269 117.226 189.604 117.017Z" fill="#E0E0E0"/>
<path d="M186.655 133.492L187.797 121.977L189.305 117.887L189.568 117.985L188.065 122.052L186.874 133.809L186.655 133.492Z" fill="#E6E6E6"/>
<path d="M188.056 121.954L187.806 122.079C187.627 121.69 187.478 121.287 187.36 120.875C187.142 120.058 186.82 119.272 186.401 118.538L186.638 118.391C187.069 119.145 187.402 119.951 187.628 120.79C187.742 121.188 187.885 121.577 188.056 121.954Z" fill="#E6E6E6"/>
<path d="M188.658 120.442C189.049 120.413 189.417 120.244 189.693 119.965C189.983 119.63 190.2 119.238 190.331 118.814C189.822 118.868 189.354 118.538 188.845 118.502C188.643 118.489 188.44 118.523 188.252 118.6C188.064 118.677 187.897 118.796 187.762 118.948C187.418 119.35 187.217 119.84 187.405 120.081C187.759 120.361 188.209 120.49 188.658 120.442Z" fill="#F0F0F0"/>
<path d="M184.59 119.193C184.826 119.033 185.095 118.926 185.377 118.881C185.66 118.837 185.948 118.855 186.222 118.935C186.439 119.016 186.633 119.149 186.789 119.321C186.944 119.494 187.055 119.7 187.114 119.925C187.013 120.054 186.88 120.155 186.727 120.215C186.574 120.276 186.407 120.294 186.245 120.268C185.92 120.208 185.609 120.091 185.326 119.92C185.043 119.751 184.732 119.633 184.407 119.572L184.59 119.193Z" fill="#F0F0F0"/>
<path d="M187.106 119.412C186.446 119.488 185.852 119.617 185.25 118.868C184.849 118.364 184.978 117.601 185.005 116.999C185.752 117.238 186.476 117.544 187.168 117.913C187.316 117.98 187.447 118.08 187.551 118.205C187.655 118.33 187.728 118.478 187.766 118.636C187.787 118.79 187.749 118.947 187.66 119.074C187.571 119.201 187.436 119.29 187.284 119.323L187.106 119.412Z" fill="#F0F0F0"/>
<path d="M185.215 128.376C184.893 129.12 184.741 129.926 184.769 130.736C184.769 130.887 184.831 131.061 184.943 131.088C185.054 131.115 185.144 130.99 185.179 130.852C185.208 130.705 185.217 130.555 185.206 130.406C185.206 129.17 185.875 128.127 186.004 126.922C186.04 126.579 185.951 125.5 185.75 126.294C185.585 127.02 185.46 127.681 185.215 128.376Z" fill="#FAFAFA"/>
<path d="M91.773 152.915C91.773 152.915 93.0709 138.55 87.3621 131.547C81.6533 124.545 91.8221 130.919 93.6061 137.903C93.6061 137.903 93.9406 124.969 88.2541 116.606C82.5676 108.244 92.2681 114.501 93.9584 123.635C93.9584 123.635 94.284 112.102 91.4385 105.992C88.5931 99.8814 92.8345 103.516 94.7122 107.33C96.5898 111.143 95.6622 121.312 95.6622 121.312C95.6622 121.312 97.6558 102.535 101.46 103.552C105.265 104.569 97.3793 117.668 96.7504 124.068C96.7504 124.068 100.194 115.148 103.623 116.486C107.053 117.824 98.8466 119.715 96.3089 132.698L95.5507 138.706C95.5507 138.706 98.6727 129.937 101.509 132.243C104.346 134.549 94.5739 140.298 93.4812 153.147L91.773 152.915Z" fill="#EBEBEB"/>
<path d="M92.3888 153.66C92.3888 153.66 91.1712 135.896 98.4009 127.431C105.631 118.966 92.9195 126.516 90.5111 135.08C90.5111 135.08 90.4398 119.122 97.6962 108.971C104.953 98.8198 92.7902 106.246 90.4665 117.445C90.4665 117.445 90.3773 103.208 94.0345 95.7557C97.6917 88.3031 92.3754 92.656 89.9581 97.3123C87.5408 101.969 88.4194 114.506 88.4194 114.506C88.4194 114.506 86.457 91.2734 81.7606 92.4063C77.0643 93.5391 86.4169 109.952 87.0234 117.86C87.0234 117.86 83.0094 106.745 78.7457 108.306C74.4819 109.867 84.5437 112.445 87.3312 128.546L88.1027 136.03C88.1027 136.03 84.4991 125.116 80.9266 127.863C77.3541 130.611 89.2668 138.023 90.2926 153.919L92.3888 153.66Z" fill="#F0F0F0"/>
<path d="M103.624 162.518C103.624 167.393 98.3384 171.349 91.8179 171.349C85.2974 171.349 80.0078 167.393 80.0078 162.518C80.0078 160.319 81.0782 158.316 82.8533 156.773L81.4573 150.864H102.174L100.796 156.773C102.553 158.33 103.624 160.319 103.624 162.518Z" fill="#EBEBEB"/>
<path d="M111.5 190.447C159.259 190.447 197.975 188.186 197.975 185.398C197.975 182.61 159.259 180.349 111.5 180.349C63.7415 180.349 25.0254 182.61 25.0254 185.398C25.0254 188.186 63.7415 190.447 111.5 190.447Z" fill="#F5F5F5"/>
<path d="M104.396 114.622L105.511 108.191L107.7 108.824L104.396 114.622Z" fill="#407BFF"/>
<path d="M105.132 116.683L111.403 114.867L110.528 112.758L105.132 116.683Z" fill="#407BFF"/>
<path d="M106.246 114.261L109.819 107.508L112.227 109.181L106.246 114.261Z" fill="#407BFF"/>
<path d="M146.605 51.5934H140.107C139.835 51.5758 139.581 51.4557 139.395 51.2573C139.209 51.0589 139.105 50.7971 139.105 50.5252C139.105 50.2533 139.209 49.9915 139.395 49.7931C139.581 49.5947 139.835 49.4746 140.107 49.457H146.605C146.876 49.4746 147.131 49.5947 147.317 49.7931C147.503 49.9915 147.606 50.2533 147.606 50.5252C147.606 50.7971 147.503 51.0589 147.317 51.2573C147.131 51.4557 146.876 51.5758 146.605 51.5934Z" fill="#407BFF"/>
<g opacity="0.7">
<path d="M146.605 51.5934H140.107C139.835 51.5758 139.581 51.4557 139.395 51.2573C139.209 51.0589 139.105 50.7971 139.105 50.5252C139.105 50.2533 139.209 49.9915 139.395 49.7931C139.581 49.5947 139.835 49.4746 140.107 49.457H146.605C146.876 49.4746 147.131 49.5947 147.317 49.7931C147.503 49.9915 147.606 50.2533 147.606 50.5252C147.606 50.7971 147.503 51.0589 147.317 51.2573C147.131 51.4557 146.876 51.5758 146.605 51.5934Z" fill="white"/>
</g>
<path d="M170.444 73.4963L145.53 119.345C145.375 119.628 145.115 119.838 144.805 119.929C144.496 120.021 144.163 119.985 143.88 119.831L101.488 96.782C101.204 96.6274 100.994 96.3668 100.903 96.0574C100.812 95.748 100.847 95.4151 101.001 95.1318L133.403 35.5105C133.558 35.2274 133.818 35.0172 134.128 34.9261C134.437 34.835 134.77 34.8703 135.053 35.0243L163.597 50.5451L170.444 73.4963Z" fill="#407BFF"/>
<g opacity="0.2">
<path d="M170.444 73.4963L145.53 119.345C145.375 119.628 145.115 119.838 144.805 119.929C144.496 120.021 144.163 119.985 143.88 119.831L101.488 96.782C101.204 96.6274 100.994 96.3668 100.903 96.0574C100.812 95.748 100.847 95.4151 101.001 95.1318L133.403 35.5105C133.558 35.2274 133.818 35.0172 134.128 34.9261C134.437 34.835 134.77 34.8703 135.053 35.0243L163.597 50.5451L170.444 73.4963Z" fill="white"/>
</g>
<path d="M156.455 83.7916L124.795 66.709L123.736 68.6715L155.396 85.7542L156.455 83.7916Z" fill="#407BFF"/>
<path d="M152.131 91.8097L120.472 74.7271L119.413 76.6896L151.072 93.7722L152.131 91.8097Z" fill="#407BFF"/>
<path d="M147.803 99.8322L116.144 82.7495L115.085 84.7121L146.744 101.795L147.803 99.8322Z" fill="#407BFF"/>
<path d="M163.656 50.5229L156.145 64.3489C155.991 64.6323 155.956 64.9652 156.047 65.2746C156.138 65.584 156.348 65.8446 156.631 65.9991L170.417 73.4919L163.656 50.5229Z" fill="#407BFF"/>
<path opacity="0.7" d="M163.656 50.5229L156.145 64.3489C155.991 64.6323 155.956 64.9652 156.047 65.2746C156.138 65.584 156.348 65.8446 156.631 65.9991L170.417 73.4919L163.656 50.5229Z" fill="white"/>
<path d="M176.938 71.9533L152.029 117.802C151.874 118.085 151.613 118.295 151.304 118.386C150.995 118.478 150.662 118.442 150.378 118.288L107.986 95.2568C107.702 95.103 107.491 94.8427 107.399 94.5333C107.307 94.2238 107.342 93.8905 107.495 93.6066L139.897 33.9719C140.051 33.6881 140.311 33.477 140.621 33.385C140.93 33.293 141.264 33.3276 141.548 33.4813L170.114 49.0021L176.938 71.9533Z" fill="#407BFF"/>
<g opacity="0.5">
<path d="M176.938 71.9533L152.029 117.802C151.874 118.085 151.613 118.295 151.304 118.386C150.995 118.478 150.662 118.442 150.378 118.288L107.986 95.2568C107.702 95.103 107.491 94.8427 107.399 94.5333C107.307 94.2238 107.342 93.8905 107.495 93.6066L139.897 33.9719C140.051 33.6881 140.311 33.477 140.621 33.385C140.93 33.293 141.264 33.3276 141.548 33.4813L170.114 49.0021L176.938 71.9533Z" fill="white"/>
</g>
<path d="M162.117 81.7876L132.145 65.6201C132.035 65.5599 131.913 65.5221 131.788 65.5091C131.663 65.496 131.536 65.5078 131.416 65.5439C131.295 65.58 131.183 65.6395 131.085 65.7192C130.988 65.7989 130.907 65.897 130.848 66.0081L130.7 66.2801C130.64 66.3911 130.602 66.5128 130.589 66.6384C130.576 66.764 130.588 66.8909 130.624 67.0119C130.66 67.1329 130.72 67.2456 130.799 67.3435C130.879 67.4414 130.977 67.5226 131.088 67.5824L161.06 83.7499C161.283 83.8703 161.545 83.8971 161.789 83.8243C162.032 83.7516 162.237 83.5853 162.357 83.3619L162.505 83.0854C162.565 82.9748 162.603 82.8534 162.616 82.7282C162.629 82.6029 162.617 82.4763 162.581 82.3557C162.545 82.2351 162.485 82.1228 162.406 82.0252C162.326 81.9277 162.228 81.847 162.117 81.7876Z" fill="#407BFF"/>
<path d="M157.784 89.8129L127.812 73.6409C127.346 73.3894 126.764 73.5634 126.512 74.0294L126.364 74.3042C126.113 74.7703 126.287 75.3519 126.753 75.6034L156.725 91.7754C157.191 92.0269 157.772 91.8529 158.024 91.3869L158.172 91.1121C158.424 90.646 158.25 90.0643 157.784 89.8129Z" fill="#407BFF"/>
<path d="M153.457 97.8392L123.485 81.6673C123.019 81.4158 122.438 81.5897 122.186 82.0558L122.038 82.3306C121.787 82.7966 121.96 83.3783 122.427 83.6298L152.398 99.8018C152.865 100.053 153.446 99.8793 153.698 99.4132L153.846 99.1385C154.097 98.6724 153.923 98.0907 153.457 97.8392Z" fill="#407BFF"/>
<path d="M170.154 48.9844L162.638 62.8104C162.562 62.9505 162.514 63.1044 162.497 63.2632C162.48 63.422 162.495 63.5825 162.541 63.7355C162.586 63.8885 162.662 64.031 162.763 64.1547C162.864 64.2784 162.988 64.3808 163.129 64.4561L176.915 71.9489L170.154 48.9844Z" fill="#407BFF"/>
<path opacity="0.7" d="M170.154 48.9844L162.638 62.8104C162.562 62.9505 162.514 63.1044 162.497 63.2632C162.48 63.422 162.495 63.5825 162.541 63.7355C162.586 63.8885 162.662 64.031 162.763 64.1547C162.864 64.2784 162.988 64.3808 163.129 64.4561L176.915 71.9489L170.154 48.9844Z" fill="white"/>
<path d="M168.432 27.9644L170.529 37.2724C162.59 39.4489 155.467 47.3074 150.343 54.7288C148.245 57.8106 146.559 61.1525 145.325 64.6702C145.325 64.6702 161.337 50.1885 170.163 49.3411L169.739 64.7237C169.739 64.7237 178.896 46.8837 196.669 40.3721C196.687 40.3676 181.781 29.6458 168.432 27.9644Z" fill="#407BFF"/>
<path d="M112.709 159.19L115.889 156.555L107.87 148.946L104.449 151.867L112.709 159.19Z" fill="#CB7A63"/>
<path d="M118.467 155.538C118.104 155.433 117.717 155.452 117.365 155.591C117.151 155.654 116.919 155.729 116.732 155.801C116.545 155.872 116.433 155.917 116.313 155.966L115.961 156.122C115.94 156.127 115.921 156.139 115.908 156.156C115.895 156.173 115.889 156.194 115.889 156.215C115.886 156.223 115.885 156.23 115.885 156.238C115.885 156.245 115.886 156.253 115.889 156.26C115.904 156.282 115.926 156.298 115.952 156.305C116.403 156.423 116.864 156.502 117.33 156.541C117.559 156.57 117.791 156.552 118.012 156.488H118.043C118.171 156.445 118.293 156.39 118.409 156.323C118.482 156.264 118.54 156.188 118.576 156.101C118.613 156.015 118.628 155.921 118.619 155.827C118.62 155.77 118.606 155.714 118.58 155.663C118.553 155.613 118.515 155.569 118.467 155.538ZM118.423 155.832C118.433 155.895 118.426 155.96 118.402 156.019C118.377 156.078 118.337 156.129 118.284 156.166C118.178 156.243 118.053 156.292 117.923 156.309C117.744 156.341 117.561 156.352 117.379 156.34C117.094 156.325 116.811 156.289 116.531 156.233L116.322 156.193C116.702 156.011 117.102 155.872 117.513 155.778C117.736 155.722 117.962 155.68 118.191 155.654C118.256 155.65 118.321 155.666 118.378 155.698C118.398 155.713 118.413 155.734 118.421 155.758C118.429 155.782 118.429 155.808 118.423 155.832Z" fill="#407BFF"/>
<path d="M117.008 153.869C116.907 153.888 116.809 153.926 116.723 153.983C116.636 154.04 116.562 154.113 116.504 154.199C116.468 154.253 116.437 154.31 116.411 154.369C116.241 154.887 116.208 155.44 116.313 155.975C116.314 155.982 116.314 155.989 116.313 155.997C116.316 156.014 116.324 156.03 116.336 156.044C116.348 156.057 116.363 156.067 116.38 156.073C116.389 156.077 116.4 156.079 116.411 156.079C116.422 156.079 116.432 156.077 116.442 156.073C116.45 156.072 116.458 156.07 116.465 156.066C116.472 156.063 116.478 156.057 116.482 156.05C116.571 155.975 116.653 155.893 116.727 155.805C116.869 155.638 116.995 155.459 117.107 155.27C117.383 154.824 117.579 154.311 117.459 154.048C117.414 153.932 117.298 153.816 117.008 153.869ZM117.276 154.137C117.352 154.306 117.2 154.708 116.977 155.1C116.841 155.34 116.68 155.565 116.496 155.769C116.434 155.365 116.455 154.952 116.558 154.556C116.584 154.47 116.623 154.389 116.674 154.315C116.748 154.207 116.856 154.127 116.982 154.088H117.044C117.231 154.034 117.267 154.106 117.298 154.128L117.276 154.137Z" fill="#407BFF"/>
<path d="M115.474 156.367L111.46 158.383C111.384 158.419 111.323 158.481 111.288 158.558C111.254 158.635 111.248 158.722 111.272 158.803L112.45 162.54C112.479 162.628 112.525 162.709 112.586 162.779C112.647 162.849 112.721 162.907 112.803 162.948C112.886 162.989 112.976 163.014 113.069 163.021C113.161 163.027 113.254 163.015 113.342 162.986L113.409 162.955C120.255 160.551 122.356 158.847 123.069 158.459C125.107 157.349 123.961 155.904 123.203 156.082C119.787 156.898 118.64 156.689 117.164 156.309C116.604 156.192 116.024 156.212 115.474 156.367Z" fill="#263238"/>
<path opacity="0.2" d="M107.874 148.95L111.933 152.549L108.508 155.466L104.449 151.867L107.874 148.95Z" fill="black"/>
<path d="M106.608 155.439L111.715 150.73L110.591 148.758L104.686 153.829L106.608 155.439Z" fill="#407BFF"/>
<path opacity="0.5" d="M106.608 155.439L111.715 150.73L110.591 148.758L104.686 153.829L106.608 155.439Z" fill="white"/>
<path d="M109.788 149.45L109.101 150.038L108.079 150.93L107.486 151.434L105.702 152.977L105.359 153.267C105.359 153.267 98.0846 149.169 94.0349 145.685C91.2652 143.29 91.0155 142.394 90.7211 142.617C86.8097 145.596 75.2315 155.881 68.6709 161.228C68.4568 161.255 68.2249 161.273 68.0286 161.291C64.5231 161.545 61.7846 161.162 59.626 160.345C59.626 157.5 62.0388 150.855 62.2395 150.212C62.2395 150.212 71.9222 140.592 87.6125 132.457C87.7663 132.379 87.9241 132.309 88.0852 132.247C88.2861 132.154 88.4915 132.07 88.7007 131.998C89.4687 131.692 90.2798 131.508 91.1047 131.454C91.7986 131.425 92.4912 131.535 93.1429 131.775C93.5173 131.907 93.8811 132.068 94.2311 132.256C94.538 132.415 94.8358 132.591 95.1231 132.783C95.6093 133.09 96.0776 133.434 96.5191 133.773C97.5226 134.549 105.1 144.312 109.172 148.816C109.391 149.026 109.596 149.249 109.788 149.45Z" fill="#407BFF"/>
<g opacity="0.1">
<path d="M109.788 149.45L109.101 150.038L108.079 150.93L107.486 151.434L105.702 152.977L105.359 153.267C105.359 153.267 98.0846 149.169 94.0349 145.685C91.2652 143.29 91.0155 142.394 90.7211 142.617C86.8097 145.596 75.2315 155.881 68.6709 161.228C68.4568 161.255 68.2249 161.273 68.0286 161.291C64.5231 161.545 61.7846 161.162 59.626 160.345C59.626 157.5 62.0388 150.855 62.2395 150.212C62.2395 150.212 71.9222 140.592 87.6125 132.457C87.7663 132.379 87.9241 132.309 88.0852 132.247C88.2861 132.154 88.4915 132.07 88.7007 131.998C89.4687 131.692 90.2798 131.508 91.1047 131.454C91.7986 131.425 92.4912 131.535 93.1429 131.775C93.5173 131.907 93.8811 132.068 94.2311 132.256C94.538 132.415 94.8358 132.591 95.1231 132.783C95.6093 133.09 96.0776 133.434 96.5191 133.773C97.5226 134.549 105.1 144.312 109.172 148.816C109.391 149.026 109.596 149.249 109.788 149.45Z" fill="black"/>
</g>
<path d="M58.118 108.377C58.7334 111.152 59.3757 115.206 57.4668 117.115C59.8368 121.279 62.6804 125.155 65.9408 128.666C70.1198 121.401 66.1593 116.909 66.1593 116.909C63.0373 116.24 63.0775 114.978 63.5681 112.802L58.118 108.377Z" fill="#CB7A63"/>
<path d="M55.5312 117.454C55.7585 116.704 56.2293 116.051 56.8693 115.599C57.4981 115.121 64.0052 115.05 65.6777 115.599C66.6642 115.911 67.5029 116.572 68.0371 117.458L55.5312 117.454Z" fill="#407BFF"/>
<path d="M85.4896 128.515L87.1665 127.748L87.2513 130.486C86.7676 130.908 86.2095 131.236 85.6055 131.454C85.4169 131.51 85.2169 131.515 85.0257 131.468C84.8345 131.422 84.6588 131.327 84.5164 131.191C84.3739 131.055 84.2697 130.884 84.2143 130.696C84.1589 130.507 84.1542 130.307 84.2006 130.116C84.2834 129.77 84.442 129.447 84.665 129.17C84.8879 128.893 85.1695 128.669 85.4896 128.515Z" fill="#CB7A63"/>
<path d="M89.3164 128.519L89.2272 129.527C89.2149 129.678 89.1546 129.822 89.0551 129.937C88.9557 130.051 88.8222 130.131 88.6742 130.165L87.2381 130.486L87.1533 127.748L88.6117 127.77C88.7036 127.768 88.795 127.785 88.8804 127.819C88.9658 127.853 89.0436 127.903 89.1092 127.968C89.1748 128.032 89.227 128.109 89.2625 128.193C89.2981 128.278 89.3164 128.369 89.3164 128.461V128.519Z" fill="#CB7A63"/>
<path d="M64.166 136.302C66.8312 137.672 69.8567 138.178 72.8229 137.751C76.3909 137.149 82.6349 133.559 85.3421 131.507L84.4501 130.169C83.1121 130.459 72.0557 136.07 64.9242 130.994C63.5862 130.049 58.3725 126.155 56.5305 126.236C53.5378 126.369 53.7965 129.505 55.081 130.812C56.5662 132.306 62.101 135.285 64.166 136.302Z" fill="#CB7A63"/>
<g opacity="0.2">
<path d="M89.227 129.527C89.2161 129.677 89.1568 129.82 89.0579 129.934C88.959 130.049 88.8259 130.128 88.6784 130.16L87.2512 130.486C86.7676 130.908 86.2094 131.236 85.6055 131.453C85.5205 131.481 85.4318 131.496 85.3423 131.498C82.6307 133.559 76.4223 137.144 72.8276 137.742C69.8629 138.167 66.8395 137.66 64.1752 136.293C62.1102 135.276 56.5664 132.279 55.0634 130.771C53.7789 129.464 53.5202 126.311 56.5129 126.195C58.3549 126.115 63.5731 130.008 64.9066 130.954C71.7126 135.793 82.0687 130.914 84.1872 130.2C84.1851 130.167 84.1851 130.135 84.1872 130.102C84.2647 129.758 84.417 129.435 84.6332 129.157C84.856 128.88 85.138 128.658 85.4583 128.505L87.1219 127.743L88.5714 127.765C88.6629 127.764 88.7538 127.781 88.8387 127.815C88.9236 127.849 89.0008 127.9 89.066 127.964C89.1311 128.029 89.1828 128.105 89.2181 128.19C89.2534 128.274 89.2716 128.365 89.2716 128.456V128.519L89.227 129.527Z" fill="black"/>
<path d="M87.1667 127.747L87.1533 127.752V127.747H87.1667Z" fill="black"/>
</g>
<path d="M73.5188 121.936C77.3053 130.281 68.5236 132.667 72.5465 146.35L53.4577 146.796C53.5826 139.464 56.1917 141.038 52.753 127.252C52.4631 126.084 51.9814 122.734 53.2258 119.67C53.7015 118.477 54.5763 117.486 55.7011 116.865C57.1104 116.107 63.3188 116.7 66.1509 116.892C69.2194 116.477 72.9568 120.893 73.5188 121.936Z" fill="#407BFF"/>
<path opacity="0.5" d="M73.5188 121.936C77.3053 130.281 68.5236 132.667 72.5465 146.35L53.4577 146.796C53.5826 139.464 56.1917 141.038 52.753 127.252C52.4631 126.084 51.9814 122.734 53.2258 119.67C53.7015 118.477 54.5763 117.486 55.7011 116.865C57.1104 116.107 63.3188 116.7 66.1509 116.892C69.2194 116.477 72.9568 120.893 73.5188 121.936Z" fill="white"/>
<path d="M69.8704 105.38C69.8169 105.746 69.964 106.045 70.1915 106.076C70.419 106.107 70.6375 105.853 70.7044 105.501C70.7713 105.148 70.6063 104.841 70.3788 104.805C70.1514 104.769 69.9194 105.032 69.8704 105.38Z" fill="#263238"/>
<path d="M70.2764 104.809L71.1684 104.689C71.1684 104.689 70.6242 105.287 70.2764 104.809Z" fill="#263238"/>
<path d="M69.9281 105.862C70.1228 106.706 70.4351 107.518 70.8558 108.275C70.6586 108.377 70.4414 108.435 70.2195 108.444C69.9975 108.454 69.7763 108.414 69.5713 108.329L69.9281 105.862Z" fill="#A02724"/>
<path d="M71.1329 102.927C71.1669 102.915 71.1969 102.893 71.2197 102.865C71.2425 102.837 71.2572 102.803 71.2622 102.767C71.27 102.712 71.2562 102.656 71.2238 102.611C71.1914 102.566 71.1428 102.536 71.0883 102.526C70.7628 102.469 70.4283 102.491 70.1132 102.59C69.7981 102.69 69.5114 102.864 69.2775 103.097C69.2537 103.114 69.2338 103.136 69.2192 103.162C69.2045 103.188 69.1954 103.216 69.1925 103.245C69.1895 103.275 69.1928 103.304 69.202 103.332C69.2113 103.36 69.2264 103.386 69.2462 103.408C69.2661 103.429 69.2903 103.447 69.3173 103.458C69.3444 103.47 69.3735 103.476 69.403 103.476C69.4325 103.476 69.4615 103.469 69.4883 103.457C69.5151 103.445 69.539 103.427 69.5585 103.405L69.5852 103.373C69.7733 103.191 70.0017 103.055 70.2521 102.978C70.5024 102.9 70.7675 102.883 71.0258 102.927C71.0609 102.936 71.0978 102.936 71.1329 102.927Z" fill="#263238"/>
<path d="M58.3195 102.49C57.9582 106.839 57.7129 108.672 59.5638 111.201C62.3558 115.001 67.7836 114.501 69.4249 110.349C70.919 106.607 71.258 100.127 67.293 97.8029C66.6197 97.4043 65.8744 97.1425 65.0997 97.0324C64.3251 96.9222 63.5363 96.966 62.7786 97.1611C62.0209 97.3562 61.3091 97.6989 60.684 98.1695C60.0589 98.6401 59.5327 99.2294 59.1357 99.9036C58.666 100.691 58.3865 101.576 58.3195 102.49Z" fill="#CB7A63"/>
<path d="M69.5276 110.086C69.1963 109.801 68.9469 109.433 68.8051 109.02C68.8013 108.997 68.8054 108.973 68.8168 108.953C68.8281 108.933 68.846 108.917 68.8675 108.908C68.8899 108.903 68.9137 108.906 68.9336 108.918C68.9536 108.93 68.9683 108.949 68.9745 108.971C69.1057 109.326 69.318 109.645 69.5945 109.903L69.5276 110.086Z" fill="#263238"/>
<path d="M55.2198 96.8396C53.5651 99.0696 52.8114 99.6672 54.863 105.648C55.6881 108.052 58.0831 111.236 59.2472 111.526C61.3344 112.053 63.3637 110.59 64.9292 109.113C66.354 107.874 67.5471 106.391 68.4526 104.734C69.2911 103.043 69.5988 101.014 68.8986 99.2614C68.1493 97.3569 65.5045 95.6577 63.5243 95.2474C61.2051 94.7478 56.5979 94.9708 55.2198 96.8396Z" fill="#263238"/>
<path d="M68.2379 105.104C68.2379 105.104 68.7597 105.996 68.0996 106.669V105.479L68.2379 105.104Z" fill="#263238"/>
<path d="M68.2382 105.104C68.2382 105.104 68.43 106.478 67.2793 106.991L67.8948 105.51L68.2382 105.104Z" fill="#263238"/>
<path d="M60.5579 111.022C60.5579 111.022 59.2912 111.598 59.4741 112.842L60.3973 111.526L60.5579 111.022Z" fill="#263238"/>
<path d="M60.6072 111.054C60.6072 111.054 59.6438 112.053 60.2772 113.145L60.6473 111.58L60.6072 111.054Z" fill="#263238"/>
<path d="M69.9597 103.306C70.4302 102.859 70.8463 102.357 71.1995 101.812C71.5608 101.265 71.7186 100.609 71.6455 99.9569C71.5557 99.546 71.3765 99.16 71.1205 98.8262C70.8646 98.4924 70.5383 98.2191 70.1648 98.0257C69.4188 97.6411 68.6188 97.372 67.7921 97.2274C67.4006 97.0867 66.9704 97.0994 66.5879 97.2631C66.4287 97.3807 66.3036 97.5385 66.2252 97.7202C66.1469 97.902 66.1181 98.1013 66.1419 98.2978C66.1845 98.6936 66.293 99.0796 66.463 99.4396C67.0067 100.883 67.4071 102.377 67.6583 103.9C67.7966 104.667 67.694 105.18 68.4522 104.881C68.9205 104.707 69.5761 103.712 69.9597 103.306Z" fill="#263238"/>
<path d="M63.9562 105.456C63.91 106.462 64.2644 107.445 64.9418 108.19C65.8338 109.172 67.0023 108.529 67.3324 107.298C67.6312 106.201 67.5197 104.368 66.3289 103.842C65.1381 103.316 64.0186 104.23 63.9562 105.456Z" fill="#CB7A63"/>
<path d="M114.542 161.193L117.985 157.839L111.317 149.458L107.156 151.916L114.542 161.193Z" fill="#CB7A63"/>
<path d="M121.5 156.804C121.121 156.671 120.336 157.099 119.738 157.478C119.587 157.571 119.453 157.665 119.337 157.745L119.279 157.79C119.145 157.884 119.047 157.955 119.011 157.986C118.991 157.996 118.974 158.012 118.965 158.032C118.955 158.053 118.953 158.076 118.958 158.098C118.964 158.12 118.978 158.14 118.996 158.154C119.015 158.169 119.037 158.177 119.06 158.178C119.471 158.196 119.883 158.182 120.291 158.138L120.563 158.107C120.858 158.084 121.143 157.986 121.388 157.821C121.478 157.766 121.562 157.702 121.638 157.629C121.703 157.552 121.747 157.459 121.766 157.36C121.786 157.261 121.78 157.159 121.75 157.063C121.732 157.003 121.7 156.948 121.656 156.903C121.613 156.858 121.559 156.824 121.5 156.804ZM121.527 157.125C121.549 157.19 121.553 157.26 121.54 157.327C121.527 157.395 121.496 157.457 121.451 157.509C121.265 157.689 121.028 157.807 120.773 157.848C120.471 157.917 120.164 157.957 119.854 157.968C119.712 157.968 119.563 157.968 119.408 157.968L119.56 157.857C119.593 157.829 119.629 157.803 119.667 157.781C120.146 157.443 120.674 157.18 121.232 157.001C121.301 156.981 121.374 156.981 121.442 157.001C121.466 157.011 121.487 157.029 121.502 157.051C121.517 157.073 121.526 157.099 121.527 157.125Z" fill="#407BFF"/>
<path opacity="0.2" d="M110.969 148.946L114.105 152.96L109.863 155.328L106.679 151.417L110.969 148.946Z" fill="black"/>
<path d="M53.2833 145.347L52.8373 147.082C52.7704 147.215 52.9354 147.345 53.154 147.34L72.8092 146.894C72.9831 146.894 73.1214 146.801 73.1303 146.689L72.6397 144.874C72.6397 144.758 72.497 144.66 72.3097 144.664L53.5777 145.217C53.522 145.215 53.4664 145.225 53.4153 145.247C53.3643 145.27 53.3191 145.304 53.2833 145.347Z" fill="#263238"/>
<path d="M70.776 147.082L70.2586 147.14C70.156 147.14 70.0713 147.108 70.0713 147.042V144.812C70.0713 144.745 70.156 144.682 70.2542 144.673L70.7715 144.611C70.8741 144.611 70.9588 144.647 70.9588 144.713V146.943C70.9588 147.01 70.8785 147.073 70.776 147.082Z" fill="#407BFF"/>
<path d="M63.7383 147.18L63.2209 147.233C63.1228 147.233 63.0381 147.202 63.0381 147.135V144.905C63.0381 144.843 63.1228 144.78 63.2254 144.767L63.7383 144.709C63.8409 144.709 63.9256 144.74 63.9256 144.807V147.037C63.9256 147.108 63.8409 147.18 63.7383 147.18Z" fill="#407BFF"/>
<path d="M63.7383 147.18L63.2209 147.233C63.1228 147.233 63.0381 147.202 63.0381 147.135V144.905C63.0381 144.843 63.1228 144.78 63.2254 144.767L63.7383 144.709C63.8409 144.709 63.9256 144.74 63.9256 144.807V147.037C63.9256 147.108 63.8409 147.18 63.7383 147.18Z" fill="#407BFF"/>
<path d="M113.605 150.747L112.735 151.238L111.237 152.085L109.899 152.839L108.521 153.615L107.99 153.914L107.66 153.669C107.58 153.615 107.486 153.548 107.379 153.464C107.049 153.218 106.594 152.879 106.041 152.456C103.271 150.261 98.3341 145.953 96.8623 142.033C95.9123 143.165 94.775 144.588 93.4727 146.158C87.862 152.924 79.1561 162.473 68.684 163.717L68.0418 163.784C64.5407 164.083 61.7978 163.735 59.6347 162.946C54.1979 160.952 52.6815 156.175 53.0517 152.112C53.0874 150.208 53.4576 146.818 53.4576 146.818H73.2957C76.0876 143.424 81.6983 138.108 87.4294 134.776C87.5632 134.691 87.7015 134.611 87.8397 134.54C87.978 134.468 88.1831 134.344 88.3526 134.25C90.0822 133.273 91.9305 132.524 93.8518 132.02C94.2443 131.926 94.6323 131.846 95.0159 131.788C95.409 131.729 95.805 131.692 96.2022 131.677C98.9184 131.556 101.278 132.569 102.892 135.276L113.306 150.301L113.605 150.747Z" fill="#407BFF"/>
<path d="M102.901 130.133L80.9844 131.039L81.6266 117.092L103.543 116.187L102.901 130.133Z" fill="#407BFF"/>
<path d="M102.647 131.231L81.047 132.123C80.9051 132.132 80.7627 132.111 80.6296 132.06C80.4966 132.01 80.3759 131.931 80.2757 131.83C80.1755 131.729 80.0981 131.608 80.0488 131.475C79.9996 131.341 79.9795 131.199 79.99 131.057L80.6233 117.199C80.6424 116.897 80.7713 116.613 80.9857 116.399C81.2001 116.186 81.4853 116.058 81.7874 116.04L103.387 115.148C103.529 115.139 103.671 115.161 103.804 115.212C103.936 115.262 104.057 115.341 104.157 115.442C104.257 115.542 104.334 115.664 104.384 115.797C104.433 115.93 104.454 116.072 104.444 116.214L103.806 130.071C103.789 130.373 103.662 130.658 103.448 130.872C103.234 131.086 102.949 131.214 102.647 131.231Z" fill="#263238"/>
<path d="M102.901 130.133L80.9844 131.039L81.6266 117.092L103.543 116.187L102.901 130.133Z" fill="#407BFF"/>
<path opacity="0.9" d="M102.901 130.133L80.9844 131.039L81.6266 117.092L103.543 116.187L102.901 130.133Z" fill="white"/>
<path opacity="0.1" d="M89.4047 115.732L85.7832 131.922L87.2238 131.864L90.7962 115.674L89.4047 115.732Z" fill="white"/>
<path opacity="0.1" d="M91.6264 115.638L88.0049 131.828L90.8637 131.712L94.4362 115.522L91.6264 115.638Z" fill="white"/>
<path d="M95.788 131.404L103.085 131.199C103.209 132.047 102.848 132.363 102.384 132.377L100.052 132.435L98.4908 132.47L96.069 132.537L81.0433 132.983L80.9229 131.926L95.788 131.404Z" fill="#407BFF"/>
<path d="M95.7878 131.404L103.084 131.199C103.209 132.047 102.848 132.363 102.384 132.377L100.052 132.435L98.4906 132.47L96.0688 132.537L77.4706 133.108C77.3661 133.112 77.2627 133.086 77.1732 133.032C77.0836 132.978 77.0118 132.899 76.9666 132.805C76.9281 132.724 76.9102 132.635 76.9147 132.545C76.9192 132.456 76.9459 132.369 76.9924 132.293C77.0388 132.216 77.1036 132.152 77.1809 132.107C77.2581 132.062 77.3454 132.036 77.4349 132.033L95.7878 131.404Z" fill="#407BFF"/>
<path opacity="0.2" d="M95.7878 131.404L103.084 131.199C103.209 132.047 102.848 132.363 102.384 132.377L100.052 132.435L98.4906 132.47L96.0688 132.537L77.4706 133.108C77.3661 133.112 77.2627 133.086 77.1732 133.032C77.0836 132.978 77.0118 132.899 76.9666 132.805C76.9281 132.724 76.9102 132.635 76.9147 132.545C76.9192 132.456 76.9459 132.369 76.9924 132.293C77.0388 132.216 77.1036 132.152 77.1809 132.107C77.2581 132.062 77.3454 132.036 77.4349 132.033L95.7878 131.404Z" fill="black"/>
<path opacity="0.2" d="M103.084 131.199L103.128 131.494C103.146 131.602 103.139 131.713 103.11 131.82C103.081 131.926 103.029 132.024 102.959 132.109C102.888 132.193 102.8 132.262 102.701 132.309C102.602 132.357 102.494 132.383 102.384 132.386L100.051 132.444L95.7158 132.6L95.7872 131.413L103.084 131.199Z" fill="black"/>
<path opacity="0.2" d="M65.2897 122.346C65.2897 122.346 64.2594 124.447 67.2343 129.995L68.4786 132.256C68.8889 133.001 71.6006 131.48 72.4302 130.084C72.4302 130.084 67.212 126.953 65.2897 122.346Z" fill="black"/>
<path d="M90.538 128.813L92.6119 128.202L92.2818 131.404C92.2818 131.404 89.3873 133.34 88.3838 131.489L88.7897 130.459C88.9392 130.071 89.1739 129.722 89.4765 129.437C89.7791 129.152 90.1419 128.939 90.538 128.813Z" fill="#CB7A63"/>
<path d="M94.9981 129.46L94.7394 130.615C94.7016 130.789 94.6088 130.947 94.4747 131.064C94.3405 131.181 94.1722 131.252 93.9946 131.266L92.2686 131.404L92.6031 128.198L94.2978 128.465C94.5153 128.494 94.7124 128.608 94.8461 128.782C94.9799 128.956 95.0393 129.175 95.0115 129.393L94.9981 129.46Z" fill="#CB7A63"/>
<path d="M73.2511 134.246C74.7006 136.208 76.7343 137.849 79.1249 138.318C81.9436 138.866 87.367 134.879 89.9092 132.301C89.7843 131.213 89.8556 130.624 88.7719 130.473C88.7719 130.473 85.971 132.524 80.6948 133.755C78.9866 134.152 77.8493 132.417 76.3641 129.87C75.6238 128.608 73.2421 123.417 72.3189 122.262C70.865 120.406 66.735 121.735 68.3763 126.2C69.0631 128.064 72.0692 132.631 73.2511 134.246Z" fill="#CB7A63"/>
<path d="M71.7083 119.211C74.6385 121.887 76.0657 126.668 76.0657 126.668L69.2196 130.842C69.2196 130.842 64.2244 123.813 65.1164 121.365C65.8211 119.465 67.1279 118.216 68.845 118.109C69.3717 118.092 69.8966 118.18 70.3885 118.369C70.8804 118.559 71.3292 118.845 71.7083 119.211Z" fill="#407BFF"/>
<path d="M56.0001 147.443H55.4828C55.3802 147.443 55.2954 147.393 55.3044 147.327L55.4961 145.097C55.4961 145.03 55.5898 144.976 55.6924 144.972H56.2097C56.3123 144.972 56.3971 145.025 56.3881 145.088L56.1964 147.318C56.1858 147.36 56.1595 147.396 56.123 147.419C56.0866 147.442 56.0426 147.451 56.0001 147.443Z" fill="#407BFF"/>
<path d="M107.142 154.864L113.814 151.528L113.244 149.155L105.635 152.625L107.142 154.864Z" fill="#407BFF"/>
<path opacity="0.5" d="M107.142 154.864L113.814 151.528L113.244 149.155L105.635 152.625L107.142 154.864Z" fill="white"/>
<path d="M117.718 157.473L113.115 158.865C113.027 158.889 112.951 158.943 112.901 159.019C112.85 159.094 112.828 159.185 112.839 159.275L113.396 163.45C113.412 163.548 113.447 163.642 113.499 163.726C113.551 163.811 113.62 163.884 113.701 163.942C113.782 163.999 113.874 164.04 113.971 164.062C114.068 164.084 114.168 164.087 114.266 164.07H114.346C122.035 162.789 124.573 161.394 125.398 161.099C127.762 160.301 126.816 158.561 125.978 158.61C122.213 158.842 121.041 158.405 119.546 157.718C118.967 157.486 118.338 157.402 117.718 157.473Z" fill="#263238"/>
<path d="M55.8255 102.442C54.4429 102.66 53.0737 101.599 52.6411 100.269C52.4626 99.5928 52.4272 98.8864 52.537 98.1953C52.6468 97.5042 52.8995 96.8435 53.2789 96.2555C53.8007 95.3635 57.2215 93.2495 58.4881 95.6311C61.0125 100.35 55.8255 102.442 55.8255 102.442Z" fill="#263238"/>
<path d="M102.704 120.968L89.2129 121.539L89.2753 120.201L102.767 119.63L102.704 120.968Z" fill="#407BFF"/>
<g opacity="0.7">
<path d="M102.704 120.968L89.2129 121.539L89.2753 120.201L102.767 119.63L102.704 120.968Z" fill="white"/>
</g>
<path d="M102.624 122.824L89.1328 123.399L89.1908 122.061L102.682 121.486L102.624 122.824Z" fill="#407BFF"/>
<g opacity="0.7">
<path d="M102.624 122.824L89.1328 123.399L89.1908 122.061L102.682 121.486L102.624 122.824Z" fill="white"/>
</g>
<path d="M102.539 124.684L89.0479 125.259L89.1103 123.917L102.597 123.346L102.539 124.684Z" fill="#407BFF"/>
<g opacity="0.7">
<path d="M102.539 124.684L89.0479 125.259L89.1103 123.917L102.597 123.346L102.539 124.684Z" fill="white"/>
</g>
<path d="M102.455 126.539L88.9639 127.114L89.0263 125.776L102.518 125.201L102.455 126.539Z" fill="#407BFF"/>
<g opacity="0.7">
<path d="M102.455 126.539L88.9639 127.114L89.0263 125.776L102.518 125.201L102.455 126.539Z" fill="white"/>
</g>
<path d="M102.374 128.399L88.8828 128.974L88.9408 127.636L102.432 127.061L102.374 128.399Z" fill="#407BFF"/>
<g opacity="0.7">
<path d="M102.374 128.399L88.8828 128.974L88.9408 127.636L102.432 127.061L102.374 128.399Z" fill="white"/>
</g>
<path d="M83.7576 122.295L82.6748 122.342L82.6939 122.787L83.7767 122.741L83.7576 122.295Z" fill="#407BFF"/>
<g opacity="0.5">
<path d="M83.7576 122.295L82.6748 122.342L82.6939 122.787L83.7767 122.741L83.7576 122.295Z" fill="white"/>
</g>
<path d="M83.7058 123.585L82.623 123.632L82.6422 124.077L83.725 124.031L83.7058 123.585Z" fill="#407BFF"/>
<g opacity="0.5">
<path d="M83.7058 123.585L82.623 123.631L82.6422 124.077L83.725 124.03L83.7058 123.585Z" fill="white"/>
</g>
<path d="M83.3797 125.221L82.2959 125.265L82.3137 125.711L83.3975 125.667L83.3797 125.221Z" fill="#407BFF"/>
<g opacity="0.5">
<path d="M83.3797 125.221L82.2959 125.265L82.3137 125.711L83.3975 125.667L83.3797 125.221Z" fill="white"/>
</g>
<path d="M83.6072 126.156L82.5244 126.203L82.5436 126.648L83.6263 126.602L83.6072 126.156Z" fill="#407BFF"/>
<g opacity="0.5">
<path d="M83.6072 126.156L82.5244 126.203L82.5436 126.648L83.6263 126.602L83.6072 126.156Z" fill="white"/>
</g>
<path d="M83.2693 127.795L82.1855 127.838L82.2034 128.284L83.2872 128.241L83.2693 127.795Z" fill="#407BFF"/>
<g opacity="0.5">
<path d="M82.4971 127.931L82.5372 127.485L83.6165 127.436L83.5764 127.886L82.4971 127.931Z" fill="white"/>
</g>
<path d="M83.5057 128.729L82.4229 128.774L82.4416 129.22L83.5244 129.174L83.5057 128.729Z" fill="#407BFF"/>
<g opacity="0.5">
<path d="M83.5057 128.729L82.4229 128.774L82.4416 129.22L83.5244 129.174L83.5057 128.729Z" fill="white"/>
</g>
<path d="M84.8913 121.062L82.6523 121.896L82.6746 121.307L83.9145 121.107L82.688 121.022L82.7103 120.433L84.8913 121.062Z" fill="#407BFF"/>
<path d="M98.5611 118.935L89.2129 119.331L89.2575 118.404L98.6056 118.007L98.5611 118.935Z" fill="#407BFF"/>
<g opacity="0.7">
<path d="M98.5611 118.935L89.2129 119.331L89.2575 118.404L98.6056 118.007L98.5611 118.935Z" fill="white"/>
</g>
<path d="M85.9483 119.412L84.5791 119.474L85.1321 119.122L85.2838 119.26L85.4488 119.118L85.9483 119.412Z" fill="#407BFF"/>
<path d="M85.0794 119.077L84.5264 119.434L84.5665 118.613L85.0794 119.077Z" fill="#407BFF"/>
<path d="M86.0378 118.591L85.9932 119.363L85.4893 119.069L86.0378 118.591Z" fill="#407BFF"/>
<path d="M85.2992 118.933L85.2686 118.966L85.2718 118.969L85.3024 118.936L85.2992 118.933Z" fill="white"/>
<path d="M85.2767 118.938L85.2734 118.941L85.3041 118.974L85.3074 118.971L85.2767 118.938Z" fill="white"/>
<path d="M86.0375 118.511L85.4488 119.046L85.2838 119.193L85.1321 119.05L84.6192 118.587L84.5791 118.551L86.0375 118.511Z" fill="#407BFF"/>
<path d="M83.7605 118.665L82.6777 118.711L82.6834 118.845L83.7662 118.799L83.7605 118.665Z" fill="#407BFF"/>
<path d="M83.7615 119.004L82.6787 119.05L82.6844 119.184L83.7672 119.138L83.7615 119.004Z" fill="#407BFF"/>
<path d="M83.7625 119.352L82.6797 119.398L82.6854 119.532L83.7682 119.486L83.7625 119.352Z" fill="#407BFF"/>
<path d="M60.4374 129.652L64.4826 175.893H57.9799L53.627 126.133H56.6152C57.5764 126.137 58.5013 126.5 59.2085 127.151C59.9156 127.802 60.3539 128.694 60.4374 129.652Z" fill="#407BFF"/>
<path opacity="0.2" d="M60.4775 130.071L64.4915 175.893H57.9799L53.627 126.133H56.1959C57.272 126.138 58.3076 126.544 59.0996 127.273C59.8916 128.001 60.383 128.999 60.4775 130.071Z" fill="black"/>
<path d="M56.196 129.148L60.2858 175.893H21.4838L17.4698 129.723C17.4296 129.267 17.4847 128.808 17.6316 128.374C17.7785 127.94 18.014 127.542 18.3231 127.205C18.6323 126.867 19.0083 126.597 19.4273 126.413C19.8462 126.228 20.299 126.133 20.7568 126.133H52.9491C53.7679 126.143 54.5536 126.457 55.1537 127.014C55.7537 127.572 56.1252 128.332 56.196 129.148Z" fill="#407BFF"/>
<path opacity="0.2" d="M56.245 129.656L60.2902 175.893H21.4882L17.4876 130.33C17.4406 129.797 17.5049 129.26 17.6765 128.753C17.8481 128.247 18.1232 127.781 18.4843 127.386C18.8454 126.992 19.2847 126.676 19.7742 126.461C20.2637 126.245 20.7927 126.133 21.3276 126.133H52.4049C53.3696 126.134 54.299 126.496 55.0098 127.148C55.7207 127.8 56.1613 128.695 56.245 129.656Z" fill="white"/>
<path d="M124.518 175.893H21.6485L20.5156 163.071H119.26C120.383 163.091 121.459 163.522 122.286 164.282C123.113 165.042 123.632 166.079 123.747 167.196L124.518 175.893Z" fill="#407BFF"/>
<path opacity="0.2" d="M124.518 175.893H21.6485L20.5156 163.071H119.26C120.383 163.091 121.459 163.522 122.286 164.282C123.113 165.042 123.632 166.079 123.747 167.196L124.518 175.893Z" fill="white"/>
<path d="M129.238 180.804H20.4403C19.7629 180.802 19.1136 180.533 18.6346 180.054C18.1556 179.575 17.8859 178.925 17.8848 178.248C17.8848 177.57 18.154 176.92 18.6333 176.441C19.1125 175.962 19.7626 175.692 20.4403 175.692H129.238C129.915 175.692 130.565 175.962 131.045 176.441C131.524 176.92 131.793 177.57 131.793 178.248C131.792 178.925 131.522 179.575 131.043 180.054C130.564 180.533 129.915 180.802 129.238 180.804Z" fill="#407BFF"/>
<path opacity="0.2" d="M129.237 180.804H66.079C65.4012 180.804 64.7512 180.534 64.272 180.055C63.7927 179.576 63.5234 178.926 63.5234 178.248C63.5229 177.912 63.5886 177.58 63.7168 177.269C63.845 176.959 64.0332 176.677 64.2706 176.44C64.5081 176.202 64.79 176.014 65.1004 175.886C65.4107 175.758 65.7433 175.692 66.079 175.692H129.237C129.915 175.692 130.565 175.962 131.044 176.441C131.523 176.92 131.793 177.57 131.793 178.248C131.791 178.925 131.522 179.575 131.043 180.054C130.564 180.533 129.915 180.802 129.237 180.804Z" fill="black"/>
<path d="M21.8672 180.804L23.1561 185.188H25.734L27.1523 180.804H21.8672Z" fill="#263238"/>
<path opacity="0.5" d="M21.8672 180.804L23.1561 185.188H25.734L27.1523 180.804H21.8672Z" fill="white"/>
<path d="M58.8096 180.804L60.0985 185.188H62.6764L64.0991 180.804H58.8096Z" fill="#263238"/>
<path opacity="0.5" d="M58.8096 180.804L60.0985 185.188H62.6764L64.0991 180.804H58.8096Z" fill="white"/>
<path d="M87.0859 180.804L88.3749 185.188H90.9528L92.371 180.804H87.0859Z" fill="#263238"/>
<path opacity="0.5" d="M87.0859 180.804L88.3749 185.188H90.9528L92.371 180.804H87.0859Z" fill="white"/>
<path d="M124.028 180.804L125.317 185.188H127.895L129.313 180.804H124.028Z" fill="#263238"/>
<path opacity="0.5" d="M124.028 180.804L125.317 185.188H127.895L129.313 180.804H124.028Z" fill="white"/>
<path d="M47.2268 124.394H44.4037C44.3445 124.394 44.2878 124.37 44.246 124.328C44.2042 124.287 44.1807 124.23 44.1807 124.171C44.1807 124.112 44.2042 124.055 44.246 124.013C44.2878 123.971 44.3445 123.948 44.4037 123.948H47.2268C47.2856 123.949 47.3417 123.973 47.3833 124.014C47.4248 124.056 47.4487 124.112 47.4498 124.171C47.4498 124.23 47.4264 124.287 47.3845 124.328C47.3427 124.37 47.286 124.394 47.2268 124.394Z" fill="#407BFF"/>
<path d="M42.5259 124.394H28.3744C28.3152 124.394 28.2585 124.37 28.2167 124.328C28.1749 124.287 28.1514 124.23 28.1514 124.171C28.1525 124.112 28.1764 124.056 28.2179 124.014C28.2595 123.973 28.3156 123.949 28.3744 123.948H42.5259C42.5847 123.949 42.6408 123.973 42.6824 124.014C42.7239 124.056 42.7478 124.112 42.7489 124.171C42.7489 124.23 42.7255 124.287 42.6836 124.328C42.6418 124.37 42.5851 124.394 42.5259 124.394Z" fill="#407BFF"/>
<path d="M92.701 150.204C92.6453 150.202 92.5919 150.182 92.5494 150.146C92.5285 150.125 92.5119 150.1 92.5005 150.073C92.4892 150.046 92.4834 150.017 92.4834 149.988C92.4834 149.958 92.4892 149.929 92.5005 149.902C92.5119 149.875 92.5285 149.85 92.5494 149.829L93.8874 148.393C93.9081 148.372 93.9328 148.356 93.9599 148.344C93.9871 148.333 94.0163 148.327 94.0457 148.327C94.0751 148.327 94.1043 148.333 94.1314 148.344C94.1586 148.356 94.1833 148.372 94.204 148.393C94.2452 148.436 94.2682 148.492 94.2682 148.551C94.2682 148.611 94.2452 148.667 94.204 148.71L92.866 150.146C92.8207 150.186 92.7615 150.207 92.701 150.204Z" fill="#407BFF"/>
<path d="M80.6102 161.634C80.5689 161.635 80.5285 161.623 80.4937 161.601C80.4588 161.579 80.4312 161.547 80.414 161.51C80.4003 161.484 80.3919 161.455 80.3894 161.426C80.387 161.397 80.3904 161.367 80.3996 161.339C80.4087 161.311 80.4234 161.286 80.4428 161.264C80.4621 161.241 80.4857 161.223 80.5121 161.211C84.6421 159.119 91.1938 151.296 91.2607 151.216C91.2792 151.193 91.302 151.175 91.3279 151.161C91.3537 151.147 91.382 151.139 91.4111 151.137C91.4402 151.134 91.4696 151.137 91.4973 151.146C91.5251 151.155 91.5508 151.17 91.5729 151.189C91.6178 151.228 91.6457 151.283 91.6507 151.342C91.6557 151.401 91.6374 151.46 91.5997 151.506C91.3321 151.827 84.9097 159.476 80.7128 161.608C80.6815 161.625 80.6462 161.635 80.6102 161.634Z" fill="#407BFF"/>
</svg>
