<svg width="153" height="152" viewBox="0 0 153 152" fill="none" xmlns="http://www.w3.org/2000/svg">
<g clip-path="url(#clip0_86_6227)">
<path d="M137.27 121.141H127.201V121.217H137.27V121.141Z" fill="#EBEBEB"/>
<path d="M101.191 121.968H98.5493V122.044H101.191V121.968Z" fill="#EBEBEB"/>
<path d="M126.897 118.319H121.063V118.395H126.897V118.319Z" fill="#EBEBEB"/>
<path d="M29.5775 118.83H16.4478V118.906H29.5775V118.83Z" fill="#EBEBEB"/>
<path d="M34.2105 118.83H32.2861V118.906H34.2105V118.83Z" fill="#EBEBEB"/>
<path d="M68.9455 120.113H40.4668V120.189H68.9455V120.113Z" fill="#EBEBEB"/>
<path d="M152.5 116.249H0.5V116.325H152.5V116.249Z" fill="#EBEBEB"/>
<path d="M72.5479 102.691H13.8485C13.3887 102.69 12.9479 102.507 12.6231 102.181C12.2982 101.856 12.1157 101.415 12.1157 100.955V18.4404C12.1197 17.9832 12.304 17.546 12.6284 17.2238C12.9528 16.9017 13.3913 16.7205 13.8485 16.7197H72.5479C73.0083 16.7197 73.4498 16.9026 73.7753 17.2281C74.1008 17.5537 74.2837 17.9952 74.2837 18.4556V100.955C74.2837 101.415 74.1008 101.857 73.7753 102.183C73.4498 102.508 73.0083 102.691 72.5479 102.691ZM13.8485 16.7805C13.4088 16.7813 12.9874 16.9566 12.6768 17.2678C12.3662 17.5789 12.1917 18.0007 12.1917 18.4404V100.955C12.1917 101.395 12.3662 101.817 12.6768 102.128C12.9874 102.439 13.4088 102.614 13.8485 102.615H73.4599C74.3719 102.615 74.2047 101.87 74.2047 100.955V18.4404C74.2039 18.0009 74.0292 17.5797 73.7187 17.2686C73.4083 16.9576 72.9873 16.7821 72.5479 16.7805H13.8485Z" fill="#EBEBEB"/>
<path d="M138.306 102.691H79.604C79.1439 102.69 78.7028 102.507 78.3775 102.182C78.0521 101.856 77.869 101.415 77.8682 100.955V18.4404C77.873 17.9829 78.0579 17.5457 78.3828 17.2236C78.7077 16.9016 79.1465 16.7205 79.604 16.7197H138.306C138.763 16.7213 139.201 16.9028 139.525 17.2249C139.848 17.547 140.032 17.9837 140.036 18.4404V100.955C140.036 101.414 139.854 101.855 139.53 102.18C139.206 102.506 138.766 102.689 138.306 102.691ZM79.604 16.7805C79.164 16.7813 78.7423 16.9565 78.4312 17.2676C78.1201 17.5787 77.945 18.0004 77.9442 18.4404V100.955C77.945 101.395 78.1201 101.817 78.4312 102.128C78.7423 102.439 79.164 102.614 79.604 102.615H138.306C138.746 102.614 139.168 102.439 139.479 102.128C139.79 101.817 139.965 101.395 139.966 100.955V18.4404C139.965 18.0004 139.79 17.5787 139.479 17.2676C139.168 16.9565 138.746 16.7813 138.306 16.7805H79.604Z" fill="#EBEBEB"/>
<path opacity="0.2" d="M17.9707 102.657H76.7461L80.6129 22.6143H23.9169L17.9707 102.657Z" fill="black"/>
<path d="M16.165 102.657H76.199L80.0689 22.6143H23.917L16.165 102.657Z" fill="#E6E6E6"/>
<path opacity="0.1" d="M18.7124 101.171H73.6817L77.3813 25.3048L25.4612 25.3018L18.7124 101.171Z" fill="black"/>
<path d="M77.3817 25.3018C76.7465 50.3048 74.5514 75.2437 70.8092 99.9733H31.1828C26.8052 99.8425 18.6489 99.6541 18.6489 99.6541C18.6489 99.6541 24.8961 47.3843 25.4616 25.3018H77.3817Z" fill="#FAFAFA"/>
<path d="M62.1878 31.1963C62.0723 34.4673 61.9304 37.7374 61.7622 41.0064H71.5753C71.7456 37.7353 71.8874 34.4653 72.0009 31.1963H62.1878ZM70.7636 40.1521H62.662C62.7999 37.4486 62.9174 34.748 63.0147 32.0505H71.1163C71.017 34.75 70.8994 37.4506 70.7636 40.1521Z" fill="#E0E0E0"/>
<path d="M60.5491 47.0742C60.4356 50.3453 60.2938 53.6163 60.1235 56.8873H69.9336C70.1039 53.6143 70.2467 50.3432 70.3623 47.0742H60.5491ZM69.125 56.0331H61.0234C61.1571 53.3316 61.2747 50.63 61.376 47.9285H69.4776C69.3763 50.632 69.2587 53.3336 69.125 56.0331Z" fill="#E0E0E0"/>
<path d="M59.1326 62.4229C59.0191 65.6919 58.8773 68.9619 58.707 72.2329H68.5232C68.6914 68.9619 68.8333 65.6919 68.9488 62.4229H59.1326ZM67.7085 71.3787H59.6069C59.7406 68.6751 59.8582 65.9746 59.9595 63.2771H68.0611C67.9618 65.9746 67.8443 68.6751 67.7085 71.3787Z" fill="#E0E0E0"/>
<path d="M56.9588 78.7695C56.8453 82.0406 56.7034 85.3116 56.5332 88.5827H66.3463C66.5145 85.3096 66.6564 82.0385 66.7719 78.7695H56.9588ZM65.5346 87.7284H57.433C57.5668 85.0269 57.6843 82.3253 57.7857 79.6238H65.8873C65.7859 82.3233 65.6684 85.0248 65.5346 87.7284Z" fill="#E0E0E0"/>
<path d="M29.2981 36.9629H57.0441C57.0218 37.5709 56.9985 38.1789 56.9742 38.7869H29.2251L29.2981 36.9629Z" fill="#E6E6E6"/>
<path d="M35.6087 34.0479H57.3173C57.293 34.6559 57.2626 35.2639 57.2352 35.8719H35.5205C35.5509 35.2639 35.5783 34.6559 35.6087 34.0479Z" fill="#E6E6E6"/>
<path d="M26.7531 53.3672H54.4962C54.4749 53.9752 54.4506 54.5832 54.4263 55.1912H26.6802C26.7045 54.5893 26.7319 53.9752 26.7531 53.3672Z" fill="#E6E6E6"/>
<path d="M33.0646 50.4424H54.7763C54.7489 51.0504 54.7185 51.6584 54.6912 52.2664H32.9795C33.0069 51.6614 33.0281 51.0504 33.0646 50.4424Z" fill="#E6E6E6"/>
<path d="M24.8201 83.9707H52.5632C52.5389 84.5787 52.5176 85.1867 52.4902 85.7947H24.7441C24.7725 85.1908 24.7978 84.5828 24.8201 83.9707Z" fill="#E6E6E6"/>
<path d="M31.1311 81.0459H52.8398C52.8154 81.6539 52.785 82.2619 52.7577 82.8699H31.043C31.0734 82.2649 31.1007 81.6569 31.1311 81.0459Z" fill="#E6E6E6"/>
<path d="M26.6165 67.874H54.3596C54.3352 68.482 54.314 69.09 54.2866 69.698H26.5405C26.5689 69.0941 26.5942 68.4861 26.6165 67.874Z" fill="#E6E6E6"/>
<path d="M32.9245 64.9492H54.6362C54.6118 65.5572 54.5814 66.1652 54.551 66.7732H32.8394C32.8667 66.1683 32.8971 65.5603 32.9245 64.9492Z" fill="#E6E6E6"/>
<path d="M37.3872 26.7275H66.4678L66.2125 25.8155C65.5558 23.5294 65.2518 22.0155 63.1238 22.0155C63.1238 22.0155 55.992 21.6112 55.7944 20.994C55.5555 20.2629 55.0899 19.6268 54.4651 19.178C53.8403 18.7293 53.0889 18.4911 52.3197 18.4982C51.5248 18.5077 50.75 18.7489 50.0901 19.1922C49.4303 19.6356 48.9141 20.2617 48.6048 20.994C48.3494 21.602 40.5822 22.0155 40.5822 22.0155C38.439 22.0155 38.591 23.5355 37.7277 25.8155L37.3872 26.7275Z" fill="#E0E0E0"/>
<path d="M63.3367 36.8298C63.3252 36.9901 63.3463 37.1511 63.3985 37.3031C63.4507 37.4551 63.5331 37.595 63.6407 37.7144C63.8884 37.8898 64.1956 37.9598 64.4949 37.909C65.7109 37.8087 66.7962 37.1155 67.772 36.389C69.6469 34.9746 71.3326 33.3256 72.788 31.4824C70.9377 32.7308 69.0407 33.9083 67.0972 35.0149C66.5058 35.3781 65.873 35.669 65.2124 35.8813C64.9448 35.9573 64.58 35.9634 64.4736 35.708C64.3429 35.404 64.7351 34.945 64.4736 34.7383C64.2122 34.5315 63.6589 34.9997 63.5343 35.2095C63.2911 35.6047 63.3215 36.3768 63.3367 36.8298Z" fill="#E0E0E0"/>
<path d="M61.1633 52.5915C61.1519 52.7518 61.1729 52.9128 61.2252 53.0648C61.2774 53.2168 61.3598 53.3567 61.4673 53.4761C61.7151 53.6516 62.0223 53.7215 62.3216 53.6707C63.5376 53.5673 64.6229 52.8773 65.5987 52.1507C67.4728 50.7354 69.1584 49.0866 70.6147 47.2441C68.7623 48.4926 66.8654 49.669 64.9238 50.7736C64.3332 51.139 63.7003 51.4309 63.039 51.643C62.7715 51.719 62.4067 51.7251 62.3003 51.4667C62.1696 51.1627 62.5617 50.7067 62.3003 50.5C62.0389 50.2933 61.4856 50.7614 61.3609 50.9681C61.1177 51.3512 61.1481 52.1203 61.1633 52.5915Z" fill="#E0E0E0"/>
<path d="M60.1541 68.3209C60.1435 68.4816 60.1649 68.6428 60.2171 68.7952C60.2693 68.9476 60.3512 69.0881 60.4581 69.2086C60.5802 69.2955 60.7182 69.3574 60.8643 69.3908C61.0104 69.4242 61.1616 69.4284 61.3093 69.4031C62.5253 69.2998 63.6106 68.6097 64.5865 67.8831C66.4606 66.4679 68.1462 64.819 69.6025 62.9766C67.7541 64.227 65.8572 65.4035 63.9116 66.506C63.3218 66.8708 62.6899 67.1627 62.0298 67.3754C61.7623 67.4514 61.3945 67.4575 61.2881 67.1991C61.1573 66.8951 61.5495 66.4361 61.2881 66.2324C61.0266 66.0287 60.4733 66.4908 60.3487 66.7006C60.1085 67.0958 60.1389 67.8679 60.1541 68.3209Z" fill="#E0E0E0"/>
<path d="M111.478 96.4801C111.782 96.8541 112.086 97.2979 111.989 97.7691C111.92 98.0266 111.756 98.2488 111.531 98.3913C111.306 98.5338 111.035 98.5863 110.773 98.5382C110.514 98.4804 110.273 98.3578 110.075 98.1818C109.876 98.0058 109.725 97.7822 109.636 97.532C109.514 97.228 109.472 96.8936 109.353 96.5865C109.01 95.6989 108.137 95.1547 107.31 94.6744C107.259 95.5864 107.782 96.4589 108.399 97.1459C109.016 97.8329 109.754 98.4197 110.29 99.1766C110.825 99.9336 111.135 100.937 110.767 101.788C110.741 101.861 110.696 101.925 110.636 101.973C110.544 102.026 110.435 102.041 110.332 102.016C109.365 101.885 108.706 100.979 108.28 100.098C107.854 99.2161 107.502 98.2403 106.721 97.6657C107.064 98.827 107.997 99.7208 108.49 100.827C108.799 101.545 108.92 102.329 108.842 103.106C108.764 103.883 108.489 104.628 108.043 105.269C108.011 105.326 107.968 105.376 107.915 105.416C107.863 105.456 107.803 105.484 107.739 105.5C107.55 105.521 107.414 105.33 107.335 105.156C106.544 103.433 107.125 101.101 105.757 99.7877C105.544 100.25 105.334 100.7 105.122 101.168C105.013 101.458 104.844 101.722 104.626 101.943C104.513 102.049 104.37 102.118 104.217 102.141C104.064 102.163 103.907 102.138 103.769 102.068C103.361 101.806 103.465 101.192 103.647 100.742C104.098 99.5738 104.656 98.4493 105.313 97.383C104.854 97.1672 104.401 97.6384 104.058 98.0214C103.714 98.4045 103.082 98.7419 102.772 98.3254C102.681 98.1881 102.637 98.0248 102.647 97.8603C102.647 97.0577 103.197 96.3646 103.781 95.8113C104.365 95.2581 105.027 94.7656 105.416 94.0664C104.979 94.1986 104.513 94.2102 104.07 94.0998C103.641 93.9509 103.298 93.4614 103.462 93.0419C103.979 92.4559 104.551 91.9205 105.17 91.4428C105.866 91.224 106.547 91.8654 107.073 92.2515C108.727 93.4539 110.209 94.8766 111.478 96.4801Z" fill="#EBEBEB"/>
<path d="M107.636 103.272C107.636 103.038 107.636 102.81 107.636 102.582C107.56 96.0336 106.42 93.5894 106.116 93.5195L106.085 93.2155C106.136 93.2105 106.186 93.2169 106.234 93.2343C106.281 93.2517 106.324 93.2796 106.359 93.3158C106.967 93.8387 107.879 96.7358 107.955 102.576C107.955 102.804 107.955 103.032 107.955 103.263L107.636 103.272Z" fill="#E0E0E0"/>
<path d="M107.629 106.649C107.629 106.457 107.629 103.67 107.629 102.618V102.207C107.629 95.939 108.584 92.826 109.225 92.2636C109.261 92.2265 109.305 92.1977 109.353 92.1793C109.402 92.1609 109.454 92.1534 109.505 92.1572L109.466 92.4612C109.146 92.5342 107.946 95.1608 107.946 102.207V102.618C107.946 103.667 107.946 106.454 107.946 106.646L107.629 106.649Z" fill="#E0E0E0"/>
<path d="M111.928 116.775H103.714L102.912 106.901H112.731L111.928 116.775Z" fill="#F0F0F0"/>
<path d="M113.366 107.409H102.194L101.994 106.096H113.57L113.366 107.409Z" fill="#FAFAFA"/>
<path d="M96.8253 90.999C96.2598 90.999 95.6093 91.0173 95.2384 91.4337C95.0453 91.6821 94.9517 91.9935 94.9759 92.3072C95 92.6208 95.1402 92.9142 95.3691 93.1301C95.6096 93.3336 95.8975 93.4732 96.2062 93.5359C96.515 93.5986 96.8345 93.5824 97.1354 93.4888C97.5123 93.3824 97.8589 93.1848 98.2328 93.0814C99.3211 92.7774 100.464 93.2152 101.507 93.6529C100.668 94.3613 99.4762 94.4798 98.3818 94.3856C97.2874 94.2913 96.2082 94.0086 95.1107 94.039C94.0133 94.0694 92.8368 94.4981 92.2926 95.4526C92.2433 95.529 92.215 95.6171 92.2105 95.708C92.2262 95.8332 92.288 95.9481 92.3838 96.0302C93.2016 96.8541 94.5331 96.8297 95.6701 96.6078C96.807 96.3859 97.9866 95.9998 99.0992 96.3403C97.7525 96.8419 96.2386 96.5957 94.8432 96.9209C93.9426 97.1388 93.1126 97.5833 92.4321 98.2122C91.7515 98.8411 91.2431 99.6335 90.955 100.514C90.9235 100.585 90.9072 100.662 90.9072 100.739C90.9072 100.817 90.9235 100.893 90.955 100.964C91.0705 101.156 91.3502 101.15 91.563 101.101C93.7609 100.621 95.5545 98.4075 97.7768 98.7662L96.9195 100.353C96.7228 100.664 96.5943 101.013 96.5425 101.378C96.5183 101.562 96.5528 101.75 96.6412 101.913C96.7297 102.077 96.8675 102.209 97.035 102.29C97.5701 102.49 98.0778 101.946 98.3787 101.46C99.1635 100.198 99.8311 98.8669 100.373 97.4833C100.905 97.763 100.789 98.5413 100.677 99.131C100.564 99.7208 100.677 100.569 101.285 100.575C101.48 100.564 101.667 100.488 101.814 100.359C102.568 99.7816 102.838 98.7723 102.945 97.8269C103.051 96.8814 103.048 95.8995 103.437 95.0301C103.619 95.5368 103.934 95.9852 104.349 96.3281C104.799 96.6321 105.508 96.6078 105.781 96.1427C105.972 95.2346 106.074 94.3102 106.085 93.3824C105.796 92.5646 104.702 92.3792 103.957 92.1512C101.643 91.4464 99.2437 91.0588 96.8253 90.999Z" fill="#F5F5F5"/>
<path d="M111.208 101.536C111.463 102.041 111.789 102.588 112.339 102.734C112.649 102.788 112.967 102.725 113.233 102.556C113.498 102.387 113.691 102.125 113.774 101.822C113.842 101.514 113.83 101.195 113.741 100.893C113.652 100.591 113.487 100.316 113.263 100.095C112.992 99.8125 112.655 99.5967 112.387 99.314C111.603 98.4962 111.46 97.2802 111.357 96.1554C112.378 96.5658 113.041 97.5599 113.47 98.5722C113.898 99.5845 114.157 100.67 114.701 101.612C115.245 102.555 116.169 103.406 117.267 103.436C117.357 103.443 117.449 103.427 117.531 103.388C117.634 103.315 117.707 103.207 117.735 103.084C118.078 101.977 117.431 100.813 116.704 99.9128C115.978 99.013 115.096 98.1436 114.862 97.0066C115.938 97.9612 116.428 99.4143 117.373 100.503C117.989 101.195 118.77 101.719 119.645 102.026C120.519 102.332 121.458 102.411 122.371 102.254C122.448 102.248 122.523 102.227 122.591 102.191C122.66 102.156 122.72 102.107 122.769 102.047C122.888 101.852 122.751 101.609 122.605 101.439C121.149 99.7243 118.349 99.1772 117.625 97.0461H119.431C119.797 97.0747 120.165 97.0249 120.51 96.9002C120.682 96.8339 120.829 96.7157 120.93 96.562C121.031 96.4083 121.082 96.2269 121.076 96.0429C121 95.4744 120.285 95.2829 119.711 95.2434C118.229 95.1425 116.742 95.1771 115.266 95.3468C115.266 94.7388 116.005 94.4834 116.583 94.3192C117.16 94.1551 117.844 93.6322 117.571 93.1032C117.469 92.9364 117.315 92.808 117.133 92.7384C116.266 92.3432 115.248 92.5773 114.363 92.9269C113.479 93.2765 112.612 93.7416 111.664 93.8055C112.025 93.4018 112.271 92.9082 112.375 92.3767C112.43 91.8416 112.071 91.2245 111.539 91.2002C110.649 91.4617 109.786 91.8078 108.961 92.2338C108.375 92.8692 108.724 93.924 108.873 94.6871C109.339 97.0651 110.124 99.369 111.208 101.536Z" fill="#F0F0F0"/>
<path opacity="0.2" d="M113.555 30.3993C113.555 30.5026 113.555 30.604 113.555 30.7033V38.6073H102.744L102.17 38.0601L102.744 30.3993C102.744 28.9657 103.314 27.5909 104.328 26.5773C105.341 25.5636 106.716 24.9941 108.15 24.9941C109.583 24.9941 110.958 25.5636 111.972 26.5773C112.985 27.5909 113.555 28.9657 113.555 30.3993Z" fill="black"/>
<path d="M112.98 29.8651C112.98 29.9715 112.98 30.0748 112.98 30.1691V38.0366H102.17V29.8651C102.17 28.4316 102.739 27.0567 103.753 26.0431C104.767 25.0294 106.142 24.46 107.575 24.46C109.009 24.46 110.383 25.0294 111.397 26.0431C112.411 27.0567 112.98 28.4316 112.98 29.8651Z" fill="#F5F5F5"/>
<path d="M111.505 30.598C111.84 28.533 110.438 26.5873 108.373 26.2521C106.308 25.917 104.362 27.3192 104.027 29.3841C103.692 31.4491 105.094 33.3948 107.159 33.73C109.224 34.0651 111.169 32.6629 111.505 30.598Z" fill="#E0E0E0"/>
<path d="M107.323 33.7104C109.414 33.7104 111.11 32.0146 111.11 29.9226C111.11 27.8306 109.414 26.1348 107.323 26.1348C105.231 26.1348 103.535 27.8306 103.535 29.9226C103.535 32.0146 105.231 33.7104 107.323 33.7104Z" fill="white"/>
<path d="M107.575 30.1751C107.575 30.2352 107.557 30.294 107.524 30.344C107.49 30.394 107.443 30.4329 107.387 30.456C107.332 30.479 107.27 30.485 107.211 30.4733C107.153 30.4615 107.098 30.4326 107.056 30.3901C107.013 30.3475 106.984 30.2934 106.973 30.2344C106.961 30.1754 106.967 30.1143 106.99 30.0588C107.013 30.0032 107.052 29.9557 107.102 29.9223C107.152 29.8889 107.211 29.8711 107.271 29.8711C107.351 29.8711 107.429 29.9031 107.486 29.9601C107.543 30.0171 107.575 30.0945 107.575 30.1751Z" fill="#E0E0E0"/>
<path d="M107.232 30.2872L105.924 29.056L106.052 28.9192L107.238 30.0349L109.363 28.1592L109.484 28.299L107.232 30.2872Z" fill="#E0E0E0"/>
<path d="M76.5002 129.811C109.053 129.811 135.443 128.271 135.443 126.37C135.443 124.469 109.053 122.929 76.5002 122.929C43.9471 122.929 17.5576 124.469 17.5576 126.37C17.5576 128.271 43.9471 129.811 76.5002 129.811Z" fill="#F5F5F5"/>
<path d="M75.415 80.8281V118.019H76.3818L77.5977 80.8281H75.415Z" fill="#407BFF"/>
<path d="M86.8271 82.0439V116.499H87.7939L89.0099 82.0439H86.8271Z" fill="#407BFF"/>
<path opacity="0.5" d="M86.8271 82.0439V116.499H87.7939L89.0099 82.0439H86.8271Z" fill="black"/>
<path d="M133.384 80.8281V116.499H132.418L131.202 80.8281H133.384Z" fill="#407BFF"/>
<path opacity="0.5" d="M133.384 80.8281V116.499H132.418L131.202 80.8281H133.384Z" fill="black"/>
<path d="M121.972 82.0439V117.791H121.006L119.79 82.0439H121.972Z" fill="#407BFF"/>
<path d="M140.063 79.709H68.0337V81.2685H140.063V79.709Z" fill="#407BFF"/>
<path d="M135.327 82.9345H73.135L70.6118 81.2686H137.851L135.327 82.9345Z" fill="#407BFF"/>
<path opacity="0.5" d="M135.327 82.9345H73.135L70.6118 81.2686H137.851L135.327 82.9345Z" fill="black"/>
<path d="M80.3546 75.8506H95.5425V72.0749H80.3546V75.8506Z" fill="#407BFF"/>
<path opacity="0.6" d="M80.4035 75.8662H95.5913V72.0905H80.4035V75.8662Z" fill="white"/>
<path opacity="0.6" d="M80.3578 75.8662H92.0132V72.0905H80.3578V75.8662Z" fill="white"/>
<path d="M80.431 75.3702L95.5428 75.8414L95.5276 75.4583L80.4219 75.2607L80.431 75.3702Z" fill="#407BFF"/>
<path d="M95.5426 73.6255L80.4551 72.7773V72.902L95.5426 73.9113V73.6255Z" fill="#407BFF"/>
<path d="M95.5426 72.4854L80.4551 72.8289V72.9535L95.5426 72.7711V72.4854Z" fill="#407BFF"/>
<path d="M95.5852 74.3676L80.4946 75.1032V74.9908L95.5852 74.1152V74.3676Z" fill="#407BFF"/>
<path d="M81.4128 79.7754H96.6006V75.9997H81.4128V79.7754Z" fill="#407BFF"/>
<path opacity="0.6" d="M81.4645 79.7939H96.6523V76.0182H81.4645V79.7939Z" fill="white"/>
<path opacity="0.6" d="M93.1046 76.0146H81.4492V79.7903H93.1046V76.0146Z" fill="white"/>
<path d="M96.537 79.1855L81.4343 79.3801L81.416 79.7631L96.5279 79.295L96.537 79.1855Z" fill="#407BFF"/>
<path d="M81.5132 76.0488L96.6038 76.061V76.1856H81.5132V76.0488Z" fill="#407BFF"/>
<path d="M81.416 77.8362L96.5066 76.8269V76.6992L81.416 77.5474V77.8362Z" fill="#407BFF"/>
<path d="M96.6038 76.4072L81.5132 76.7538V76.8784L96.6038 76.696V76.4072Z" fill="#407BFF"/>
<path d="M96.6463 78.2924L81.5527 79.025V78.9156L96.6463 78.04V78.2924Z" fill="#407BFF"/>
<path d="M94.269 57.4375L79.0902 57.5135L79.0659 61.2132H94.269V57.4375Z" fill="#407BFF"/>
<path opacity="0.6" d="M79.0812 61.2129H94.269V57.4372H79.0812V61.2129Z" fill="white"/>
<path opacity="0.6" d="M90.7213 57.4375H79.0659V61.2132H90.7213V57.4375Z" fill="white"/>
<path d="M91.1804 57.5137H79.0903V57.8967H90.922L91.1804 57.5137Z" fill="#407BFF"/>
<path d="M94.1809 59.0605L79.0903 59.2004V59.3129H94.1809V59.0605Z" fill="#407BFF"/>
<path d="M79.0903 60.8089L94.1809 60.0732V60.1827L79.0903 61.0582V60.8089Z" fill="#407BFF"/>
<path d="M79.0903 59.3896L94.1809 59.6906V59.797L79.0903 59.6389V59.3896Z" fill="#407BFF"/>
<path d="M94.2048 71.2422H79.1143V72.1572H94.2048V71.2422Z" fill="#407BFF"/>
<path opacity="0.6" d="M94.2048 71.251H79.1143V72.1599H94.2048V71.251Z" fill="white"/>
<path opacity="0.6" d="M91.1405 71.1934H79.1143V72.1601H91.1405V71.1934Z" fill="white"/>
<path d="M79.1236 71.6553L94.2172 71.8407L94.2142 71.8985L79.1206 71.786L79.1236 71.6553Z" fill="#407BFF"/>
<path d="M79.1235 71.4795L94.2141 71.6345V71.6923L79.1235 71.6102V71.4795Z" fill="#407BFF"/>
<path d="M94.3571 61.4081V63.8097C94.4184 63.8097 94.4771 63.834 94.5205 63.8773C94.5638 63.9207 94.5881 63.9794 94.5881 64.0407C94.5881 64.102 94.5638 64.1607 94.5205 64.2041C94.4771 64.2474 94.4184 64.2717 94.3571 64.2717C93.4451 64.2717 92.5331 64.2717 91.6211 64.2717V60.9277H94.3571C94.4208 60.9277 94.4819 60.953 94.5269 60.9981C94.5719 61.0431 94.5973 61.1042 94.5973 61.1679C94.5973 61.2316 94.5719 61.2927 94.5269 61.3377C94.4819 61.3828 94.4208 61.4081 94.3571 61.4081Z" fill="#407BFF"/>
<path opacity="0.3" d="M94.3571 61.4081V63.8097C94.4184 63.8097 94.4771 63.834 94.5205 63.8773C94.5638 63.9207 94.5881 63.9794 94.5881 64.0407C94.5881 64.102 94.5638 64.1607 94.5205 64.2041C94.4771 64.2474 94.4184 64.2717 94.3571 64.2717C93.4451 64.2717 92.5331 64.2717 91.6211 64.2717V60.9277H94.3571C94.4208 60.9277 94.4819 60.953 94.5269 60.9981C94.5719 61.0431 94.5973 61.1042 94.5973 61.1679C94.5973 61.2316 94.5719 61.2927 94.5269 61.3377C94.4819 61.3828 94.4208 61.4081 94.3571 61.4081Z" fill="white"/>
<path d="M94.3572 61.417H92.2231V63.8156H94.3572V61.417Z" fill="#407BFF"/>
<path opacity="0.6" d="M94.3572 61.417H92.2231V63.8156H94.3572V61.417Z" fill="white"/>
<path d="M92.6698 61.1826H80.8837C80.373 61.1826 79.9717 61.8241 79.9717 62.6145C79.9717 63.4049 80.3821 64.0463 80.8837 64.0463H92.6698V61.1826Z" fill="#407BFF"/>
<path opacity="0.9" d="M92.6698 61.1826H80.8837C80.373 61.1826 79.9717 61.8241 79.9717 62.6145C79.9717 63.4049 80.3821 64.0463 80.8837 64.0463H92.6698V61.1826Z" fill="white"/>
<path d="M92.6701 64.2778C90.2381 64.2778 83.4346 64.3203 81.0117 64.2778C79.3518 64.2474 79.2637 61.0645 80.8901 60.9551C82.027 60.876 83.1944 60.9551 84.3314 60.9551H92.6701C92.7264 60.9615 92.7784 60.9885 92.8161 61.0308C92.8538 61.0732 92.8747 61.1279 92.8747 61.1846C92.8747 61.2413 92.8538 61.296 92.8161 61.3383C92.7784 61.3806 92.7264 61.4076 92.6701 61.4141H81.3947C80.8627 61.4141 80.4827 61.4141 80.279 62.0464C80.0997 62.5906 80.1574 63.6971 80.887 63.8157C80.97 63.8233 81.0534 63.8233 81.1363 63.8157H92.6731C92.7344 63.8157 92.7932 63.84 92.8365 63.8834C92.8798 63.9267 92.9042 63.9855 92.9042 64.0467C92.9042 64.108 92.8798 64.1668 92.8365 64.2101C92.7932 64.2534 92.7344 64.2778 92.6731 64.2778H92.6701Z" fill="#407BFF"/>
<g opacity="0.2">
<path opacity="0.2" d="M92.6701 64.2778C90.2381 64.2778 83.4346 64.3203 81.0117 64.2778C79.3518 64.2474 79.2637 61.0645 80.8901 60.9551C82.027 60.876 83.1944 60.9551 84.3314 60.9551H92.6701C92.7264 60.9615 92.7784 60.9885 92.8161 61.0308C92.8538 61.0732 92.8747 61.1279 92.8747 61.1846C92.8747 61.2413 92.8538 61.296 92.8161 61.3383C92.7784 61.3806 92.7264 61.4076 92.6701 61.4141H81.3947C80.8627 61.4141 80.4827 61.4141 80.279 62.0464C80.0997 62.5906 80.1574 63.6971 80.887 63.8157C80.97 63.8233 81.0534 63.8233 81.1363 63.8157H92.6731C92.7344 63.8157 92.7932 63.84 92.8365 63.8834C92.8798 63.9267 92.9042 63.9855 92.9042 64.0467C92.9042 64.108 92.8798 64.1668 92.8365 64.2101C92.7932 64.2534 92.7344 64.2778 92.6731 64.2778H92.6701Z" fill="white"/>
</g>
<path d="M91.8189 64.657V66.8793C91.8753 66.8793 91.9295 66.9017 91.9694 66.9416C92.0093 66.9815 92.0317 67.0356 92.0317 67.0921C92.0317 67.1485 92.0093 67.2027 91.9694 67.2426C91.9295 67.2825 91.8753 67.3049 91.8189 67.3049C90.9707 67.3049 90.1226 67.3049 89.2744 67.3049V64.2314H91.8189C91.8753 64.2314 91.9295 64.2539 91.9694 64.2938C92.0093 64.3337 92.0317 64.3878 92.0317 64.4442C92.0317 64.5007 92.0093 64.5548 91.9694 64.5947C91.9295 64.6346 91.8753 64.657 91.8189 64.657Z" fill="#407BFF"/>
<path opacity="0.3" d="M91.8189 64.657V66.8793C91.8753 66.8793 91.9295 66.9017 91.9694 66.9416C92.0093 66.9815 92.0317 67.0356 92.0317 67.0921C92.0317 67.1485 92.0093 67.2027 91.9694 67.2426C91.9295 67.2825 91.8753 67.3049 91.8189 67.3049C90.9707 67.3049 90.1226 67.3049 89.2744 67.3049V64.2314H91.8189C91.8753 64.2314 91.9295 64.2539 91.9694 64.2938C92.0093 64.3337 92.0317 64.3878 92.0317 64.4442C92.0317 64.5007 92.0093 64.5548 91.9694 64.5947C91.9295 64.6346 91.8753 64.657 91.8189 64.657Z" fill="white"/>
<path d="M91.8188 64.6602H89.8428V66.8824H91.8188V64.6602Z" fill="#407BFF"/>
<path opacity="0.6" d="M91.8188 64.6602H89.8428V66.8824H91.8188V64.6602Z" fill="white"/>
<path d="M90.2561 64.4473H79.3425C78.8713 64.4473 78.4883 65.0401 78.4883 65.7727C78.4883 66.5054 78.8713 67.0982 79.3425 67.0982H90.2561V64.4473Z" fill="#407BFF"/>
<path opacity="0.9" d="M90.2561 64.4473H79.3425C78.8713 64.4473 78.4883 65.0401 78.4883 65.7727C78.4883 66.5054 78.8713 67.0982 79.3425 67.0982H90.2561V64.4473Z" fill="white"/>
<path d="M90.256 67.3081C88.0124 67.3081 81.7044 67.3476 79.4609 67.3081C77.9227 67.2808 77.8406 64.335 79.3484 64.2316C80.4003 64.1587 81.4764 64.2316 82.5344 64.2316H90.256C90.3124 64.2316 90.3665 64.2541 90.4064 64.294C90.4463 64.3339 90.4688 64.388 90.4688 64.4444C90.4688 64.5009 90.4463 64.555 90.4064 64.5949C90.3665 64.6348 90.3124 64.6572 90.256 64.6572H79.8136C79.3211 64.6572 78.9715 64.6572 78.78 65.244C78.6158 65.7456 78.6675 66.764 79.3424 66.8825C79.4182 66.8886 79.4945 66.8886 79.5704 66.8825H90.256C90.3124 66.8825 90.3665 66.9049 90.4064 66.9449C90.4463 66.9848 90.4688 67.0389 90.4688 67.0953C90.4688 67.1518 90.4463 67.2059 90.4064 67.2458C90.3665 67.2857 90.3124 67.3081 90.256 67.3081Z" fill="#407BFF"/>
<path d="M95.2173 67.7914V70.4393C95.2798 70.4461 95.3376 70.4758 95.3796 70.5227C95.4216 70.5695 95.4448 70.6302 95.4448 70.6931C95.4448 70.756 95.4216 70.8167 95.3796 70.8636C95.3376 70.9104 95.2798 70.9401 95.2173 70.947C94.208 70.947 93.1987 70.947 92.1772 70.947V67.2686H95.2173C95.2866 67.2686 95.3531 67.2961 95.4021 67.3451C95.4511 67.3942 95.4787 67.4607 95.4787 67.53C95.4787 67.5993 95.4511 67.6658 95.4021 67.7149C95.3531 67.7639 95.2866 67.7914 95.2173 67.7914Z" fill="#407BFF"/>
<path opacity="0.3" d="M95.2173 67.7914V70.4393C95.2798 70.4461 95.3376 70.4758 95.3796 70.5227C95.4216 70.5695 95.4448 70.6302 95.4448 70.6931C95.4448 70.756 95.4216 70.8167 95.3796 70.8636C95.3376 70.9104 95.2798 70.9401 95.2173 70.947C94.208 70.947 93.1987 70.947 92.1772 70.947V67.2686H95.2173C95.2866 67.2686 95.3531 67.2961 95.4021 67.3451C95.4511 67.3942 95.4787 67.4607 95.4787 67.53C95.4787 67.5993 95.4511 67.6658 95.4021 67.7149C95.3531 67.7639 95.2866 67.7914 95.2173 67.7914Z" fill="white"/>
<path d="M95.2172 67.7793H92.8643V70.4241H95.2172V67.7793Z" fill="#407BFF"/>
<path opacity="0.6" d="M95.2172 67.7793H92.8643V70.4241H95.2172V67.7793Z" fill="white"/>
<path d="M93.3568 67.5244H80.3669C79.8045 67.5244 79.3516 68.2297 79.3516 69.1022C79.3516 69.9747 79.8045 70.6799 80.3669 70.6799H93.3568V67.5244Z" fill="#407BFF"/>
<path opacity="0.9" d="M93.3568 67.5244H80.3669C79.8045 67.5244 79.3516 68.2297 79.3516 69.1022C79.3516 69.9747 79.8045 70.6799 80.3669 70.6799H93.3568V67.5244Z" fill="white"/>
<path d="M93.357 70.9325C90.6849 70.9325 83.1791 70.9811 80.507 70.9325C78.683 70.899 78.5796 67.3939 80.3732 67.2693C81.6257 67.1842 82.9116 67.2693 84.1641 67.2693H93.357C93.4196 67.2761 93.4774 67.3058 93.5194 67.3527C93.5614 67.3995 93.5846 67.4602 93.5846 67.5231C93.5846 67.586 93.5614 67.6467 93.5194 67.6936C93.4774 67.7404 93.4196 67.7701 93.357 67.777H80.9295C80.3428 67.777 79.9263 67.777 79.6983 68.4762C79.5038 69.0842 79.5646 70.3002 80.3671 70.4248C80.4582 70.4324 80.5497 70.4324 80.6407 70.4248H93.357C93.4196 70.4317 93.4774 70.4613 93.5194 70.5082C93.5614 70.555 93.5846 70.6157 93.5846 70.6786C93.5846 70.7415 93.5614 70.8022 93.5194 70.8491C93.4774 70.8959 93.4196 70.9256 93.357 70.9325Z" fill="#407BFF"/>
<g opacity="0.2">
<path opacity="0.2" d="M93.357 70.9325C90.6849 70.9325 83.1791 70.9811 80.507 70.9325C78.683 70.899 78.5796 67.3939 80.3732 67.2693C81.6257 67.1842 82.9116 67.2693 84.1641 67.2693H93.357C93.4196 67.2761 93.4774 67.3058 93.5194 67.3527C93.5614 67.3995 93.5846 67.4602 93.5846 67.5231C93.5846 67.586 93.5614 67.6467 93.5194 67.6936C93.4774 67.7404 93.4196 67.7701 93.357 67.777H80.9295C80.3428 67.777 79.9263 67.777 79.6983 68.4762C79.5038 69.0842 79.5646 70.3002 80.3671 70.4248C80.4582 70.4324 80.5497 70.4324 80.6407 70.4248H93.357C93.4196 70.4317 93.4774 70.4613 93.5194 70.5082C93.5614 70.555 93.5846 70.6157 93.5846 70.6786C93.5846 70.7415 93.5614 70.8022 93.5194 70.8491C93.4774 70.8959 93.4196 70.9256 93.357 70.9325Z" fill="black"/>
</g>
<path d="M115.485 78.8755L97.8286 78.9545C97.7117 78.9571 97.5957 78.9345 97.4884 78.8884C97.381 78.8423 97.2847 78.7738 97.2061 78.6874C97.1275 78.6009 97.0683 78.4987 97.0325 78.3874C96.9967 78.2762 96.9851 78.1586 96.9986 78.0425L97.935 66.752C97.9587 66.5061 98.0718 66.2776 98.2527 66.1095C98.4337 65.9414 98.67 65.8455 98.9169 65.84L116.573 65.7609C116.69 65.7584 116.806 65.781 116.913 65.827C117.021 65.8731 117.117 65.9417 117.196 66.0281C117.274 66.1145 117.334 66.2168 117.369 66.328C117.405 66.4393 117.417 66.5569 117.403 66.6729L116.467 77.9635C116.443 78.2093 116.33 78.4379 116.149 78.606C115.968 78.7741 115.732 78.87 115.485 78.8755Z" fill="#263238"/>
<path d="M115.439 77.9855L97.5215 78.0676L98.4639 66.704L116.382 66.625L115.439 77.9855Z" fill="#407BFF"/>
<path d="M115.196 78.8755L97.5399 78.9545C97.4229 78.9576 97.3067 78.9354 97.1991 78.8894C97.0915 78.8435 96.995 78.775 96.9162 78.6884C96.8375 78.6019 96.7783 78.4994 96.7427 78.388C96.7071 78.2765 96.696 78.1587 96.71 78.0425L97.6463 66.752C97.67 66.5061 97.7831 66.2776 97.964 66.1095C98.145 65.9414 98.3813 65.8455 98.6282 65.84L116.285 65.7609C116.401 65.7584 116.517 65.781 116.625 65.827C116.732 65.8731 116.828 65.9417 116.907 66.0281C116.986 66.1145 117.045 66.2168 117.081 66.328C117.116 66.4393 117.128 66.5569 117.114 66.6729L116.178 77.9635C116.154 78.2093 116.041 78.4379 115.86 78.606C115.679 78.7741 115.443 78.87 115.196 78.8755Z" fill="#407BFF"/>
<g opacity="0.7">
<path opacity="0.7" d="M115.306 77.8546L97.3911 77.9337L98.3335 66.5732L116.251 66.4941L115.306 77.8546Z" fill="#407BFF"/>
<path opacity="0.9" d="M114.5 77.8576L98.3519 77.9305C98.2297 77.931 98.1088 77.906 97.9968 77.8572C97.8848 77.8084 97.7841 77.7368 97.7012 77.6471C97.6183 77.5573 97.555 77.4513 97.5153 77.3358C97.4755 77.2203 97.4602 77.0977 97.4703 76.976L98.2668 67.3787C98.285 67.1588 98.3851 66.9537 98.5472 66.804C98.7093 66.6543 98.9217 66.5708 99.1423 66.5701L115.288 66.4971C115.41 66.4962 115.531 66.5209 115.643 66.5695C115.756 66.6182 115.857 66.6897 115.94 66.7795C116.022 66.8694 116.086 66.9756 116.125 67.0913C116.165 67.2071 116.18 67.3298 116.169 67.4517L115.373 77.052C115.355 77.2711 115.255 77.4754 115.093 77.6245C114.932 77.7737 114.72 77.8568 114.5 77.8576Z" fill="white"/>
</g>
<path opacity="0.1" d="M112.454 65.7707L109.013 78.8731L110.189 78.867L113.594 65.7646L112.454 65.7707Z" fill="white"/>
<path opacity="0.1" d="M114.272 65.7612L110.831 78.8636L113.165 78.8545L116.567 65.749L114.272 65.7612Z" fill="white"/>
<path d="M109.594 78.8115L115.552 78.8632C115.631 79.5563 115.324 79.8056 114.944 79.8026L93.132 79.7691C92.902 79.7683 92.6816 79.6764 92.5192 79.5134C92.3568 79.3504 92.2656 79.1298 92.2656 78.8997L109.594 78.8115Z" fill="#407BFF"/>
<path opacity="0.2" d="M109.594 78.8115L115.552 78.8632C115.631 79.5563 115.324 79.8056 114.944 79.8026L93.132 79.7691C92.902 79.7683 92.6816 79.6764 92.5192 79.5134C92.3568 79.3504 92.2656 79.1298 92.2656 78.8997L109.594 78.8115Z" fill="white"/>
<path opacity="0.2" d="M115.552 78.8637C115.631 79.5569 115.324 79.8061 114.944 79.8031H108.895C109.39 79.8031 110.022 79.3228 110.022 78.8242L115.552 78.8637Z" fill="white"/>
<path d="M116.75 68.1356C117.194 67.7786 117.752 67.594 118.321 67.6157C118.887 67.6377 119.441 67.7896 119.938 68.0596C119.985 67.33 120.029 66.6003 120.069 65.8708C120.103 65.3388 117.601 65.284 117.294 65.4056C116.485 65.7188 116.883 67.3816 116.75 68.1356Z" fill="#407BFF"/>
<path opacity="0.9" d="M116.75 68.1356C117.194 67.7786 117.752 67.594 118.321 67.6157C118.887 67.6377 119.441 67.7896 119.938 68.0596C119.985 67.33 120.029 66.6003 120.069 65.8708C120.103 65.3388 117.601 65.284 117.294 65.4056C116.485 65.7188 116.883 67.3816 116.75 68.1356Z" fill="white"/>
<path d="M116.446 69.7834C116.947 69.59 117.481 69.498 118.017 69.5128C118.564 69.5225 119.107 69.6001 119.635 69.7439C119.68 69.3669 119.723 68.9869 119.765 68.6069C119.799 68.3303 117.297 68.3029 116.99 68.3637C116.181 68.5279 116.58 69.3912 116.446 69.7834Z" fill="#407BFF"/>
<path opacity="0.9" d="M116.446 69.7834C116.947 69.59 117.481 69.498 118.017 69.5128C118.564 69.5225 119.107 69.6001 119.635 69.7439C119.68 69.3669 119.723 68.9869 119.765 68.6069C119.799 68.3303 117.297 68.3029 116.99 68.3637C116.181 68.5279 116.58 69.3912 116.446 69.7834Z" fill="white"/>
<path d="M116.324 71.759C116.826 71.5638 117.361 71.4718 117.899 71.4884C118.446 71.4983 118.989 71.5759 119.516 71.7195C119.559 71.3395 119.601 70.9625 119.647 70.5825C119.677 70.3059 117.178 70.2785 116.868 70.3393C116.063 70.5035 116.461 71.3668 116.324 71.759Z" fill="#407BFF"/>
<path opacity="0.9" d="M116.324 71.759C116.826 71.5638 117.361 71.4718 117.899 71.4884C118.446 71.4983 118.989 71.5759 119.516 71.7195C119.559 71.3395 119.601 70.9625 119.647 70.5825C119.677 70.3059 117.178 70.2785 116.868 70.3393C116.063 70.5035 116.461 71.3668 116.324 71.759Z" fill="white"/>
<path d="M113.497 63.5963C113.509 63.5659 113.526 63.538 113.548 63.5143C113.592 63.4825 113.647 63.4684 113.7 63.4747L115.692 63.4443C115.272 64.3571 115.051 65.3489 115.044 66.3536C114.555 66.3323 112.855 66.3536 112.855 66.3536C112.527 65.8307 113.284 64.1071 113.497 63.5963Z" fill="#407BFF"/>
<path opacity="0.9" d="M113.497 63.5963C113.509 63.5659 113.526 63.538 113.548 63.5143C113.592 63.4825 113.647 63.4684 113.7 63.4747L115.692 63.4443C115.272 64.3571 115.051 65.3489 115.044 66.3536C114.555 66.3323 112.855 66.3536 112.855 66.3536C112.527 65.8307 113.284 64.1071 113.497 63.5963Z" fill="white"/>
<path d="M110.095 63.3533C110.105 63.3214 110.123 63.2923 110.147 63.2682C110.19 63.2383 110.243 63.2244 110.296 63.2286L112.29 63.1982C111.87 64.111 111.649 65.1028 111.642 66.1075C111.153 66.0862 109.453 66.1075 109.453 66.1075C109.125 65.5877 109.882 63.864 110.095 63.3533Z" fill="#407BFF"/>
<path opacity="0.9" d="M110.095 63.3533C110.105 63.3214 110.123 63.2923 110.147 63.2682C110.19 63.2383 110.243 63.2244 110.296 63.2286L112.29 63.1982C111.87 64.111 111.649 65.1028 111.642 66.1075C111.153 66.0862 109.453 66.1075 109.453 66.1075C109.125 65.5877 109.882 63.864 110.095 63.3533Z" fill="white"/>
<path d="M107.298 63.3447C107.305 63.3158 107.317 63.2882 107.332 63.2626C107.344 63.2488 107.359 63.238 107.376 63.2311C107.393 63.2243 107.411 63.2215 107.429 63.2231H108.685C108.399 64.164 108.244 65.14 108.226 66.1232C107.922 66.0959 106.845 66.1232 106.845 66.1232C106.648 65.5669 107.155 63.8402 107.298 63.3447Z" fill="#407BFF"/>
<path opacity="0.9" d="M107.298 63.3447C107.305 63.3158 107.317 63.2882 107.332 63.2626C107.344 63.2488 107.359 63.238 107.376 63.2311C107.393 63.2243 107.411 63.2215 107.429 63.2231H108.685C108.399 64.164 108.244 65.14 108.226 66.1232C107.922 66.0959 106.845 66.1232 106.845 66.1232C106.648 65.5669 107.155 63.8402 107.298 63.3447Z" fill="white"/>
<g opacity="0.2">
<path opacity="0.2" d="M98.5343 65.9131C98.4975 66.3243 98.3797 66.7241 98.1877 67.0895C97.9705 67.5487 97.712 67.9873 97.4155 68.3998C98.9112 68.4302 100.042 68.5001 100.604 68.418C101.19 67.6001 101.431 66.5845 101.273 65.5908C100.389 65.8523 99.3125 65.6455 98.3974 65.8675L98.5343 65.9131Z" fill="black"/>
</g>
<path d="M98.5522 65.5723C98.4539 65.9825 98.2807 66.371 98.0415 66.7183C97.7602 67.1599 97.4408 67.5759 97.0869 67.9617C98.152 68.0645 99.2238 68.0777 100.291 68.0012C101.002 67.2351 101.316 66.4812 101.273 65.5905C100.212 65.5905 98.5522 65.5723 98.5522 65.5723Z" fill="#407BFF"/>
<g opacity="0.9">
<path opacity="0.9" d="M98.5522 65.5723C98.4539 65.9825 98.2807 66.371 98.0415 66.7183C97.7602 67.1599 97.4408 67.5759 97.0869 67.9617C98.152 68.0645 99.2238 68.0777 100.291 68.0012C101.002 67.2351 101.316 66.4812 101.273 65.5905C100.212 65.5905 98.5522 65.5723 98.5522 65.5723Z" fill="white"/>
</g>
<g opacity="0.2">
<path opacity="0.2" d="M102.644 65.6391C102.608 66.095 102.49 66.5408 102.298 66.9554C102.082 67.4657 101.824 67.9569 101.525 68.4237C103.024 68.4541 104.152 68.5332 104.714 68.442C105.306 67.4999 105.543 66.3782 105.383 65.2773C104.499 65.5813 103.422 65.3381 102.51 65.5813L102.644 65.6391Z" fill="black"/>
</g>
<path d="M102.644 65.2598C102.549 65.7128 102.376 66.1459 102.133 66.5396C101.855 67.03 101.536 67.4967 101.182 67.935C102.245 68.0479 103.317 68.0621 104.383 67.9775C105.054 67.2425 105.406 66.2722 105.365 65.278C104.31 65.278 102.644 65.2598 102.644 65.2598Z" fill="#407BFF"/>
<g opacity="0.9">
<path opacity="0.9" d="M102.644 65.2598C102.549 65.7128 102.376 66.1459 102.133 66.5396C101.855 67.03 101.536 67.4967 101.182 67.935C102.245 68.0479 103.317 68.0621 104.383 67.9775C105.054 67.2425 105.406 66.2722 105.365 65.278C104.31 65.278 102.644 65.2598 102.644 65.2598Z" fill="white"/>
</g>
<path d="M131.457 79.7665H126.505L128.058 74.7688L128.283 74.0361H129.405L131.457 79.7665Z" fill="#407BFF"/>
<path opacity="0.2" d="M131.457 79.7665H126.505L128.058 74.7688L128.283 74.0361H129.405L131.457 79.7665Z" fill="black"/>
<path d="M128.284 74.0361L128.059 74.7688L126.505 79.7665L121.927 79.6997L120.456 74.7688L120.228 74.0361H128.284Z" fill="#E0E0E0"/>
<path d="M128.284 74.0361L128.059 74.7688L126.505 79.7665L117.103 79.6297L119.106 74.0361H128.284Z" fill="#407BFF"/>
<path opacity="0.8" d="M128.284 74.0361L128.059 74.7688L126.505 79.7665L117.103 79.6297L119.106 74.0361H128.284Z" fill="white"/>
<path d="M128.283 74.0361L128.058 74.7688H118.847L119.106 74.0361H128.283Z" fill="#407BFF"/>
<path d="M120.276 77.1431H118.212L118.932 75.1094L120.908 75.1307L120.276 77.1431ZM118.452 76.9759H120.154L120.68 75.2979L119.051 75.2796L118.452 76.9759Z" fill="#407BFF"/>
<path d="M122.571 77.1431H120.507L121.228 75.1094L123.204 75.1307L122.571 77.1431ZM120.747 76.9759H122.45L122.973 75.2979L121.346 75.2796L120.747 76.9759Z" fill="#407BFF"/>
<path d="M124.882 77.1431H122.817L123.538 75.1094L125.511 75.1307L124.882 77.1431ZM123.058 76.9759H124.76L125.286 75.2979L123.659 75.2796L123.058 76.9759Z" fill="#407BFF"/>
<path d="M127.192 77.1431H125.14L125.861 75.1094L127.834 75.1307L127.192 77.1431ZM125.368 76.9759H127.071L127.596 75.2979L125.97 75.2796L125.368 76.9759Z" fill="#407BFF"/>
<path d="M119.543 79.3013H117.476L118.197 77.2676L120.173 77.2889L119.543 79.3013ZM117.719 79.1341H119.422L119.948 77.4561L118.318 77.4378L117.719 79.1341Z" fill="#407BFF"/>
<path d="M121.851 79.3013H119.787L120.507 77.2676L122.483 77.2889L121.851 79.3013ZM120.027 79.1341H121.729L122.252 77.4561L120.626 77.4378L120.027 79.1341Z" fill="#407BFF"/>
<path d="M124.161 79.3013H122.1L122.821 77.2676L124.794 77.2889L124.161 79.3013ZM122.337 79.1341H124.04L124.566 77.4561L122.939 77.4378L122.337 79.1341Z" fill="#407BFF"/>
<path d="M126.471 79.3013H124.407L125.128 77.2676L127.101 77.2889L126.471 79.3013ZM124.647 79.1341H126.356L126.882 77.4561L125.255 77.4378L124.647 79.1341Z" fill="#407BFF"/>
<path d="M120.121 77.0428C120.067 76.69 119.981 76.3429 119.863 76.0061C119.796 75.8329 119.115 74.7689 118.981 75.4194C118.942 75.6109 119.346 76.0761 119.455 76.2311C119.657 76.5177 119.88 76.789 120.121 77.0428Z" fill="#407BFF"/>
<path d="M118.637 76.6082C118.616 76.6721 118.622 76.7693 118.689 76.7724C118.713 76.7717 118.737 76.7632 118.756 76.7481C119.172 76.4745 119.486 76.0549 119.929 75.8361C120.145 75.7675 120.337 75.6414 120.486 75.4712C120.363 75.457 120.239 75.477 120.127 75.529C119.555 75.7418 118.859 75.9759 118.637 76.6082Z" fill="#407BFF"/>
<path d="M124.73 77.0906C124.677 76.7375 124.591 76.3903 124.471 76.054C124.404 75.8807 123.726 74.8167 123.59 75.4673C123.55 75.6588 123.954 76.1239 124.064 76.279C124.265 76.5656 124.488 76.8369 124.73 77.0906Z" fill="#407BFF"/>
<path d="M123.246 76.6685C123.225 76.7324 123.246 76.8297 123.298 76.8327C123.322 76.8321 123.345 76.8235 123.365 76.8084C123.781 76.5348 124.094 76.1153 124.538 75.8964C124.753 75.8266 124.945 75.7006 125.094 75.5316C124.972 75.5159 124.847 75.5359 124.736 75.5893C124.164 75.79 123.468 76.0241 123.246 76.6685Z" fill="#407BFF"/>
<path d="M121.538 76.0299C121.953 76.2448 122.294 76.5795 122.517 76.9906C122.413 76.4497 122.207 75.9337 121.909 75.4706C121.453 74.7835 120.942 75.6955 121.538 76.0299Z" fill="#407BFF"/>
<path d="M125.897 76.0299C126.312 76.2448 126.653 76.5795 126.876 76.9906C126.772 76.4497 126.566 75.9337 126.268 75.4706C125.812 74.7835 125.301 75.6955 125.897 76.0299Z" fill="#407BFF"/>
<path d="M121.842 75.7963C121.548 75.9169 121.301 76.1304 121.139 76.4043C121.085 76.4985 121.054 76.6353 121.139 76.7083C121.225 76.7813 121.38 76.6901 121.471 76.5989C121.678 76.3921 122.565 75.8814 122.559 75.623C122.309 75.6136 122.06 75.6736 121.842 75.7963Z" fill="#407BFF"/>
<path d="M126.523 75.7961C126.229 75.9167 125.983 76.1303 125.821 76.4042C125.769 76.4984 125.736 76.6352 125.821 76.7082C125.906 76.7811 126.058 76.6899 126.149 76.5987C126.356 76.392 127.244 75.8813 127.238 75.6229C126.988 75.6144 126.741 75.6743 126.523 75.7961Z" fill="#407BFF"/>
<path d="M119.817 78.0728C119.656 77.0575 118.446 77.0027 117.942 77.7931C117.821 77.9926 117.75 78.2175 117.732 78.4498C117.712 78.5976 117.724 78.748 117.768 78.8906C117.839 79.0543 117.959 79.1913 118.113 79.2815C118.267 79.3718 118.445 79.4105 118.623 79.3922C118.978 79.3474 119.304 79.1705 119.535 78.8966C119.674 78.7603 119.77 78.5858 119.811 78.3951C119.833 78.2889 119.835 78.1797 119.817 78.0728ZM119.449 78.7781C119.372 78.895 119.268 78.9918 119.145 79.0608C119.041 79.1354 118.924 79.1886 118.799 79.2173C118.674 79.246 118.545 79.2496 118.419 79.228C118.279 79.1971 118.151 79.1279 118.048 79.028C117.945 78.9281 117.873 78.8015 117.838 78.6626C117.774 78.2066 118.179 77.4891 118.778 77.4891C119.623 77.4891 119.772 78.2431 119.449 78.7781Z" fill="#263238"/>
<path d="M78.768 71.4396L86.368 94.6136H69.7483L66.8755 70.1963H77.0534C77.4338 70.1961 77.8046 70.3163 78.1125 70.5396C78.4205 70.763 78.6499 71.078 78.768 71.4396Z" fill="#263238"/>
<path d="M81.364 91.7314H97.8256C98.5856 91.7314 99.1997 92.5188 99.1997 93.4916V94.7076C99.1997 95.6804 98.5917 96.4678 97.8256 96.4678H72.548L71.2256 91.8774L81.364 91.7314Z" fill="#263238"/>
<g opacity="0.2">
<path opacity="0.2" d="M81.364 91.7314H97.8256C98.5856 91.7314 99.1997 92.5188 99.1997 93.4916V94.7076C99.1997 95.6804 98.5917 96.4678 97.8256 96.4678H72.548L71.2256 91.8774L81.364 91.7314Z" fill="white"/>
</g>
<path d="M68.2616 71.558L70.3896 90.175C70.4724 90.8876 70.8142 91.5449 71.3501 92.0219C71.886 92.4989 72.5785 92.7623 73.2959 92.762H84.7627C85.128 92.762 85.4783 92.9071 85.7365 93.1654C85.9948 93.4236 86.1399 93.7739 86.1399 94.1391V95.0998C86.1399 95.465 85.9948 95.8153 85.7365 96.0735C85.4783 96.3318 85.128 96.4769 84.7627 96.4769H70.8912C70.1658 96.4767 69.4663 96.2068 68.9286 95.7197C68.391 95.2326 68.0536 94.5631 67.9819 93.8412L65.7536 71.2935C65.7396 71.1555 65.7547 71.016 65.798 70.8841C65.8412 70.7523 65.9117 70.631 66.0049 70.5281C66.098 70.4252 66.2117 70.343 66.3386 70.2869C66.4656 70.2308 66.6028 70.2019 66.7416 70.2022C67.1179 70.2 67.4815 70.3374 67.7623 70.5878C68.0431 70.8383 68.221 71.184 68.2616 71.558Z" fill="#263238"/>
<path opacity="0.3" d="M68.2616 71.558L70.3896 90.175C70.4724 90.8876 70.8142 91.5449 71.3501 92.0219C71.886 92.4989 72.5785 92.7623 73.2959 92.762H84.7627C85.128 92.762 85.4783 92.9071 85.7365 93.1654C85.9948 93.4236 86.1399 93.7739 86.1399 94.1391V95.0998C86.1399 95.465 85.9948 95.8153 85.7365 96.0735C85.4783 96.3318 85.128 96.4769 84.7627 96.4769H70.8912C70.1658 96.4767 69.4663 96.2068 68.9286 95.7197C68.391 95.2326 68.0536 94.5631 67.9819 93.8412L65.7536 71.2935C65.7396 71.1555 65.7547 71.016 65.798 70.8841C65.8412 70.7523 65.9117 70.631 66.0049 70.5281C66.098 70.4252 66.2117 70.343 66.3386 70.2869C66.4656 70.2308 66.6028 70.2019 66.7416 70.2022C67.1179 70.2 67.4815 70.3374 67.7623 70.5878C68.0431 70.8383 68.221 71.184 68.2616 71.558Z" fill="white"/>
<path d="M72.5481 118.596C72.5481 118.857 72.4706 119.113 72.3253 119.331C72.18 119.548 71.9734 119.717 71.7318 119.818C71.4901 119.918 71.2243 119.944 70.9677 119.893C70.7112 119.842 70.4756 119.716 70.2906 119.531C70.1057 119.346 69.9798 119.11 69.9287 118.854C69.8777 118.597 69.9039 118.331 70.004 118.09C70.1041 117.848 70.2736 117.642 70.491 117.496C70.7085 117.351 70.9642 117.273 71.2257 117.273C71.5764 117.273 71.9128 117.413 72.1608 117.661C72.4088 117.909 72.5481 118.245 72.5481 118.596Z" fill="#407BFF"/>
<path d="M92.2744 118.596C92.2744 118.857 92.352 119.113 92.4973 119.331C92.6426 119.548 92.8491 119.717 93.0907 119.818C93.3324 119.918 93.5983 119.944 93.8548 119.893C94.1113 119.842 94.3469 119.716 94.5319 119.531C94.7168 119.346 94.8428 119.11 94.8938 118.854C94.9448 118.597 94.9186 118.331 94.8185 118.09C94.7185 117.848 94.549 117.642 94.3315 117.496C94.114 117.351 93.8584 117.273 93.5968 117.273C93.2461 117.273 92.9097 117.413 92.6617 117.661C92.4137 117.909 92.2744 118.245 92.2744 118.596Z" fill="#407BFF"/>
<path d="M81.124 118.174C81.124 118.436 81.2016 118.691 81.3469 118.909C81.4922 119.126 81.6987 119.296 81.9404 119.396C82.182 119.496 82.4479 119.522 82.7044 119.471C82.9609 119.42 83.1966 119.294 83.3815 119.109C83.5665 118.924 83.6924 118.688 83.7434 118.432C83.7944 118.175 83.7683 117.91 83.6682 117.668C83.5681 117.426 83.3986 117.22 83.1811 117.074C82.9637 116.929 82.708 116.852 82.4464 116.852C82.0957 116.852 81.7594 116.991 81.5114 117.239C81.2634 117.487 81.124 117.823 81.124 118.174Z" fill="#407BFF"/>
<path d="M95.1624 116.331C95.1442 116.476 95.0746 116.609 94.9664 116.707C94.8581 116.804 94.7184 116.86 94.5726 116.863L82.0478 116.669L70.3225 116.973C70.1768 116.969 70.037 116.914 69.9288 116.816C69.8205 116.719 69.7509 116.585 69.7328 116.441C69.6967 116.277 69.7241 116.106 69.8093 115.962C69.8946 115.819 70.0313 115.712 70.1918 115.665L76.5971 114.252C77.2587 114.111 77.9332 114.04 78.6096 114.039H85.4921C86.1685 114.04 86.843 114.111 87.5046 114.252L94.7003 115.559C94.8603 115.606 94.9968 115.712 95.0825 115.855C95.1681 115.998 95.1967 116.168 95.1624 116.331Z" fill="#263238"/>
<g opacity="0.3">
<path opacity="0.3" d="M95.1624 116.331C95.1442 116.476 95.0746 116.609 94.9664 116.707C94.8581 116.804 94.7184 116.86 94.5726 116.863L82.0478 116.669L70.3225 116.973C70.1768 116.969 70.037 116.914 69.9288 116.816C69.8205 116.719 69.7509 116.585 69.7328 116.441C69.6967 116.277 69.7241 116.106 69.8093 115.962C69.8946 115.819 70.0313 115.712 70.1918 115.665L76.5971 114.252C77.2587 114.111 77.9332 114.04 78.6096 114.039H85.4921C86.1685 114.04 86.843 114.111 87.5046 114.252L94.7003 115.559C94.8603 115.606 94.9968 115.712 95.0825 115.855C95.1681 115.998 95.1967 116.168 95.1624 116.331Z" fill="white"/>
</g>
<path d="M84.176 101.982H79.917V114.039H84.176V101.982Z" fill="#263238"/>
<path d="M83.5682 96.3711H80.5312V101.98H83.5682V96.3711Z" fill="#263238"/>
<path opacity="0.3" d="M80.5312 98.0188L83.5682 98.8852V96.3711H80.5312V98.0188Z" fill="black"/>
<path d="M72.5481 118.596C72.5481 118.857 72.4706 119.113 72.3253 119.331C72.18 119.548 71.9734 119.717 71.7318 119.818C71.4901 119.918 71.2243 119.944 70.9677 119.893C70.7112 119.842 70.4756 119.716 70.2906 119.531C70.1057 119.346 69.9798 119.11 69.9287 118.854C69.8777 118.597 69.9039 118.331 70.004 118.09C70.1041 117.848 70.2736 117.642 70.491 117.496C70.7085 117.351 70.9642 117.273 71.2257 117.273C71.5764 117.273 71.9128 117.413 72.1608 117.661C72.4088 117.909 72.5481 118.245 72.5481 118.596Z" fill="#263238"/>
<path d="M92.2744 118.596C92.2744 118.857 92.352 119.113 92.4973 119.331C92.6426 119.548 92.8491 119.717 93.0907 119.818C93.3324 119.918 93.5983 119.944 93.8548 119.893C94.1113 119.842 94.3469 119.716 94.5319 119.531C94.7168 119.346 94.8428 119.11 94.8938 118.854C94.9448 118.597 94.9186 118.331 94.8185 118.09C94.7185 117.848 94.549 117.642 94.3315 117.496C94.114 117.351 93.8584 117.273 93.5968 117.273C93.2461 117.273 92.9097 117.413 92.6617 117.661C92.4137 117.909 92.2744 118.245 92.2744 118.596Z" fill="#263238"/>
<path d="M81.124 118.174C81.124 118.436 81.2016 118.691 81.3469 118.909C81.4922 119.126 81.6987 119.296 81.9404 119.396C82.182 119.496 82.4479 119.522 82.7044 119.471C82.9609 119.42 83.1966 119.294 83.3815 119.109C83.5665 118.924 83.6924 118.688 83.7434 118.432C83.7944 118.175 83.7683 117.91 83.6682 117.668C83.5681 117.426 83.3986 117.22 83.1811 117.074C82.9637 116.929 82.708 116.852 82.4464 116.852C82.0957 116.852 81.7594 116.991 81.5114 117.239C81.2634 117.487 81.124 117.823 81.124 118.174Z" fill="#263238"/>
<path d="M29.076 74.5864C29.076 74.5864 26.6804 77.6264 27.0665 82.8217C27.4526 88.0171 37.7613 85.0744 37.7613 85.0744C37.7613 85.0744 42.2422 78.5718 45.0238 77.8544L42.5523 75.2886C40.8286 75.392 39.5488 73.5345 29.076 74.5864Z" fill="#407BFF"/>
<path d="M38.8555 55.1219C39.5455 56.7514 40.266 58.3261 41.0351 59.9099C41.8043 61.4937 42.5886 63.0563 43.4671 64.628L43.8198 65.236C44.0416 65.6186 44.3371 65.9533 44.6892 66.2209C45.2518 66.6364 45.907 66.9087 46.5984 67.0144C47.627 67.1671 48.6739 67.1475 49.6961 66.9566C51.5152 66.6317 53.2848 66.0738 54.9614 65.2968L54.3534 63.4728L53.11 63.6704C52.6905 63.7342 52.271 63.7707 51.8576 63.8315C51.0454 63.9328 50.2286 63.9917 49.4104 64.0078C48.6995 64.0391 47.9879 63.9675 47.2976 63.795C47.1261 63.7585 46.9675 63.6766 46.8385 63.5579C46.8385 63.5366 46.8659 63.5579 46.8659 63.5579L46.6105 63.0198C45.9113 61.4816 45.2121 59.8795 44.519 58.3078C43.8259 56.7362 43.1115 55.1341 42.391 53.5654L38.8555 55.1219Z" fill="#FFB573"/>
<path d="M57.1352 65.038C57.354 64.9894 57.5607 64.8974 57.7432 64.7674C58.3968 64.1594 58.0107 63.1319 57.3967 62.4813C57.3723 62.454 56.6853 61.8216 56.6579 61.7943C55.9983 61.1863 55.6335 61.8399 55.0285 62.4996L53.8125 63.8159L54.5573 65.3937C55.2391 65.3913 55.9188 65.3169 56.585 65.1717C56.74 65.1413 56.9315 65.0957 57.1352 65.038Z" fill="#FFB573"/>
<path d="M43.899 54.4868C45.3035 56.6544 45.0603 59.5241 45.0603 59.5241L41.6798 60.2568C41.6798 60.2568 37.9163 56.3291 38.6033 54.4169C39.3664 52.3072 42.4124 52.1886 43.899 54.4868Z" fill="#263238"/>
<path opacity="0.2" d="M41.6796 60.2566L43.8288 59.7915C43.3202 58.3046 42.6353 56.8839 41.789 55.5598C40.5152 53.672 39.6032 53.1278 38.5909 53.6629C38.2717 56.2833 41.6796 60.2566 41.6796 60.2566Z" fill="black"/>
<path d="M32.301 52.4614C31.9545 52.4949 28.4645 53.343 29.3431 56.6445C32.9911 69.5888 30.6533 68.5005 29.0786 74.5805L42.5549 75.2827C42.5549 75.2827 41.6429 65.9894 42.2327 64.3387C43.242 61.5632 43.1295 59.5385 42.102 56.7539C40.9681 53.6805 40.5303 52.8475 40.5303 52.8475C39.2474 52.5648 34.9337 51.4734 32.301 52.4614Z" fill="#263238"/>
<path opacity="0.2" d="M32.879 62.4699C32.6905 60.8343 29.9697 54.6358 30.5078 53.8788C30.9273 53.6569 32.8304 53.9062 33.8913 55.0948C36.3081 60.7553 32.879 62.4699 32.879 62.4699Z" fill="black"/>
<path d="M26.2454 115.332L19.3233 120.531C19.0405 120.397 16.9946 118.15 16.9946 118.15L22.9956 113.062L26.2454 115.332Z" fill="#E29471"/>
<path d="M19.7733 121.181C19.7644 121.166 19.7598 121.149 19.7598 121.132C19.7598 121.115 19.7644 121.098 19.7733 121.084C19.785 121.07 19.8005 121.06 19.8178 121.055C19.8351 121.05 19.8535 121.051 19.8706 121.056C19.9283 121.074 21.3146 121.537 21.5943 122.099C21.6232 122.15 21.6414 122.207 21.6477 122.265C21.654 122.324 21.6482 122.383 21.6307 122.439C21.6168 122.505 21.5827 122.565 21.5331 122.611C21.4835 122.657 21.421 122.686 21.3541 122.695C21.1048 122.731 20.7461 122.439 20.4421 122.087C20.1922 121.806 19.9683 121.502 19.7733 121.181ZM21.3663 122.044C20.9878 121.712 20.5478 121.458 20.0712 121.296C20.4482 121.859 21.0683 122.543 21.3571 122.512C21.3967 122.512 21.4483 122.488 21.4879 122.369C21.498 122.336 21.5014 122.3 21.4977 122.265C21.4941 122.231 21.4835 122.197 21.4666 122.166C21.4387 122.117 21.4061 122.071 21.3693 122.029L21.3663 122.044Z" fill="#407BFF"/>
<path d="M19.7734 121.123C19.7748 121.108 19.7799 121.093 19.7884 121.081C19.7969 121.068 19.8085 121.057 19.8221 121.05C19.8586 121.029 20.649 120.442 21.2448 120.537C21.3286 120.553 21.4083 120.586 21.4793 120.633C21.5503 120.681 21.6111 120.742 21.6582 120.813C21.7122 120.865 21.7451 120.935 21.7507 121.01C21.7563 121.084 21.7342 121.158 21.6886 121.218C21.4302 121.543 20.2659 121.421 19.8251 121.218L19.7947 121.196L19.7734 121.123ZM21.2083 120.719C20.7922 120.726 20.3885 120.862 20.0531 121.108C20.5578 121.26 21.4302 121.3 21.5731 121.108C21.5731 121.09 21.6248 121.044 21.5366 120.92L21.491 120.889C21.4226 120.798 21.3212 120.737 21.2083 120.719Z" fill="#407BFF"/>
<path d="M19.9011 120.315L19.2931 120.029C18.9621 119.872 18.6685 119.646 18.4321 119.366C18.1956 119.086 18.0217 118.758 17.922 118.406L17.6849 117.573C17.6399 117.516 17.5758 117.477 17.5045 117.463C17.4331 117.449 17.359 117.461 17.2958 117.497L14.5902 118.789C14.3288 118.935 14.4169 119.588 14.4382 119.613C15.6268 121.418 18.4571 125.085 19.442 126.255C20.427 127.425 21.7099 126.608 21.412 126.039C20.0804 123.498 20.05 122.142 20.0926 120.941C20.1085 120.716 20.0402 120.493 19.9011 120.315Z" fill="#263238"/>
<path d="M27.0693 82.8223C26.9792 83.4557 26.9649 84.0976 27.0268 84.7345C27.2882 88.1028 29.4223 99.1714 29.9999 103.446C30.0435 103.874 29.9771 104.307 29.8069 104.703C29.6366 105.098 29.3682 105.444 29.0271 105.707C27.0754 107.389 23.622 109.659 19.7095 115.22C19.7581 117.652 19.9952 117.956 22.2023 118.834C22.2023 118.834 33.2952 110.465 35.0189 108.012C37.5573 104.394 37.6151 89.0695 37.7549 85.0749C37.837 82.8071 37.9069 80.1045 36.1924 78.6453C35.2378 77.8245 27.7138 76.6085 27.0693 82.8223Z" fill="#407BFF"/>
<path d="M68.8207 107.72L71.9154 115.825C71.7087 116.053 69.2919 118.117 68.9636 117.345C67.9543 115.013 63.4673 107.386 63.4673 107.386L68.8207 107.72Z" fill="#E29471"/>
<path d="M72.3474 115.453C72.3321 115.462 72.3148 115.467 72.2972 115.467C72.2796 115.467 72.2623 115.462 72.247 115.453C72.2351 115.44 72.2266 115.424 72.2223 115.406C72.2181 115.389 72.2182 115.371 72.2227 115.353C72.247 115.295 72.7486 113.924 73.3202 113.663C73.3722 113.636 73.4293 113.62 73.4879 113.615C73.5465 113.611 73.6053 113.619 73.6607 113.639C73.7263 113.654 73.7854 113.689 73.8297 113.74C73.8739 113.791 73.9009 113.854 73.9069 113.921C73.9373 114.171 73.6333 114.511 73.2715 114.809C72.9845 115.052 72.6751 115.268 72.3474 115.453ZM73.2594 113.891C72.9196 114.259 72.6561 114.691 72.4842 115.162C73.0557 114.8 73.761 114.201 73.7397 113.912C73.7397 113.876 73.7154 113.821 73.5999 113.778C73.5666 113.767 73.5315 113.763 73.4965 113.766C73.4615 113.768 73.4274 113.778 73.3962 113.794C73.3456 113.82 73.2978 113.852 73.2533 113.888L73.2594 113.891Z" fill="#407BFF"/>
<path d="M72.2893 115.454C72.2736 115.453 72.2586 115.447 72.2457 115.438C72.2329 115.429 72.2228 115.417 72.2163 115.402C72.195 115.366 71.6387 114.557 71.7481 113.964C71.767 113.881 71.8022 113.803 71.8518 113.733C71.9014 113.664 71.9643 113.605 72.0369 113.56C72.0903 113.508 72.1611 113.477 72.2356 113.474C72.3102 113.471 72.3834 113.495 72.4413 113.542C72.7453 113.809 72.5993 114.971 72.3896 115.405L72.3683 115.436L72.2893 115.454ZM71.9397 114.001C71.9325 114.416 72.0558 114.824 72.2923 115.165C72.4595 114.67 72.5264 113.797 72.3288 113.645C72.3105 113.645 72.2649 113.594 72.1373 113.676L72.1069 113.721C72.0165 113.789 71.9564 113.889 71.9397 114.001Z" fill="#407BFF"/>
<path d="M71.8788 115.216L68.6108 116.526C68.5433 116.553 68.4874 116.603 68.4534 116.667C68.4194 116.731 68.4095 116.805 68.4254 116.876L68.8692 119.84C68.933 120.144 69.5836 120.238 69.614 120.226C71.6903 119.618 76.0223 117.979 77.4298 117.384C78.8373 116.788 78.427 115.316 77.7977 115.435C74.9766 115.964 73.6724 115.599 72.5354 115.207C72.3237 115.125 72.0882 115.128 71.8788 115.216Z" fill="#263238"/>
<path d="M50.66 94.2619C51.4504 94.8121 52.1982 95.3411 52.8762 95.8366C58.9987 100.324 62.4856 108.434 64.9693 112.861C67.228 113.964 70.3683 111.772 71.3229 111.097C71.3229 111.097 64.6349 96.9097 62.3944 93.8241C56.965 86.3883 51.569 81.5121 43.2424 76.8457C42.1575 76.2352 40.9292 75.9255 39.6845 75.9485C38.4399 75.9714 37.2239 76.3263 36.1622 76.9764C35.3085 77.4703 34.5175 78.0654 33.8062 78.7487C33.5022 79.0771 32.949 80.9588 35.5086 83.5185C37.8038 85.8167 45.2701 90.5348 50.6478 94.271" fill="#407BFF"/>
<path opacity="0.1" d="M37.764 85.0751C37.2289 84.1235 38.0102 80.9072 38.0102 80.9072C38.0102 80.9072 48.4496 91.0061 48.9542 93.0672L39.9862 86.9872L37.764 85.0751Z" fill="black"/>
<path d="M58.7585 104.415C58.7335 104.415 58.7088 104.409 58.6866 104.397C58.6644 104.386 58.6453 104.369 58.6309 104.349C58.3269 103.868 58.0046 103.403 57.6945 102.965C57.683 102.949 57.6747 102.931 57.6703 102.911C57.6658 102.891 57.6653 102.871 57.6687 102.851C57.6721 102.832 57.6793 102.813 57.69 102.796C57.7007 102.779 57.7146 102.764 57.731 102.753C57.7474 102.741 57.7659 102.733 57.7854 102.728C57.805 102.724 57.8252 102.723 57.845 102.727C57.8647 102.73 57.8836 102.737 57.9006 102.748C57.9175 102.759 57.9322 102.773 57.9438 102.789C58.2478 103.233 58.5731 103.701 58.8862 104.181C58.8974 104.198 58.9051 104.217 58.9088 104.236C58.9126 104.256 58.9123 104.276 58.908 104.296C58.9038 104.316 58.8956 104.334 58.884 104.35C58.8724 104.367 58.8577 104.381 58.8406 104.391C58.8168 104.408 58.7878 104.417 58.7585 104.415Z" fill="#407BFF"/>
<path d="M56.822 101.683C56.7987 101.683 56.7756 101.678 56.7545 101.668C56.7334 101.658 56.7149 101.643 56.7004 101.625C55.3143 99.7842 53.677 98.147 51.8364 96.7608C51.2011 96.2957 50.4776 95.7819 49.6233 95.1891C49.5925 95.1653 49.5721 95.1305 49.5662 95.092C49.5603 95.0535 49.5694 95.0142 49.5916 94.9822C49.6139 94.9503 49.6475 94.928 49.6857 94.9201C49.7238 94.9123 49.7635 94.9193 49.7966 94.9398C50.6539 95.5478 51.3774 96.0494 52.0158 96.5176C53.8765 97.9153 55.5322 99.5669 56.9345 101.424C56.9535 101.446 56.9657 101.473 56.9695 101.502C56.9733 101.531 56.9686 101.56 56.956 101.586C56.9434 101.612 56.9235 101.634 56.8986 101.649C56.8737 101.664 56.845 101.672 56.816 101.67L56.822 101.683Z" fill="#407BFF"/>
<path d="M37.1836 107.24H37.138C37.0996 107.227 37.0677 107.2 37.0489 107.164C37.0302 107.128 37.0262 107.087 37.0377 107.048C37.1258 106.777 37.2079 106.476 37.29 106.157C37.295 106.138 37.3037 106.12 37.3157 106.104C37.3277 106.088 37.3428 106.074 37.36 106.064C37.3772 106.054 37.3963 106.047 37.4161 106.044C37.4359 106.042 37.4561 106.043 37.4754 106.048C37.4947 106.052 37.5129 106.061 37.5288 106.073C37.5448 106.084 37.5583 106.099 37.5685 106.116C37.5787 106.133 37.5854 106.152 37.5882 106.172C37.591 106.191 37.5899 106.211 37.5849 106.23C37.5028 106.556 37.4177 106.863 37.3295 107.142C37.3179 107.171 37.2977 107.196 37.2716 107.213C37.2456 107.231 37.2149 107.24 37.1836 107.24Z" fill="#407BFF"/>
<path d="M31.596 113.565C31.5735 113.566 31.5511 113.561 31.5306 113.551C31.5101 113.542 31.4919 113.528 31.4775 113.511C31.4521 113.479 31.4401 113.439 31.4441 113.398C31.4481 113.358 31.4677 113.321 31.4988 113.295C34.0767 111.152 35.6605 109.665 36.2138 108.881C36.3263 108.725 36.4279 108.561 36.5178 108.391C36.5371 108.356 36.5696 108.329 36.6082 108.317C36.6468 108.306 36.6885 108.309 36.7245 108.328C36.7598 108.346 36.7863 108.378 36.7982 108.416C36.8102 108.454 36.8066 108.496 36.7884 108.531C36.6994 108.713 36.5978 108.889 36.4844 109.057C35.9189 109.863 34.3138 111.368 31.7177 113.529C31.7011 113.543 31.6817 113.554 31.6608 113.56C31.6398 113.567 31.6177 113.568 31.596 113.565Z" fill="#407BFF"/>
<path d="M36.1228 49.4737C36.3599 50.4495 37.2476 51.1183 38.1018 51.6443C38.7676 52.0516 39.5002 52.4407 40.2784 52.4134C40.586 52.3877 40.8851 52.2997 41.1576 52.1549C41.4301 52.0101 41.6703 51.8113 41.8636 51.5708C42.057 51.3303 42.1994 51.053 42.2823 50.7557C42.3651 50.4584 42.3867 50.1474 42.3456 49.8415C42.4596 50.007 42.6071 50.1467 42.7786 50.2514C42.9501 50.3562 43.1418 50.4236 43.341 50.4494C43.5403 50.4752 43.7428 50.4588 43.9353 50.4012C44.1278 50.3436 44.3061 50.2461 44.4584 50.1151C45.036 49.5558 45.0208 48.6316 44.8749 47.8412C44.3955 45.3228 43.0892 43.0365 41.1631 41.3447C40.7192 41.9254 39.8376 41.8159 39.4364 41.7095C39.2938 41.6759 39.156 41.6248 39.026 41.5575C38.6313 41.4819 38.2228 41.5363 37.8616 41.7126C37.2992 42.4452 37.0956 43.3998 36.9101 44.3148C36.6831 45.4335 36.4561 46.5533 36.2292 47.674C36.0671 48.2597 36.0309 48.873 36.1228 49.4737Z" fill="#263238"/>
<path d="M35.4599 47.6855C35.5207 49.3028 35.4599 51.6375 34.2074 52.5313C34.2074 52.5313 34.0159 54.1486 38.1989 56.5745C40.1597 54.5225 39.1109 53.2974 39.1109 53.2974C37.4146 52.6043 37.5909 51.8959 38.0682 50.7195L35.4599 47.6855Z" fill="#FFB573"/>
<path opacity="0.2" d="M36.53 48.9082L38.05 50.7322C37.9294 51.0047 37.8338 51.2876 37.7642 51.5773C37.1045 51.3767 36.1378 50.641 36.1074 49.8901C36.1624 49.5322 36.3079 49.1942 36.53 48.9082Z" fill="black"/>
<path d="M33.8335 44.6672C34.1375 47.3546 34.2105 48.4976 35.6575 49.8078C37.8159 51.7838 41.0505 50.8171 41.5551 48.0933C42.005 45.64 41.4274 41.6424 38.731 40.7243C38.1368 40.5144 37.4987 40.4602 36.8776 40.567C36.2565 40.6738 35.6732 40.9379 35.1833 41.3343C34.6933 41.7306 34.3131 42.2459 34.079 42.831C33.8448 43.4161 33.7645 44.0514 33.8457 44.6763L33.8335 44.6672Z" fill="#FFB573"/>
<path d="M39.5425 47.9961C39.5425 48.221 39.6519 48.4034 39.7978 48.4095C39.9438 48.4156 40.0654 48.2301 40.0714 48.0082C40.0775 47.7863 39.962 47.5978 39.8161 47.5948C39.6702 47.5917 39.5425 47.7711 39.5425 47.9961Z" fill="#263238"/>
<path d="M38.1655 45.148C38.1655 45.3669 38.3054 45.5401 38.4482 45.5341C38.5911 45.528 38.6975 45.3395 38.6884 45.1206C38.6793 44.9017 38.5486 44.7285 38.4087 44.7345C38.2689 44.7406 38.1686 44.9382 38.1655 45.148Z" fill="#263238"/>
<path d="M40.6459 45.0231C40.6459 45.245 40.7858 45.4152 40.9256 45.4091C41.0655 45.4031 41.1779 45.2146 41.1688 44.9957C41.1597 44.7768 41.029 44.6035 40.8861 44.6126C40.7432 44.6218 40.6277 44.8042 40.6459 45.0231Z" fill="#263238"/>
<path d="M40.8252 44.6276L41.342 44.4482C41.342 44.4482 41.0958 44.8769 40.8252 44.6276Z" fill="#263238"/>
<path d="M39.9014 45.4609C40.1262 45.9512 40.4156 46.4092 40.7617 46.8229C40.6528 46.9077 40.527 46.9682 40.3927 47.0002C40.2585 47.0321 40.1189 47.0349 39.9834 47.0083L39.9014 45.4609Z" fill="#ED893E"/>
<path d="M37.3598 44.1287C37.3822 44.1441 37.4087 44.1524 37.4358 44.1524C37.463 44.1524 37.4895 44.1441 37.5118 44.1287C37.684 44.008 37.8794 43.9243 38.0855 43.883C38.2917 43.8417 38.5042 43.8435 38.7096 43.8885C38.743 43.8958 38.778 43.8897 38.807 43.8716C38.836 43.8534 38.8567 43.8245 38.8646 43.7913C38.8687 43.7749 38.8695 43.7579 38.867 43.7412C38.8644 43.7245 38.8586 43.7085 38.8498 43.6941C38.8411 43.6797 38.8295 43.6671 38.8159 43.6572C38.8023 43.6473 38.7868 43.6401 38.7704 43.6362C38.5239 43.5802 38.2683 43.5783 38.0211 43.6308C37.7738 43.6833 37.541 43.7889 37.3386 43.9402C37.315 43.9641 37.3018 43.9963 37.3018 44.0299C37.3018 44.0635 37.315 44.0957 37.3386 44.1196L37.3598 44.1287Z" fill="#263238"/>
<path d="M41.3303 43.8399C41.3536 43.8422 41.377 43.8384 41.3984 43.8288C41.4197 43.8192 41.4382 43.8041 41.4519 43.7852C41.4619 43.7716 41.4692 43.7562 41.4733 43.7399C41.4774 43.7235 41.4781 43.7065 41.4756 43.6898C41.4731 43.6731 41.4672 43.6571 41.4585 43.6427C41.4497 43.6283 41.4382 43.6157 41.4245 43.6058C41.2619 43.4758 41.0695 43.3883 40.8647 43.3512C40.6598 43.3141 40.449 43.3284 40.2511 43.393C40.2356 43.3978 40.2213 43.4057 40.209 43.4162C40.1967 43.4267 40.1867 43.4396 40.1796 43.4541C40.1725 43.4686 40.1684 43.4845 40.1676 43.5006C40.1668 43.5168 40.1694 43.5329 40.1751 43.5481C40.1805 43.5637 40.189 43.5782 40.2001 43.5905C40.2112 43.6029 40.2247 43.6129 40.2397 43.6199C40.2547 43.627 40.2709 43.631 40.2875 43.6317C40.3041 43.6324 40.3206 43.6298 40.3362 43.6241C40.4919 43.5808 40.6555 43.5748 40.8139 43.6065C40.9724 43.6382 41.1211 43.7067 41.2482 43.8065C41.272 43.8249 41.3004 43.8365 41.3303 43.8399Z" fill="#263238"/>
<path d="M38.3418 44.7732L38.8616 44.5908C38.8616 44.5908 38.6154 44.9921 38.3418 44.7732Z" fill="#263238"/>
<path d="M41.7645 41.9528C41.7402 41.9863 40.7127 42.4423 39.4359 41.6944C39.3052 41.6184 39.1532 41.6063 39.0285 41.5394C38.6329 41.4635 38.2233 41.5179 37.8612 41.6944C37.77 41.7461 36.6786 42.19 36.5418 44.1264C36.3199 47.2394 34.9124 46.4672 34.7178 46.4004C34.2436 46.2271 33.9912 45.8532 33.5018 45.917C33.4133 45.9322 33.3228 45.9322 33.2343 45.917C33.5383 46.8108 33.8636 47.662 34.2527 47.8535C37.089 49.2245 36.25 51.6535 35.4991 52.0396C34.961 52.3192 32.7023 52.5412 31.0364 50.6959C30.5256 51.161 29.6957 51.0516 29.0725 50.7293C28.5973 50.4765 28.2302 50.0597 28.0395 49.5564C27.8488 49.053 27.8475 48.4975 28.0359 47.9933C28.3957 46.9915 29.0547 46.1244 29.9237 45.5096C30.5317 45.0932 31.234 44.7892 31.6717 44.1994C31.7981 44.0266 31.9003 43.8374 31.9757 43.637C32.0943 43.333 32.2372 43.0138 32.377 42.7068C32.396 42.6596 32.4102 42.6108 32.4196 42.5608C32.6418 41.8743 33.0327 41.2545 33.5565 40.7581C34.3348 39.9981 36.025 39.4084 37.4204 39.3749C39.0255 39.3202 41.1322 40.4693 41.7645 41.9528Z" fill="#263238"/>
<path d="M32.2402 44.0589C32.2615 43.837 32.2706 43.6454 32.2737 43.5664C32.2521 43.7297 32.241 43.8942 32.2402 44.0589Z" fill="#263238"/>
<path d="M33.2073 46.7797C33.4019 47.2535 33.7755 47.6314 34.247 47.8315C34.8793 48.0869 35.2745 47.5275 35.159 46.9013C35.0556 46.3267 34.6088 45.4998 33.943 45.5059C33.8279 45.5102 33.7147 45.5372 33.6101 45.5855C33.5055 45.6338 33.4114 45.7023 33.3334 45.787C33.2554 45.8718 33.195 45.9712 33.1556 46.0795C33.1162 46.1878 33.0987 46.3028 33.104 46.4179C33.1103 46.5448 33.1456 46.6686 33.2073 46.7797Z" fill="#FFB573"/>
<path d="M41.4151 51.9842C42.1903 51.8443 42.9655 51.5221 43.3881 50.8624C44.6041 48.9655 42.5764 44.0589 40.1201 41.5205L40.0197 41.6482C42.4518 44.1471 44.4551 48.9442 43.2695 50.8016C42.4518 52.0754 40.1505 52.0176 39.4087 51.8778L39.3813 52.0267C40.0572 52.1214 40.7438 52.107 41.4151 51.9842Z" fill="#263238"/>
<path d="M32.3378 44.3484L32.4868 44.321C32.3013 43.3148 32.6509 42.2113 33.4656 41.2111C34.3472 40.1319 35.6271 39.3871 36.6485 39.3871C37.822 39.3658 39.5061 39.7884 40.4364 40.7673L40.5458 40.6639C39.5852 39.6486 37.8524 39.2138 36.6455 39.2351C35.5815 39.2534 34.256 40.0134 33.3501 41.123C32.502 42.1474 32.1432 43.2966 32.3378 44.3484Z" fill="#263238"/>
<path d="M27.939 49.2485C28.7025 49.8941 29.5156 50.4786 30.371 50.9965C31.1513 51.5257 32.0571 51.8402 32.9975 51.9085C33.2165 51.9154 33.4356 51.8991 33.6511 51.8598C34.0138 51.806 34.3608 51.675 34.6686 51.4757C34.9765 51.2765 35.238 51.0135 35.4356 50.7046C35.5649 50.4759 35.6474 50.2236 35.6782 49.9627C35.709 49.7017 35.6875 49.4372 35.615 49.1846C35.5621 48.9745 35.4665 48.7776 35.3342 48.606C35.2019 48.4345 35.0356 48.292 34.8458 48.1875L34.779 48.3182C34.9509 48.4149 35.1014 48.5456 35.2211 48.7024C35.3408 48.8593 35.4272 49.0388 35.4751 49.2302C35.5422 49.4637 35.5619 49.7082 35.5332 49.9493C35.5045 50.1905 35.4279 50.4235 35.3079 50.6347C35.0592 51.0057 34.7181 51.3056 34.3184 51.5049C33.9187 51.7043 33.4739 51.7962 33.0279 51.7717C32.1137 51.7042 31.2332 51.3981 30.4743 50.884C29.5979 50.3569 28.7653 49.7601 27.9846 49.0995L27.939 49.2485Z" fill="#263238"/>
<path d="M29.8052 54.6626C30.0727 56.672 32.298 65.2783 32.7509 66.2602C32.8148 66.394 32.8786 66.5308 32.9546 66.6676C33.0306 66.8044 33.1036 66.9442 33.1978 67.0901L33.3377 67.3151C33.4045 67.4093 33.4714 67.5096 33.5413 67.5917C33.6735 67.7563 33.8156 67.9127 33.9669 68.0599C34.4763 68.5246 35.06 68.9006 35.6937 69.1725C36.7187 69.6143 37.7952 69.9258 38.8978 70.0997C40.9244 70.4348 42.9827 70.5368 45.0325 70.4037L45.1389 68.2757L43.7497 67.9717C43.2845 67.8684 42.8225 67.7498 42.3634 67.6434C41.4514 67.4154 40.5394 67.1752 39.6821 66.8864C38.8674 66.6402 37.5693 66.2784 36.8245 65.8772C36.5687 65.7339 36.3385 65.549 36.1436 65.33C36.1225 65.3035 36.1042 65.275 36.0889 65.2448C36.0875 65.2368 36.0875 65.2286 36.0889 65.2205L36.0433 65.1324C36.0068 65.0594 35.9733 64.9834 35.9429 64.9074C35.9125 64.8314 33.666 55.6992 33.3589 53.8418L29.8052 54.6626Z" fill="#FFB573"/>
<path d="M44.7681 68.4613C45.2013 67.9165 45.6972 67.4247 46.2455 66.996C46.492 66.7942 46.788 66.662 47.1028 66.613C48.0878 66.461 49.1274 66.309 49.1639 68.1178C49.1639 68.1634 49.395 68.9294 49.398 68.972C49.4831 69.9661 48.5286 70.1181 47.5345 70.2032L44.8805 70.3856L44.7681 68.4613Z" fill="#FFB573"/>
<path d="M34.8884 54.6448C35.8247 57.7 34.6969 57.6635 34.8093 59.5271L31.0732 60.4573C31.0732 60.4573 29.0212 58.7306 28.7111 56.5448C28.6437 56.0014 28.7052 55.4498 28.8909 54.9346C29.0765 54.4195 29.381 53.9553 29.7795 53.5798C30.1781 53.2044 30.6596 52.9281 31.1849 52.7736C31.7102 52.619 32.2645 52.5904 32.8029 52.6901C33.3026 52.7787 33.7658 53.0106 34.136 53.3577C34.5063 53.7047 34.7677 54.1519 34.8884 54.6448Z" fill="#263238"/>
<path d="M34.2597 58.727L33.1182 58.9854L33.1926 59.3145L34.3342 59.0562L34.2597 58.727Z" fill="#407BFF"/>
<path d="M32.4767 59.1741L31.2773 59.5752L31.3844 59.8952L32.5837 59.4941L32.4767 59.1741Z" fill="#407BFF"/>
<path d="M45.2859 59.0582L44.2588 59.2852L44.3244 59.582L45.3514 59.3551L45.2859 59.0582Z" fill="#407BFF"/>
<path d="M56.8218 64.0378C56.4253 64.4967 56.2008 65.0792 56.1869 65.6855C56.1731 66.2918 56.3706 66.884 56.7458 67.3605L56.8218 67.4578V67.9868H39.8403V63.4268H56.8218V64.0378Z" fill="#407BFF"/>
<path opacity="0.1" d="M56.8219 64.0378C56.4254 64.4967 56.2009 65.0792 56.1871 65.6855C56.1732 66.2918 56.3708 66.884 56.7459 67.3605L56.8219 67.4578V67.9868H49.377V63.4268H56.8219V64.0378Z" fill="black"/>
<path d="M56.7399 67.3608L56.8159 67.4581H50.1826V64.0381H56.822C56.4255 64.4969 56.201 65.0795 56.1871 65.6858C56.1733 66.2921 56.3709 66.8843 56.746 67.3608H56.7399Z" fill="#263238"/>
<path opacity="0.9" d="M56.7399 67.3608L56.8159 67.4581H50.1826V64.0381H56.822C56.4255 64.4969 56.201 65.0795 56.1871 65.6858C56.1733 66.2921 56.3709 66.8843 56.746 67.3608H56.7399Z" fill="white"/>
<path d="M48.7781 65.8251C48.7781 66.0055 48.7246 66.1818 48.6244 66.3318C48.5242 66.4817 48.3818 66.5986 48.2151 66.6677C48.0485 66.7367 47.8651 66.7547 47.6882 66.7196C47.5113 66.6844 47.3488 66.5975 47.2212 66.47C47.0937 66.3424 47.0068 66.1799 46.9716 66.003C46.9364 65.8261 46.9545 65.6427 47.0235 65.4761C47.0926 65.3094 47.2094 65.167 47.3594 65.0668C47.5094 64.9666 47.6857 64.9131 47.8661 64.9131C48.108 64.9131 48.34 65.0092 48.511 65.1802C48.682 65.3512 48.7781 65.5832 48.7781 65.8251Z" fill="white"/>
<path d="M48.5714 65.8257C48.5714 65.967 48.5295 66.1051 48.451 66.2226C48.3725 66.3401 48.2609 66.4317 48.1304 66.4857C47.9998 66.5398 47.8562 66.554 47.7176 66.5264C47.579 66.4988 47.4517 66.4308 47.3518 66.3309C47.2519 66.231 47.1839 66.1037 47.1563 65.9651C47.1287 65.8265 47.1429 65.6829 47.197 65.5523C47.251 65.4218 47.3426 65.3102 47.4601 65.2317C47.5776 65.1532 47.7157 65.1113 47.857 65.1113C48.0464 65.1113 48.2282 65.1866 48.3621 65.3206C48.4961 65.4545 48.5714 65.6363 48.5714 65.8257Z" fill="#263238"/>
<path d="M44.2604 64.4336H40.2993V66.9598H44.2604V64.4336Z" fill="white"/>
<path d="M46.1512 64.4336H44.4458V66.9598H46.1512V64.4336Z" fill="white"/>
<path d="M50.1826 67.0323V66.7283C50.3119 66.7467 50.4437 66.7371 50.569 66.7002C50.6944 66.6633 50.8103 66.5999 50.9089 66.5142C51.0076 66.4286 51.0867 66.3228 51.141 66.204C51.1952 66.0851 51.2233 65.956 51.2233 65.8254C51.2233 65.6947 51.1952 65.5656 51.141 65.4468C51.0867 65.3279 51.0076 65.2221 50.9089 65.1365C50.8103 65.0509 50.6944 64.9875 50.569 64.9506C50.4437 64.9136 50.3119 64.9041 50.1826 64.9225V64.6185C50.3536 64.5974 50.527 64.6129 50.6915 64.664C50.856 64.715 51.0078 64.8004 51.1368 64.9145C51.2659 65.0286 51.3692 65.1688 51.4399 65.3258C51.5107 65.4829 51.5473 65.6531 51.5473 65.8254C51.5473 65.9976 51.5107 66.1679 51.4399 66.3249C51.3692 66.4819 51.2659 66.6222 51.1368 66.7363C51.0078 66.8504 50.856 66.9358 50.6915 66.9868C50.527 67.0378 50.3536 67.0533 50.1826 67.0323Z" fill="#263238"/>
<path d="M56.2657 65.0352H50.1826V65.1871H56.2657V65.0352Z" fill="white"/>
<path d="M56.2657 65.2148H50.1826V65.3668H56.2657V65.2148Z" fill="white"/>
<path d="M56.2657 65.3906H50.1826V65.5426H56.2657V65.3906Z" fill="white"/>
<path d="M56.2657 65.5703H50.1826V65.7223H56.2657V65.5703Z" fill="white"/>
<path d="M56.2657 65.75H50.1826V65.902H56.2657V65.75Z" fill="white"/>
<path d="M56.2657 65.9287H50.1826V66.0807H56.2657V65.9287Z" fill="white"/>
<path d="M56.2657 66.1084H50.1826V66.2604H56.2657V66.1084Z" fill="white"/>
<path d="M56.2657 66.2881H50.1826V66.4401H56.2657V66.2881Z" fill="white"/>
<path d="M56.2657 66.4639H50.1826V66.6159H56.2657V66.4639Z" fill="white"/>
<path d="M58.6733 59.3958C58.2768 59.8546 58.0524 60.4372 58.0385 61.0435C58.0246 61.6498 58.2222 62.242 58.5973 62.7185L58.6733 62.8158V63.3447H41.6919V58.7695H58.6733V59.3958Z" fill="#407BFF"/>
<path opacity="0.1" d="M58.6735 59.3958C58.277 59.8546 58.0525 60.4372 58.0386 61.0435C58.0248 61.6498 58.2223 62.242 58.5975 62.7185L58.6735 62.8158V63.3447H51.2285V58.7695H58.6735V59.3958Z" fill="black"/>
<path d="M58.5971 62.7182L58.673 62.8155H52.0337V59.3955H58.673C58.2765 59.8544 58.0521 60.4369 58.0382 61.0432C58.0243 61.6495 58.2219 62.2417 58.5971 62.7182Z" fill="#263238"/>
<path opacity="0.9" d="M58.5971 62.7182L58.673 62.8155H52.0337V59.3955H58.673C58.2765 59.8544 58.0521 60.4369 58.0382 61.0432C58.0243 61.6495 58.2219 62.2417 58.5971 62.7182Z" fill="white"/>
<path d="M50.6292 61.1835C50.6292 61.3639 50.5757 61.5402 50.4755 61.6902C50.3753 61.8401 50.2328 61.957 50.0662 62.0261C49.8995 62.0951 49.7162 62.1132 49.5393 62.078C49.3623 62.0428 49.1998 61.9559 49.0723 61.8284C48.9448 61.7008 48.8579 61.5383 48.8227 61.3614C48.7875 61.1845 48.8056 61.0011 48.8746 60.8345C48.9436 60.6678 49.0605 60.5254 49.2105 60.4252C49.3605 60.325 49.5368 60.2715 49.7172 60.2715C49.959 60.2715 50.191 60.3676 50.3621 60.5386C50.5331 60.7096 50.6292 60.9416 50.6292 61.1835Z" fill="white"/>
<path d="M50.4225 61.1832C50.4225 61.3244 50.3806 61.4626 50.3021 61.5801C50.2236 61.6975 50.112 61.7891 49.9814 61.8432C49.8509 61.8972 49.7073 61.9114 49.5687 61.8838C49.4301 61.8563 49.3028 61.7882 49.2029 61.6883C49.103 61.5884 49.0349 61.4611 49.0074 61.3225C48.9798 61.1839 48.994 61.0403 49.048 60.9098C49.1021 60.7792 49.1937 60.6676 49.3112 60.5891C49.4286 60.5106 49.5668 60.4688 49.7081 60.4688C49.8975 60.4688 50.0792 60.544 50.2132 60.678C50.3472 60.812 50.4225 60.9937 50.4225 61.1832Z" fill="#263238"/>
<path d="M46.112 59.7881H42.1509V62.3143H46.112V59.7881Z" fill="white"/>
<path d="M48.0028 59.7881H46.2974V62.3143H48.0028V59.7881Z" fill="white"/>
<path d="M52.0337 62.3903V62.0863C52.2511 62.0553 52.45 61.947 52.5939 61.7811C52.7378 61.6152 52.817 61.403 52.817 61.1834C52.817 60.9639 52.7378 60.7516 52.5939 60.5858C52.45 60.4199 52.2511 60.3115 52.0337 60.2806V59.9766C52.3282 60.0128 52.5993 60.1556 52.7959 60.3779C52.9925 60.6002 53.101 60.8867 53.101 61.1834C53.101 61.4802 52.9925 61.7667 52.7959 61.989C52.5993 62.2113 52.3282 62.354 52.0337 62.3903Z" fill="#263238"/>
<path d="M58.1167 60.3926H52.0337V60.5446H58.1167V60.3926Z" fill="white"/>
<path d="M58.1167 60.5723H52.0337V60.7243H58.1167V60.5723Z" fill="white"/>
<path d="M58.1167 60.749H52.0337V60.901H58.1167V60.749Z" fill="white"/>
<path d="M58.1167 60.9277H52.0337V61.0797H58.1167V60.9277Z" fill="white"/>
<path d="M58.1167 61.1074H52.0337V61.2594H58.1167V61.1074Z" fill="white"/>
<path d="M58.1167 61.2871H52.0337V61.4391H58.1167V61.2871Z" fill="white"/>
<path d="M58.1167 61.4658H52.0337V61.6178H58.1167V61.4658Z" fill="white"/>
<path d="M58.1167 61.6426H52.0337V61.7946H58.1167V61.6426Z" fill="white"/>
<path d="M58.1167 61.8223H52.0337V61.9743H58.1167V61.8223Z" fill="white"/>
<path d="M50.2007 37.5991C53.6819 38.0758 57.2132 38.0553 60.6887 37.5383C60.791 37.5367 60.8917 37.5131 60.9841 37.469C61.0764 37.425 61.1582 37.3615 61.2237 37.283C61.3818 37.0215 61.1599 36.7054 60.9775 36.4622C60.6463 36.0144 60.4117 35.5027 60.2887 34.9595C60.1657 34.4163 60.157 33.8534 60.2631 33.3066C57.6703 35.6683 54.4017 37.1569 50.9181 37.5626L50.2007 37.5991Z" fill="#407BFF"/>
<path opacity="0.4" d="M50.2007 37.5991C53.6819 38.0758 57.2132 38.0553 60.6887 37.5383C60.791 37.5367 60.8917 37.5131 60.9841 37.469C61.0764 37.425 61.1582 37.3615 61.2237 37.283C61.3818 37.0215 61.1599 36.7054 60.9775 36.4622C60.6463 36.0144 60.4117 35.5027 60.2887 34.9595C60.1657 34.4163 60.157 33.8534 60.2631 33.3066C57.6703 35.6683 54.4017 37.1569 50.9181 37.5626L50.2007 37.5991Z" fill="white"/>
<path d="M42.3332 58.7852H57.521V55.0095H42.3332V58.7852Z" fill="#407BFF"/>
<path opacity="0.6" d="M42.3849 58.7998H57.5728V55.0241H42.3849V58.7998Z" fill="white"/>
<path opacity="0.6" d="M42.3363 58.7998H53.9917V55.0241H42.3363V58.7998Z" fill="white"/>
<path d="M42.4094 58.3018L57.5243 58.773L57.506 58.39L42.4033 58.1924L42.4094 58.3018Z" fill="#407BFF"/>
<path d="M57.5242 56.5562L42.4336 55.708V55.8357L57.5242 56.845V56.5562Z" fill="#407BFF"/>
<path d="M57.5242 55.417L42.4336 55.7636V55.8852L57.5242 55.7028V55.417Z" fill="#407BFF"/>
<path d="M57.5667 57.2982L42.4731 58.0339V57.9214L57.5667 57.0459V57.2982Z" fill="#407BFF"/>
<path d="M42.3726 55.0576L57.4631 55.0698V55.1944H42.3726V55.0576Z" fill="#407BFF"/>
<path d="M43.4245 47.5371H58.6123V43.7614H43.4245V47.5371Z" fill="#407BFF"/>
<path opacity="0.6" d="M43.4733 47.5547H58.6611V43.779H43.4733V47.5547Z" fill="white"/>
<path opacity="0.6" d="M43.4276 47.5547H55.083V43.779H43.4276V47.5547Z" fill="white"/>
<path d="M43.4978 47.0567L58.6127 47.5249L58.5944 47.1418L43.4917 46.9473L43.4978 47.0567Z" fill="#407BFF"/>
<path d="M58.6125 45.3112L43.522 44.46V44.5876L58.6125 45.5969V45.3112Z" fill="#407BFF"/>
<path d="M58.6125 44.1689L43.522 44.5155V44.6401L58.6125 44.4578V44.1689Z" fill="#407BFF"/>
<path d="M58.6551 46.0531L43.5615 46.7857V46.6763L58.6551 45.8008V46.0531Z" fill="#407BFF"/>
<path d="M43.236 54.9541H58.4238V51.1784H43.236V54.9541Z" fill="#407BFF"/>
<path opacity="0.6" d="M43.2848 54.9697H58.4727V51.194H43.2848V54.9697Z" fill="white"/>
<path opacity="0.6" d="M54.9249 51.1973H43.2695V54.9729H54.9249V51.1973Z" fill="white"/>
<path d="M58.3573 54.3643L43.2546 54.5619L43.2363 54.9449L58.3482 54.4737L58.3573 54.3643Z" fill="#407BFF"/>
<path d="M43.3335 51.2275L58.4241 51.2397V51.3643H43.3335V51.2275Z" fill="#407BFF"/>
<path d="M43.2363 53.0148L58.3269 52.0055V51.8809L43.2363 52.729V53.0148Z" fill="#407BFF"/>
<path d="M58.4241 51.5889L43.3335 51.9324V52.057L58.4241 51.8746V51.5889Z" fill="#407BFF"/>
<path d="M58.4666 53.4711L43.373 54.2067V54.0943L58.4666 53.2188V53.4711Z" fill="#407BFF"/>
<path d="M57.8979 47.6191L42.7161 47.6951L42.6948 51.3948H57.8979V47.6191Z" fill="#407BFF"/>
<path opacity="0.6" d="M42.7101 51.3945H57.8979V47.6189H42.7101V51.3945Z" fill="white"/>
<path opacity="0.6" d="M54.3502 47.6191H42.6948V51.3948H54.3502V47.6191Z" fill="white"/>
<path d="M54.8094 47.6953H42.7163V48.0814H54.548L54.8094 47.6953Z" fill="#407BFF"/>
<path d="M57.8099 49.2422L42.7163 49.382V49.4945H57.8099V49.2422Z" fill="#407BFF"/>
<path d="M42.7163 50.9906L57.8099 50.2549V50.3643L42.7163 51.2429V50.9906Z" fill="#407BFF"/>
<path d="M42.7163 49.5703L57.8099 49.8713V49.9777L42.7163 49.8196V49.5703Z" fill="#407BFF"/>
<path d="M61.7742 39.4053H46.6836V41.3053H61.7742V39.4053Z" fill="#407BFF"/>
<path opacity="0.6" d="M61.7742 39.4053H46.6836V41.3053H61.7742V39.4053Z" fill="white"/>
<path opacity="0.6" d="M58.7068 39.4053H46.6836V41.3053H58.7068V39.4053Z" fill="white"/>
<path d="M61.7829 40.7549L46.6924 40.8278V40.8856H61.7829V40.7549Z" fill="#407BFF"/>
<path d="M46.6924 40.0432L61.7829 39.6602V39.7179L46.6924 40.1739V40.0432Z" fill="#407BFF"/>
<path d="M46.644 39.9395L61.7346 40.0945V40.1523L46.644 40.0671V39.9395Z" fill="#407BFF"/>
<path d="M59.6643 38.5693H44.5737V39.4844H59.6643V38.5693Z" fill="#407BFF"/>
<path opacity="0.6" d="M59.6643 38.5752H44.5737V39.4842H59.6643V38.5752Z" fill="white"/>
<path opacity="0.6" d="M56.6 38.5205H44.5737V39.4872H56.6V38.5205Z" fill="white"/>
<path d="M44.5796 39.2649L59.6702 38.8818V38.9396L44.5796 39.3956V39.2649Z" fill="#407BFF"/>
<path d="M44.5796 38.8057L59.6702 38.9607V39.0185L44.5796 38.9364V38.8057Z" fill="#407BFF"/>
<path d="M61.0686 37.6328H45.978V38.5479H61.0686V37.6328Z" fill="#407BFF"/>
<path opacity="0.6" d="M61.0686 37.6387H45.978V38.5476H61.0686V37.6387Z" fill="white"/>
<path opacity="0.6" d="M58.0012 37.584H45.978V38.5507H58.0012V37.584Z" fill="white"/>
<path d="M45.9875 38.0459L61.0811 38.2283L61.0781 38.2891L45.9814 38.1766L45.9875 38.0459Z" fill="#407BFF"/>
<path d="M45.9873 37.8701L61.0748 38.0252V38.0829L45.9873 38.0008V37.8701Z" fill="#407BFF"/>
<path d="M60.7556 41.3076H45.665V43.7548H60.7556V41.3076Z" fill="#407BFF"/>
<path opacity="0.6" d="M60.7556 41.3076H45.665V43.7548H60.7556V41.3076Z" fill="white"/>
<path opacity="0.6" d="M57.3082 41.3076H45.665V43.7548H57.3082V41.3076Z" fill="white"/>
<path d="M60.6584 42.068L45.5679 41.9829V41.916H60.6584V42.068Z" fill="#407BFF"/>
<path d="M45.6714 42.4234L60.7619 42.8642V42.7973L45.6714 42.2744V42.4234Z" fill="#407BFF"/>
<path d="M60.7616 41.3076H46.5283L46.8445 41.6116H60.7616V41.3076Z" fill="#407BFF"/>
<path d="M45.7227 43.3781L60.8132 43.1957V43.1318L45.7227 43.2261V43.3781Z" fill="#407BFF"/>
</g>
<defs>
<clipPath id="clip0_86_6227">
<rect width="152" height="152" fill="white" transform="translate(0.5)"/>
</clipPath>
</defs>
</svg>
