<svg width="26" height="33" viewBox="0 0 26 33" fill="none" xmlns="http://www.w3.org/2000/svg">
<path d="M13 31.3607C13.2379 31.3607 13.4459 31.2778 13.5872 31.2084C13.7413 31.1327 13.8952 31.0328 14.0427 30.9247C14.3382 30.7081 14.6711 30.4116 15.0198 30.0715C15.7206 29.3881 16.5484 28.4665 17.3711 27.4913C19.0114 25.5472 20.6957 23.3138 21.3801 22.2035C21.4345 22.1152 21.4884 22.0278 21.5419 21.9411C23.4608 18.8309 24.75 16.7413 24.75 13C24.75 6.51065 19.4893 1.25 13 1.25C6.51065 1.25 1.25 6.51065 1.25 13C1.25 16.8552 2.50968 18.934 4.52163 22.203C5.25231 23.3903 6.96332 25.6256 8.61745 27.5517C9.4474 28.5181 10.2795 29.4259 10.983 30.0978C11.3331 30.4321 11.6669 30.7231 11.9631 30.9354C12.1109 31.0413 12.2648 31.139 12.4186 31.2129C12.56 31.2809 12.7658 31.3607 13 31.3607Z" fill="#F52D56" stroke="white" stroke-width="1.5"/>
<path fill-rule="evenodd" clip-rule="evenodd" d="M13 18.5C16.0376 18.5 18.5 16.0376 18.5 13C18.5 9.96243 16.0376 7.5 13 7.5C9.96243 7.5 7.5 9.96243 7.5 13C7.5 16.0376 9.96243 18.5 13 18.5Z" fill="white"/>
</svg>
