<svg width="36" height="35" viewBox="0 0 36 35" fill="none" xmlns="http://www.w3.org/2000/svg">
<path d="M4 5.25C4 4.78587 4.18437 4.34075 4.51256 4.01256C4.84075 3.68437 5.28587 3.5 5.75 3.5H9.51775C9.93199 3.50019 10.3327 3.64732 10.6487 3.9152C10.9646 4.18309 11.1753 4.55437 11.2432 4.963L12.5382 12.7242C12.6001 13.0939 12.5417 13.4736 12.3716 13.8076C12.2015 14.1415 11.9286 14.412 11.5933 14.5793L8.88425 15.932C9.85569 18.3394 11.3025 20.5262 13.1381 22.3619C14.9738 24.1975 17.1606 25.6443 19.568 26.6157L20.9225 23.9067C21.0897 23.5717 21.3599 23.2991 21.6935 23.129C22.027 22.9589 22.4064 22.9003 22.7757 22.9618L30.537 24.2568C30.9456 24.3247 31.3169 24.5354 31.5848 24.8513C31.8527 25.1673 31.9998 25.568 32 25.9823V29.75C32 30.2141 31.8156 30.6593 31.4874 30.9874C31.1593 31.3156 30.7141 31.5 30.25 31.5H26.75C14.185 31.5 4 21.315 4 8.75V5.25Z" fill="white"/>
</svg>
