<svg width="36" height="35" viewBox="0 0 36 35" fill="none" xmlns="http://www.w3.org/2000/svg">
<path d="M4.00488 10.297L17.9996 17.2935L31.9944 10.297C31.9426 9.40528 31.5518 8.5671 30.9021 7.95415C30.2523 7.34119 29.3929 6.99984 28.4996 7H7.49963C6.60641 6.99984 5.74692 7.34119 5.09719 7.95415C4.44747 8.5671 4.05669 9.40528 4.00488 10.297Z" fill="white"/>
<path d="M32 14.2065L18 21.2065L4 14.2065V24.5C4 25.4283 4.36875 26.3185 5.02513 26.9749C5.6815 27.6312 6.57174 28 7.5 28H28.5C29.4283 28 30.3185 27.6312 30.9749 26.9749C31.6313 26.3185 32 25.4283 32 24.5V14.2065Z" fill="white"/>
</svg>
