<svg width="29" height="29" viewBox="0 0 29 29" fill="none" xmlns="http://www.w3.org/2000/svg">
<path d="M27.75 14.125C27.75 17.606 26.3672 20.9444 23.9058 23.4058C21.4444 25.8672 18.106 27.25 14.625 27.25M27.75 14.125C27.75 10.644 26.3672 7.30564 23.9058 4.84422C21.4444 2.38281 18.106 1 14.625 1M27.75 14.125H1.5M14.625 27.25C11.144 27.25 7.80564 25.8672 5.34422 23.4058C2.88281 20.9444 1.5 17.606 1.5 14.125M14.625 27.25C17.0415 27.25 19 21.3729 19 14.125C19 6.87708 17.0415 1 14.625 1M14.625 27.25V1M14.625 27.25C12.2085 27.25 10.25 21.3729 10.25 14.125C10.25 6.87708 12.2085 1 14.625 1M14.625 1C11.144 1 7.80564 2.38281 5.34422 4.84422C2.88281 7.30564 1.5 10.644 1.5 14.125" stroke="white" stroke-width="2" stroke-linecap="round" stroke-linejoin="round"/>
</svg>
